Playfair-Italic.glyphspackage
{
color = 5;
glyphname = exclam;
layers = (
{
background = {
guides = (
{
angle = 74.4;
pos = (
29,
-96
);
},
{
pos = (
76,
198
);
}
);
shapes = (
{
closed = 1;
nodes = (
(
408,
450,
o
),
(
531,
684,
o
),
(
531,
741,
cs
),
(
531,
764,
o
),
(
519,
782,
o
),
(
490,
782,
cs
),
(
465,
782,
o
),
(
448,
768,
o
),
(
439,
734,
cs
),
(
411,
629,
o
),
(
388,
410,
o
),
(
333,
198,
c
),
(
334,
198,
l
)
);
},
{
closed = 1;
nodes = (
(
322,
-14,
o
),
(
351,
16,
o
),
(
351,
50,
cs
),
(
351,
82,
o
),
(
327,
106,
o
),
(
295,
106,
cs
),
(
261,
106,
o
),
(
231,
77,
o
),
(
231,
42,
cs
),
(
231,
11,
o
),
(
256,
-14,
o
),
(
287,
-14,
cs
)
);
}
);
};
guides = (
{
angle = 74.4;
pos = (
251,
-96
);
},
{
pos = (
298,
198
);
}
);
layerId = "8A8107C8-C076-4746-AE01-7D15750BBEFC";
shapes = (
{
closed = 1;
nodes = (
(
322,
-14,
o
),
(
351,
16,
o
),
(
351,
50,
cs
),
(
351,
82,
o
),
(
327,
106,
o
),
(
295,
106,
cs
),
(
261,
106,
o
),
(
231,
77,
o
),
(
231,
42,
cs
),
(
231,
11,
o
),
(
256,
-14,
o
),
(
287,
-14,
cs
)
);
},
{
closed = 1;
nodes = (
(
409,
450,
o
),
(
532,
684,
o
),
(
532,
741,
cs
),
(
532,
764,
o
),
(
520,
782,
o
),
(
491,
782,
cs
),
(
466,
782,
o
),
(
449,
768,
o
),
(
440,
734,
cs
),
(
412,
629,
o
),
(
389,
410,
o
),
(
334,
198,
c
),
(
335,
198,
l
)
);
}
);
width = 700;
},
{
background = {
guides = (
{
angle = 74.4;
pos = (
63,
-96
);
},
{
pos = (
76,
198
);
}
);
shapes = (
{
closed = 1;
nodes = (
(
474,
569,
o
),
(
533,
676,
o
),
(
533,
734,
cs
),
(
533,
765,
o
),
(
517,
782,
o
),
(
491,
782,
cs
),
(
465,
782,
o
),
(
444,
759,
o
),
(
432,
717,
cs
),
(
417,
665,
o
),
(
369,
447,
o
),
(
313,
249,
c
),
(
379,
234,
l
)
);
},
{
closed = 1;
nodes = (
(
343,
-14,
o
),
(
383,
26,
o
),
(
383,
77,
cs
),
(
383,
124,
o
),
(
351,
156,
o
),
(
304,
156,
cs
),
(
253,
156,
o
),
(
213,
116,
o
),
(
213,
65,
cs
),
(
213,
19,
o
),
(
246,
-14,
o
),
(
292,
-14,
cs
)
);
}
);
};
guides = (
{
angle = 74.4;
pos = (
252,
-96
);
},
{
pos = (
265,
198
);
}
);
layerId = "4637ED20-F3CC-4D04-82BF-886AF47DA6B7";
shapes = (
{
closed = 1;
nodes = (
(
343,
-14,
o
),
(
383,
26,
o
),
(
383,
77,
cs
),
(
383,
124,
o
),
(
351,
156,
o
),
(
304,
156,
cs
),
(
253,
156,
o
),
(
213,
116,
o
),
(
213,
65,
cs
),
(
213,
19,
o
),
(
246,
-14,
o
),
(
292,
-14,
cs
)
);
},
{
closed = 1;
nodes = (
(
475,
569,
o
),
(
534,
676,
o
),
(
534,
734,
cs
),
(
534,
765,
o
),
(
518,
782,
o
),
(
492,
782,
cs
),
(
466,
782,
o
),
(
445,
759,
o
),
(
433,
717,
cs
),
(
418,
665,
o
),
(
370,
447,
o
),
(
314,
249,
c
),
(
380,
234,
l
)
);
}
);
width = 700;
},
{
background = {
guides = (
{
angle = 74.4;
pos = (
62,
-96
);
},
{
pos = (
70,
198
);
}
);
shapes = (
{
closed = 1;
nodes = (
(
402,
388,
o
),
(
581,
550,
o
),
(
581,
680,
cs
),
(
581,
748,
o
),
(
537,
782,
o
),
(
485,
782,
cs
),
(
392,
782,
o
),
(
354,
696,
o
),
(
354,
578,
cs
),
(
354,
446,
o
),
(
358,
328,
o
),
(
339,
198,
c
),
(
340,
198,
l
)
);
},
{
closed = 1;
nodes = (
(
359,
-14,
o
),
(
404,
25,
o
),
(
404,
76,
cs
),
(
404,
121,
o
),
(
366,
154,
o
),
(
312,
154,
cs
),
(
253,
154,
o
),
(
208,
115,
o
),
(
208,
64,
cs
),
(
208,
18,
o
),
(
245,
-14,
o
),
(
300,
-14,
cs
)
);
}
);
};
guides = (
{
angle = 74.4;
pos = (
257,
-96
);
},
{
pos = (
265,
198
);
}
);
layerId = "19651320-9895-44C9-9F41-285CE0F17596";
shapes = (
{
closed = 1;
nodes = (
(
349,
-14,
o
),
(
394,
25,
o
),
(
394,
76,
cs
),
(
394,
121,
o
),
(
356,
154,
o
),
(
302,
154,
cs
),
(
243,
154,
o
),
(
198,
115,
o
),
(
198,
64,
cs
),
(
198,
18,
o
),
(
235,
-14,
o
),
(
290,
-14,
cs
)
);
},
{
closed = 1;
nodes = (
(
393,
388,
o
),
(
572,
550,
o
),
(
572,
680,
cs
),
(
572,
748,
o
),
(
528,
782,
o
),
(
476,
782,
cs
),
(
383,
782,
o
),
(
345,
696,
o
),
(
345,
578,
cs
),
(
345,
446,
o
),
(
349,
328,
o
),
(
330,
198,
c
),
(
331,
198,
l
)
);
}
);
width = 700;
},
{
background = {
guides = (
{
angle = 74.4;
pos = (
111,
-96
);
},
{
pos = (
83,
234
);
}
);
shapes = (
{
closed = 1;
nodes = (
(
456.5,
443,
o
),
(
575.5,
559,
o
),
(
575.5,
680,
cs
),
(
575.5,
744,
o
),
(
536.5,
782,
o
),
(
474.5,
782,
cs
),
(
398.5,
782,
o
),
(
356.5,
718,
o
),
(
349.5,
600,
cs
),
(
339.5,
422,
o
),
(
343.5,
385,
o
),
(
312.5,
249,
c
),
(
378.5,
234,
l
)
);
},
{
closed = 1;
nodes = (
(
356.5,
-14,
o
),
(
404.5,
28,
o
),
(
404.5,
83,
cs
),
(
404.5,
133,
o
),
(
363.5,
168,
o
),
(
306.5,
168,
cs
),
(
243.5,
168,
o
),
(
196.5,
126,
o
),
(
196.5,
71,
cs
),
(
196.5,
21,
o
),
(
237.5,
-14,
o
),
(
294.5,
-14,
cs
)
);
}
);
};
guides = (
{
angle = 74.4;
pos = (
251.5,
-96
);
},
{
pos = (
223.5,
234
);
}
);
layerId = "5936EB7C-5C81-433B-ABAB-ADB37EE98828";
shapes = (
{
closed = 1;
nodes = (
(
355.5,
-14,
o
),
(
403.5,
28,
o
),
(
403.5,
83,
cs
),
(
403.5,
133,
o
),
(
362.5,
168,
o
),
(
305.5,
168,
cs
),
(
242.5,
168,
o
),
(
195.5,
126,
o
),
(
195.5,
71,
cs
),
(
195.5,
21,
o
),
(
236.5,
-14,
o
),
(
293.5,
-14,
cs
)
);
},
{
closed = 1;
nodes = (
(
451.5,
443,
o
),
(
570.5,
559,
o
),
(
570.5,
680,
cs
),
(
570.5,
744,
o
),
(
531.5,
782,
o
),
(
469.5,
782,
cs
),
(
393.5,
782,
o
),
(
351.5,
718,
o
),
(
344.5,
600,
cs
),
(
334.5,
422,
o
),
(
338.5,
385,
o
),
(
307.5,
249,
c
),
(
373.5,
234,
l
)
);
}
);
width = 700;
}
);
metricLeft = period;
metricRight = period;
unicode = 33;
userData = {
KernOnSpecialSpacing = {};
};
}
{
color = 8;
glyphname = quotedbl;
kernLeft = KO_quotedbl;
kernRight = KO_quotedbl;
layers = (
{
layerId = "8A8107C8-C076-4746-AE01-7D15750BBEFC";
shapes = (
{
closed = 1;
nodes = (
(
204.5,
448,
l
),
(
242.5,
536,
o
),
(
322.5,
610,
o
),
(
322.5,
679,
cs
),
(
322.5,
712,
o
),
(
304.5,
730,
o
),
(
271.5,
730,
cs
),
(
226.5,
730,
o
),
(
204.5,
695,
o
),
(
204.5,
624,
cs
),
(
204.5,
584,
o
),
(
211.5,
538,
o
),
(
203.5,
448,
c
)
);
},
{
closed = 1;
nodes = (
(
378.5,
448,
l
),
(
416.5,
536,
o
),
(
496.5,
610,
o
),
(
496.5,
679,
cs
),
(
496.5,
712,
o
),
(
478.5,
730,
o
),
(
445.5,
730,
cs
),
(
400.5,
730,
o
),
(
378.5,
695,
o
),
(
378.5,
624,
cs
),
(
378.5,
584,
o
),
(
385.5,
538,
o
),
(
377.5,
448,
c
)
);
}
);
width = 700;
},
{
layerId = "4637ED20-F3CC-4D04-82BF-886AF47DA6B7";
shapes = (
{
closed = 1;
nodes = (
(
245.5,
468,
l
),
(
272.5,
562,
o
),
(
331.5,
630,
o
),
(
331.5,
686,
cs
),
(
331.5,
714,
o
),
(
316.5,
730,
o
),
(
288.5,
730,
cs
),
(
255.5,
730,
o
),
(
232.5,
708,
o
),
(
219.5,
665,
cs
),
(
204.5,
614,
o
),
(
211.5,
557,
o
),
(
191.5,
468,
c
)
);
},
{
closed = 1;
nodes = (
(
422.5,
468,
l
),
(
449.5,
562,
o
),
(
508.5,
630,
o
),
(
508.5,
686,
cs
),
(
508.5,
714,
o
),
(
493.5,
730,
o
),
(
465.5,
730,
cs
),
(
432.5,
730,
o
),
(
409.5,
708,
o
),
(
396.5,
665,
cs
),
(
381.5,
614,
o
),
(
388.5,
557,
o
),
(
368.5,
468,
c
)
);
}
);
width = 700;
},
{
layerId = "19651320-9895-44C9-9F41-285CE0F17596";
shapes = (
{
closed = 1;
nodes = (
(
182.5,
448,
l
),
(
231.5,
520,
o
),
(
332.5,
581,
o
),
(
332.5,
656,
cs
),
(
332.5,
699,
o
),
(
295.5,
730,
o
),
(
245.5,
730,
cs
),
(
181.5,
730,
o
),
(
137.5,
689,
o
),
(
137.5,
629,
cs
),
(
137.5,
571,
o
),
(
170.5,
523,
o
),
(
181.5,
448,
c
)
);
},
{
closed = 1;
nodes = (
(
412.5,
448,
l
),
(
461.5,
520,
o
),
(
562.5,
581,
o
),
(
562.5,
656,
cs
),
(
562.5,
699,
o
),
(
525.5,
730,
o
),
(
475.5,
730,
cs
),
(
411.5,
730,
o
),
(
367.5,
689,
o
),
(
367.5,
629,
cs
),
(
367.5,
571,
o
),
(
400.5,
523,
o
),
(
411.5,
448,
c
)
);
}
);
width = 700;
},
{
layerId = "5936EB7C-5C81-433B-ABAB-ADB37EE98828";
shapes = (
{
closed = 1;
nodes = (
(
201,
468,
l
),
(
240,
533,
o
),
(
319,
588,
o
),
(
319,
656,
cs
),
(
319,
699,
o
),
(
282,
730,
o
),
(
232,
730,
cs
),
(
168,
730,
o
),
(
124,
689,
o
),
(
124,
629,
cs
),
(
124,
577,
o
),
(
142,
535,
o
),
(
147,
468,
c
)
);
},
{
closed = 1;
nodes = (
(
458,
468,
l
),
(
497,
533,
o
),
(
576,
588,
o
),
(
576,
656,
cs
),
(
576,
699,
o
),
(
539,
730,
o
),
(
489,
730,
cs
),
(
425,
730,
o
),
(
381,
689,
o
),
(
381,
629,
cs
),
(
381,
577,
o
),
(
399,
535,
o
),
(
404,
468,
c
)
);
}
);
width = 700;
}
);
metricLeft = quotesingle;
metricRight = quotesingle;
unicode = 34;
userData = {
KernOnSpecialSpacing = {
L = quotes;
R = quotes;
};
};
}
{
color = 4;
glyphname = numbersign;
layers = (
{
background = {
guides = (
{
angle = 74.4;
pos = (
15,
132
);
},
{
angle = 74.4;
pos = (
122,
-14
);
}
);
shapes = (
{
closed = 1;
nodes = (
(
417,
18,
l
),
(
601,
673,
l
),
(
513,
649,
l
),
(
329,
-7,
l
)
);
},
{
closed = 1;
nodes = (
(
582,
195,
l
),
(
582,
196,
l
),
(
41,
45,
l
),
(
41,
44,
l
)
);
},
{
closed = 1;
nodes = (
(
213,
-39,
l
),
(
397,
616,
l
),
(
309,
592,
l
),
(
125,
-63,
l
)
);
},
{
closed = 1;
nodes = (
(
679,
541,
l
),
(
679,
542,
l
),
(
138,
391,
l
),
(
138,
390,
l
)
);
}
);
};
guides = (
{
angle = 74.4;
pos = (
46,
132
);
},
{
angle = 74.4;
pos = (
153,
-14
);
}
);
layerId = "8A8107C8-C076-4746-AE01-7D15750BBEFC";
shapes = (
{
closed = 1;
nodes = (
(
417,
18,
l
),
(
601,
673,
l
),
(
513,
649,
l
),
(
329,
-7,
l
)
);
},
{
closed = 1;
nodes = (
(
582,
195,
l
),
(
582,
196,
l
),
(
41,
45,
l
),
(
41,
44,
l
)
);
},
{
closed = 1;
nodes = (
(
213,
-39,
l
),
(
397,
616,
l
),
(
309,
592,
l
),
(
125,
-63,
l
)
);
},
{
closed = 1;
nodes = (
(
679,
541,
l
),
(
679,
542,
l
),
(
138,
391,
l
),
(
138,
390,
l
)
);
}
);
width = 700;
},
{
background = {
guides = (
{
angle = 74.4;
pos = (
3,
121
);
}
);
shapes = (
{
closed = 1;
nodes = (
(
419,
18,
l
),
(
603,
673,
l
),
(
522,
651,
l
),
(
339,
-5,
l
)
);
},
{
closed = 1;
nodes = (
(
584,
184,
l
),
(
605,
259,
l
),
(
53,
106,
l
),
(
32,
31,
l
)
);
},
{
closed = 1;
nodes = (
(
205,
-42,
l
),
(
388,
614,
l
),
(
308,
591,
l
),
(
124,
-64,
l
)
);
},
{
closed = 1;
nodes = (
(
671,
494,
l
),
(
692,
569,
l
),
(
140,
416,
l
),
(
120,
341,
l
)
);
}
);
};
guides = (
{
angle = 74.4;
pos = (
38,
121
);
}
);
layerId = "4637ED20-F3CC-4D04-82BF-886AF47DA6B7";
shapes = (
{
closed = 1;
nodes = (
(
419,
18,
l
),
(
603,
673,
l
),
(
522,
651,
l
),
(
339,
-5,
l
)
);
},
{
closed = 1;
nodes = (
(
584,
184,
l
),
(
605,
259,
l
),
(
53,
106,
l
),
(
32,
31,
l
)
);
},
{
closed = 1;
nodes = (
(
205,
-42,
l
),
(
388,
614,
l
),
(
308,
591,
l
),
(
124,
-64,
l
)
);
},
{
closed = 1;
nodes = (
(
671,
494,
l
),
(
692,
569,
l
),
(
140,
416,
l
),
(
120,
341,
l
)
);
}
);
width = 700;
},
{
background = {
guides = (
{
angle = 74.4;
pos = (
-5,
132
);
}
);
shapes = (
{
closed = 1;
nodes = (
(
475,
34,
l
),
(
659,
689,
l
),
(
528,
653,
l
),
(
345,
-2,
l
)
);
},
{
closed = 1;
nodes = (
(
615,
204,
l
),
(
615,
205,
l
),
(
6,
36,
l
),
(
6,
35,
l
)
);
},
{
closed = 1;
nodes = (
(
197,
-43,
l
),
(
380,
612,
l
),
(
250,
576,
l
),
(
66,
-80,
l
)
);
},
{
closed = 1;
nodes = (
(
712,
550,
l
),
(
712,
551,
l
),
(
104,
382,
l
),
(
104,
381,
l
)
);
}
);
};
guides = (
{
angle = 74.4;
pos = (
12,
132
);
}
);
layerId = "19651320-9895-44C9-9F41-285CE0F17596";
shapes = (
{
closed = 1;
nodes = (
(
475,
34,
l
),
(
659,
689,
l
),
(
528,
653,
l
),
(
345,
-2,
l
)
);
},
{
closed = 1;
nodes = (
(
615,
204,
l
),
(
615,
205,
l
),
(
6,
36,
l
),
(
6,
35,
l
)
);
},
{
closed = 1;
nodes = (
(
197,
-43,
l
),
(
380,
612,
l
),
(
250,
576,
l
),
(
66,
-80,
l
)
);
},
{
closed = 1;
nodes = (
(
712,
550,
l
),
(
712,
551,
l
),
(
104,
382,
l
),
(
104,
381,
l
)
);
}
);
width = 700;
},
{
background = {
guides = (
{
angle = 74.4;
pos = (
12,
121
);
},
{
angle = 74.4;
pos = (
100,
0
);
}
);
shapes = (
{
closed = 1;
nodes = (
(
469.655,
37,
l
),
(
634.571,
693,
l
),
(
517.158,
657,
l
),
(
353.137,
1,
l
)
);
},
{
closed = 1;
nodes = (
(
613.061,
202,
l
),
(
630.986,
277,
l
),
(
17.926,
87,
l
),
(
0,
12,
l
)
);
},
{
closed = 1;
nodes = (
(
194.495,
-48,
l
),
(
358.515,
607,
l
),
(
241.998,
571,
l
),
(
77.081,
-84,
l
)
);
},
{
closed = 1;
nodes = (
(
691.038,
513,
l
),
(
709.86,
588,
l
),
(
96.799,
398,
l
),
(
77.977,
323,
l
)
);
}
);
};
guides = (
{
angle = 74.4;
pos = (
5.378,
121
);
},
{
angle = 74.4;
pos = (
84.251,
0
);
}
);
layerId = "5936EB7C-5C81-433B-ABAB-ADB37EE98828";
shapes = (
{
closed = 1;
nodes = (
(
469.655,
37,
l
),
(
634.571,
693,
l
),
(
517.158,
657,
l
),
(
353.137,
1,
l
)
);
},
{
closed = 1;
nodes = (
(
613.061,
202,
l
),
(
630.986,
277,
l
),
(
17.926,
87,
l
),
(
0,
12,
l
)
);
},
{
closed = 1;
nodes = (
(
194.495,
-48,
l
),
(
358.515,
607,
l
),
(
241.998,
571,
l
),
(
77.081,
-84,
l
)
);
},
{
closed = 1;
nodes = (
(
691.038,
513,
l
),
(
709.86,
588,
l
),
(
96.799,
398,
l
),
(
77.977,
323,
l
)
);
}
);
width = 700;
}
);
unicode = 35;
}
{
color = 4;
glyphname = percent;
layers = (
{
background = {
guides = (
{
angle = 74.4;
pos = (
256,
357
);
},
{
angle = 74.4;
pos = (
672,
174
);
}
);
shapes = (
{
closed = 1;
nodes = (
(
269.706,
217,
o
),
(
337.235,
297,
o
),
(
337.235,
396,
cs
),
(
337.235,
476,
o
),
(
293.588,
528,
o
),
(
227.706,
528,
cs
),
(
146.176,
528,
o
),
(
80.294,
449,
o
),
(
80.294,
349,
cs
),
(
80.294,
269,
o
),
(
122.294,
217,
o
),
(
187.353,
217,
cs
)
);
},
{
closed = 1;
nodes = (
(
158.529,
218,
o
),
(
138.765,
262,
o
),
(
138.765,
335,
cs
),
(
138.765,
437,
o
),
(
180.765,
527,
o
),
(
227.706,
527,
cs
),
(
259.824,
527,
o
),
(
277.941,
485,
o
),
(
277.941,
411,
cs
),
(
277.941,
307,
o
),
(
237.588,
218,
o
),
(
190.647,
218,
cs
)
);
},
{
closed = 1;
nodes = (
(
552.176,
-14,
o
),
(
619.706,
66,
o
),
(
619.706,
165,
cs
),
(
619.706,
245,
o
),
(
576.059,
297,
o
),
(
510.176,
297,
cs
),
(
428.647,
297,
o
),
(
362.765,
218,
o
),
(
362.765,
118,
cs
),
(
362.765,
38,
o
),
(
404.765,
-14,
o
),
(
469.824,
-14,
cs
)
);
},
{
closed = 1;
nodes = (
(
441,
-13,
o
),
(
421.235,
31,
o
),
(
421.235,
104,
cs
),
(
421.235,
206,
o
),
(
463.235,
296,
o
),
(
510.176,
296,
cs
),
(
542.294,
296,
o
),
(
560.412,
254,
o
),
(
560.412,
180,
cs
),
(
560.412,
76,
o
),
(
520.059,
-13,
o
),
(
473.118,
-13,
cs
)
);
},
{
closed = 1;
nodes = (
(
533.235,
528,
l
),
(
532.412,
529,
l
),
(
170.882,
-13,
l
),
(
171.706,
-14,
l
)
);
},
{
closed = 1;
nodes = (
(
456.647,
470,
o
),
(
500.294,
490,
o
),
(
533.235,
528,
c
),
(
532.412,
529,
l
),
(
500.294,
492,
o
),
(
455.824,
471,
o
),
(
408.059,
471,
cs
),
(
371,
471,
o
),
(
320.765,
487,
o
),
(
289.471,
508,
c
),
(
288.647,
507,
l
),
(
319.941,
485,
o
),
(
368.529,
470,
o
),
(
408.059,
470,
cs
)
);
}
);
};
guides = (
{
angle = 74.4;
pos = (
210.412,
357
);
},
{
angle = 74.4;
pos = (
553,
174
);
}
);
layerId = "8A8107C8-C076-4746-AE01-7D15750BBEFC";
shapes = (
{
closed = 1;
nodes = (
(
269.706,
217,
o
),
(
337.235,
297,
o
),
(
337.235,
396,
cs
),
(
337.235,
476,
o
),
(
293.588,
528,
o
),
(
227.706,
528,
cs
),
(
146.176,
528,
o
),
(
80.294,
449,
o
),
(
80.294,
349,
cs
),
(
80.294,
269,
o
),
(
122.294,
217,
o
),
(
187.353,
217,
cs
)
);
},
{
closed = 1;
nodes = (
(
158.529,
218,
o
),
(
138.765,
262,
o
),
(
138.765,
335,
cs
),
(
138.765,
437,
o
),
(
180.765,
527,
o
),
(
227.706,
527,
cs
),
(
259.824,
527,
o
),
(
277.941,
485,
o
),
(
277.941,
411,
cs
),
(
277.941,
307,
o
),
(
237.588,
218,
o
),
(
190.647,
218,
cs
)
);
},
{
closed = 1;
nodes = (
(
552.176,
-14,
o
),
(
619.706,
66,
o
),
(
619.706,
165,
cs
),
(
619.706,
245,
o
),
(
576.059,
297,
o
),
(
510.176,
297,
cs
),
(
428.647,
297,
o
),
(
362.765,
218,
o
),
(
362.765,
118,
cs
),
(
362.765,
38,
o
),
(
404.765,
-14,
o
),
(
469.824,
-14,
cs
)
);
},
{
closed = 1;
nodes = (
(
441,
-13,
o
),
(
421.235,
31,
o
),
(
421.235,
104,
cs
),
(
421.235,
206,
o
),
(
463.235,
296,
o
),
(
510.176,
296,
cs
),
(
542.294,
296,
o
),
(
560.412,
254,
o
),
(
560.412,
180,
cs
),
(
560.412,
76,
o
),
(
520.059,
-13,
o
),
(
473.118,
-13,
cs
)
);
},
{
closed = 1;
nodes = (
(
533.235,
528,
l
),
(
532.412,
529,
l
),
(
170.882,
-13,
l
),
(
171.706,
-14,
l
)
);
},
{
closed = 1;
nodes = (
(
455.824,
470,
o
),
(
494.529,
486,
o
),
(
521.706,
515,
c
),
(
523.353,
514,
l
),
(
532.412,
529,
l
),
(
499.471,
488,
o
),
(
459.118,
471,
o
),
(
413.824,
471,
cs
),
(
374.294,
471,
o
),
(
321.588,
489,
o
),
(
286.176,
510,
c
),
(
296.882,
494,
l
),
(
300.176,
501,
l
),
(
332.294,
485,
o
),
(
374.294,
470,
o
),
(
413.824,
470,
cs
)
);
}
);
width = 700;
},
{
background = {
guides = (
{
angle = 74.4;
pos = (
288,
357
);
}
);
shapes = (
{
closed = 1;
nodes = (
(
268.939,
222,
o
),
(
335.606,
300,
o
),
(
335.606,
396,
cs
),
(
335.606,
479,
o
),
(
291.667,
533,
o
),
(
223.485,
533,
cs
),
(
141.667,
533,
o
),
(
75,
455,
o
),
(
75,
359,
cs
),
(
75,
276,
o
),
(
118.939,
222,
o
),
(
187.121,
222,
cs
)
);
},
{
closed = 1;
nodes = (
(
176.515,
223,
o
),
(
168.182,
262,
o
),
(
168.182,
332,
cs
),
(
168.182,
438,
o
),
(
191.667,
532,
o
),
(
218.182,
532,
cs
),
(
234.091,
532,
o
),
(
242.424,
493,
o
),
(
242.424,
423,
cs
),
(
242.424,
317,
o
),
(
218.939,
223,
o
),
(
192.424,
223,
cs
)
);
},
{
closed = 1;
nodes = (
(
558.333,
-14,
o
),
(
625,
64,
o
),
(
625,
160,
cs
),
(
625,
243,
o
),
(
581.061,
297,
o
),
(
512.879,
297,
cs
),
(
431.061,
297,
o
),
(
364.394,
219,
o
),
(
364.394,
123,
cs
),
(
364.394,
40,
o
),
(
408.333,
-14,
o
),
(
476.515,
-14,
cs
)
);
},
{
closed = 1;
nodes = (
(
465.909,
-13,
o
),
(
457.576,
26,
o
),
(
457.576,
96,
cs
),
(
457.576,
202,
o
),
(
481.061,
296,
o
),
(
507.576,
296,
cs
),
(
523.485,
296,
o
),
(
531.818,
257,
o
),
(
531.818,
187,
cs
),
(
531.818,
81,
o
),
(
508.333,
-13,
o
),
(
481.818,
-13,
cs
)
);
},
{
closed = 1;
nodes = (
(
535.606,
532,
l
),
(
534.848,
533,
l
),
(
168.939,
-13,
l
),
(
169.697,
-14,
l
)
);
},
{
closed = 1;
nodes = (
(
455.303,
474,
o
),
(
502.273,
495,
o
),
(
535.606,
532,
c
),
(
534.848,
533,
l
),
(
502.273,
496,
o
),
(
454.545,
475,
o
),
(
405.303,
475,
cs
),
(
366.667,
475,
o
),
(
316.667,
491,
o
),
(
287.121,
512,
c
),
(
286.364,
511,
l
),
(
318.182,
489,
o
),
(
366.667,
474,
o
),
(
405.303,
474,
cs
)
);
}
);
};
guides = (
{
angle = 74.4;
pos = (
218.182,
357
);
}
);
layerId = "19651320-9895-44C9-9F41-285CE0F17596";
shapes = (
{
closed = 1;
nodes = (
(
268.939,
222,
o
),
(
335.606,
300,
o
),
(
335.606,
396,
cs
),
(
335.606,
479,
o
),
(
291.667,
533,
o
),
(
223.485,
533,
cs
),
(
141.667,
533,
o
),
(
75,
455,
o
),
(
75,
359,
cs
),
(
75,
276,
o
),
(
118.939,
222,
o
),
(
187.121,
222,
cs
)
);
},
{
closed = 1;
nodes = (
(
176.515,
223,
o
),
(
168.182,
262,
o
),
(
168.182,
332,
cs
),
(
168.182,
438,
o
),
(
191.667,
532,
o
),
(
218.182,
532,
cs
),
(
234.091,
532,
o
),
(
242.424,
493,
o
),
(
242.424,
423,
cs
),
(
242.424,
317,
o
),
(
218.939,
223,
o
),
(
192.424,
223,
cs
)
);
},
{
closed = 1;
nodes = (
(
558.333,
-14,
o
),
(
625,
64,
o
),
(
625,
160,
cs
),
(
625,
243,
o
),
(
581.061,
297,
o
),
(
512.879,
297,
cs
),
(
431.061,
297,
o
),
(
364.394,
219,
o
),
(
364.394,
123,
cs
),
(
364.394,
40,
o
),
(
408.333,
-14,
o
),
(
476.515,
-14,
cs
)
);
},
{
closed = 1;
nodes = (
(
465.909,
-13,
o
),
(
457.576,
26,
o
),
(
457.576,
96,
cs
),
(
457.576,
202,
o
),
(
481.061,
296,
o
),
(
507.576,
296,
cs
),
(
523.485,
296,
o
),
(
531.818,
257,
o
),
(
531.818,
187,
cs
),
(
531.818,
81,
o
),
(
508.333,
-13,
o
),
(
481.818,
-13,
cs
)
);
},
{
closed = 1;
nodes = (
(
535.606,
532,
l
),
(
534.848,
533,
l
),
(
168.939,
-13,
l
),
(
169.697,
-14,
l
)
);
},
{
closed = 1;
nodes = (
(
457.576,
474,
o
),
(
496.97,
490,
o
),
(
525,
520,
c
),
(
526.515,
519,
l
),
(
534.848,
533,
l
),
(
503.03,
492,
o
),
(
460.606,
475,
o
),
(
414.394,
475,
cs
),
(
374.242,
475,
o
),
(
322.727,
491,
o
),
(
284.848,
514,
c
),
(
293.939,
498,
l
),
(
297.727,
505,
l
),
(
331.061,
489,
o
),
(
373.485,
474,
o
),
(
414.394,
474,
cs
)
);
}
);
width = 700;
},
{
background = {
guides = (
{
angle = 74.4;
pos = (
757,
174
);
},
{
angle = 74.4;
pos = (
388,
367
);
}
);
shapes = (
{
closed = 1;
nodes = (
(
243.226,
218,
o
),
(
293.548,
290,
o
),
(
293.548,
389,
cs
),
(
293.548,
475,
o
),
(
255.484,
529,
o
),
(
194.194,
529,
cs
),
(
124.516,
529,
o
),
(
74.194,
457,
o
),
(
74.194,
358,
cs
),
(
74.194,
272,
o
),
(
112.258,
218,
o
),
(
173.548,
218,
cs
)
);
},
{
closed = 1;
nodes = (
(
139.355,
266,
o
),
(
119.355,
300,
o
),
(
119.355,
361,
cs
),
(
119.355,
434,
o
),
(
147.742,
481,
o
),
(
190.968,
481,
cs
),
(
228.387,
481,
o
),
(
248.387,
447,
o
),
(
248.387,
386,
cs
),
(
248.387,
313,
o
),
(
220,
266,
o
),
(
176.774,
266,
cs
)
);
},
{
closed = 1;
nodes = (
(
575.484,
-15,
o
),
(
625.806,
57,
o
),
(
625.806,
156,
cs
),
(
625.806,
242,
o
),
(
587.742,
296,
o
),
(
526.452,
296,
cs
),
(
456.774,
296,
o
),
(
406.452,
224,
o
),
(
406.452,
125,
cs
),
(
406.452,
39,
o
),
(
444.516,
-15,
o
),
(
505.806,
-15,
cs
)
);
},
{
closed = 1;
nodes = (
(
471.613,
33,
o
),
(
451.613,
67,
o
),
(
451.613,
128,
cs
),
(
451.613,
201,
o
),
(
480,
248,
o
),
(
523.226,
248,
cs
),
(
560.645,
248,
o
),
(
580.645,
214,
o
),
(
580.645,
153,
cs
),
(
580.645,
80,
o
),
(
552.258,
33,
o
),
(
509.032,
33,
cs
)
);
},
{
closed = 1;
nodes = (
(
513.548,
482,
l
),
(
480.645,
529,
l
),
(
192.903,
33,
l
),
(
226.452,
-14,
l
)
);
},
{
closed = 1;
nodes = (
(
396.774,
423,
o
),
(
432.258,
456,
o
),
(
471.613,
493,
c
),
(
480.645,
529,
l
),
(
448.387,
505,
o
),
(
403.226,
491,
o
),
(
356.129,
491,
cs
),
(
316.774,
491,
o
),
(
266.452,
502,
o
),
(
235.484,
518,
c
),
(
256.774,
486,
l
),
(
291.613,
454,
o
),
(
321.935,
423,
o
),
(
354.839,
423,
cs
)
);
}
);
};
guides = (
{
angle = 74.4;
pos = (
488.387,
174
);
},
{
angle = 74.4;
pos = (
250.323,
367
);
}
);
layerId = "4637ED20-F3CC-4D04-82BF-886AF47DA6B7";
shapes = (
{
closed = 1;
nodes = (
(
243.226,
218,
o
),
(
293.548,
290,
o
),
(
293.548,
389,
cs
),
(
293.548,
475,
o
),
(
255.484,
529,
o
),
(
194.194,
529,
cs
),
(
124.516,
529,
o
),
(
74.194,
457,
o
),
(
74.194,
358,
cs
),
(
74.194,
272,
o
),
(
112.258,
218,
o
),
(
173.548,
218,
cs
)
);
},
{
closed = 1;
nodes = (
(
139.355,
276,
o
),
(
119.355,
306,
o
),
(
119.355,
361,
cs
),
(
119.355,
428,
o
),
(
147.742,
471,
o
),
(
190.968,
471,
cs
),
(
228.387,
471,
o
),
(
248.387,
441,
o
),
(
248.387,
386,
cs
),
(
248.387,
319,
o
),
(
220,
276,
o
),
(
176.774,
276,
cs
)
);
},
{
closed = 1;
nodes = (
(
575.484,
-15,
o
),
(
625.806,
57,
o
),
(
625.806,
156,
cs
),
(
625.806,
242,
o
),
(
587.742,
296,
o
),
(
526.452,
296,
cs
),
(
456.774,
296,
o
),
(
406.452,
224,
o
),
(
406.452,
125,
cs
),
(
406.452,
39,
o
),
(
444.516,
-15,
o
),
(
505.806,
-15,
cs
)
);
},
{
closed = 1;
nodes = (
(
471.613,
43,
o
),
(
451.613,
73,
o
),
(
451.613,
128,
cs
),
(
451.613,
195,
o
),
(
480,
238,
o
),
(
523.226,
238,
cs
),
(
560.645,
238,
o
),
(
580.645,
208,
o
),
(
580.645,
153,
cs
),
(
580.645,
86,
o
),
(
552.258,
43,
o
),
(
509.032,
43,
cs
)
);
},
{
closed = 1;
nodes = (
(
513.548,
481,
l
),
(
480.645,
528,
l
),
(
192.903,
33,
l
),
(
226.452,
-14,
l
)
);
},
{
closed = 1;
nodes = (
(
385.806,
422,
o
),
(
412.903,
442,
o
),
(
440.645,
473,
c
),
(
450.323,
455,
l
),
(
480.645,
528,
l
),
(
448.387,
504,
o
),
(
403.226,
490,
o
),
(
362.581,
490,
cs
),
(
316.774,
490,
o
),
(
266.452,
501,
o
),
(
234.839,
517,
c
),
(
276.129,
461,
l
),
(
285.161,
473,
l
),
(
312.258,
440,
o
),
(
333.548,
422,
o
),
(
354.839,
422,
cs
)
);
}
);
width = 700;
},
{
background = {
guides = (
{
angle = 74.4;
pos = (
287,
365
);
}
);
shapes = (
{
closed = 1;
nodes = (
(
252.326,
224,
o
),
(
306.798,
295,
o
),
(
306.798,
395,
cs
),
(
306.798,
481,
o
),
(
264.848,
533,
o
),
(
197.853,
533,
cs
),
(
120.215,
533,
o
),
(
65.742,
462,
o
),
(
65.742,
362,
cs
),
(
65.742,
276,
o
),
(
107.692,
224,
o
),
(
174.687,
224,
cs
)
);
},
{
closed = 1;
nodes = (
(
155.903,
272,
o
),
(
142.129,
305,
o
),
(
142.129,
364,
cs
),
(
142.129,
436,
o
),
(
162.165,
485,
o
),
(
191.592,
485,
cs
),
(
216.637,
485,
o
),
(
230.411,
452,
o
),
(
230.411,
393,
cs
),
(
230.411,
321,
o
),
(
210.376,
272,
o
),
(
180.948,
272,
cs
)
);
},
{
closed = 1;
nodes = (
(
579.785,
-14,
o
),
(
634.258,
57,
o
),
(
634.258,
157,
cs
),
(
634.258,
243,
o
),
(
592.308,
295,
o
),
(
525.313,
295,
cs
),
(
447.674,
295,
o
),
(
393.202,
224,
o
),
(
393.202,
124,
cs
),
(
393.202,
38,
o
),
(
435.152,
-14,
o
),
(
502.147,
-14,
cs
)
);
},
{
closed = 1;
nodes = (
(
483.363,
34,
o
),
(
469.589,
67,
o
),
(
469.589,
126,
cs
),
(
469.589,
198,
o
),
(
489.624,
247,
o
),
(
519.052,
247,
cs
),
(
544.097,
247,
o
),
(
557.871,
214,
o
),
(
557.871,
155,
cs
),
(
557.871,
83,
o
),
(
537.835,
34,
o
),
(
508.408,
34,
cs
)
);
},
{
closed = 1;
nodes = (
(
525.313,
483,
l
),
(
495.259,
533,
l
),
(
175.313,
36,
l
),
(
205.993,
-14,
l
)
);
},
{
closed = 1;
nodes = (
(
395.707,
427,
o
),
(
422.004,
447,
o
),
(
448.927,
478,
c
),
(
458.318,
460,
l
),
(
495.259,
533,
l
),
(
462.075,
509,
o
),
(
415.742,
495,
o
),
(
374.419,
495,
cs
),
(
327.46,
495,
o
),
(
276.118,
506,
o
),
(
243.56,
522,
c
),
(
289.267,
466,
l
),
(
298.032,
478,
l
),
(
324.329,
445,
o
),
(
344.991,
427,
o
),
(
365.653,
427,
cs
)
);
}
);
};
guides = (
{
angle = 74.4;
pos = (
185.331,
373
);
}
);
layerId = "5936EB7C-5C81-433B-ABAB-ADB37EE98828";
shapes = (
{
closed = 1;
nodes = (
(
252.326,
224,
o
),
(
306.798,
295,
o
),
(
306.798,
395,
cs
),
(
306.798,
481,
o
),
(
264.848,
533,
o
),
(
197.853,
533,
cs
),
(
120.215,
533,
o
),
(
65.742,
462,
o
),
(
65.742,
362,
cs
),
(
65.742,
276,
o
),
(
107.692,
224,
o
),
(
174.687,
224,
cs
)
);
},
{
closed = 1;
nodes = (
(
155.903,
282,
o
),
(
142.129,
311,
o
),
(
142.129,
364,
cs
),
(
142.129,
430,
o
),
(
162.165,
475,
o
),
(
191.592,
475,
cs
),
(
216.637,
475,
o
),
(
230.411,
446,
o
),
(
230.411,
393,
cs
),
(
230.411,
327,
o
),
(
210.376,
282,
o
),
(
180.948,
282,
cs
)
);
},
{
closed = 1;
nodes = (
(
579.785,
-14,
o
),
(
634.258,
57,
o
),
(
634.258,
157,
cs
),
(
634.258,
243,
o
),
(
592.308,
295,
o
),
(
525.313,
295,
cs
),
(
447.674,
295,
o
),
(
393.202,
224,
o
),
(
393.202,
124,
cs
),
(
393.202,
38,
o
),
(
435.152,
-14,
o
),
(
502.147,
-14,
cs
)
);
},
{
closed = 1;
nodes = (
(
483.363,
44,
o
),
(
469.589,
73,
o
),
(
469.589,
126,
cs
),
(
469.589,
192,
o
),
(
489.624,
237,
o
),
(
519.052,
237,
cs
),
(
544.097,
237,
o
),
(
557.871,
208,
o
),
(
557.871,
155,
cs
),
(
557.871,
89,
o
),
(
537.835,
44,
o
),
(
508.408,
44,
cs
)
);
},
{
closed = 1;
nodes = (
(
525.313,
483,
l
),
(
495.259,
533,
l
),
(
175.313,
36,
l
),
(
205.993,
-14,
l
)
);
},
{
closed = 1;
nodes = (
(
395.707,
427,
o
),
(
422.004,
447,
o
),
(
448.927,
478,
c
),
(
458.318,
460,
l
),
(
495.259,
533,
l
),
(
462.075,
509,
o
),
(
415.742,
495,
o
),
(
374.419,
495,
cs
),
(
327.46,
495,
o
),
(
276.118,
506,
o
),
(
243.56,
522,
c
),
(
289.267,
466,
l
),
(
298.032,
478,
l
),
(
324.329,
445,
o
),
(
344.991,
427,
o
),
(
365.653,
427,
cs
)
);
}
);
width = 700;
}
);
metricRight = "=|";
unicode = 37;
userData = {
KernOnSpecialSpacing = {
L = NoKerning;
R = NoKerning;
};
};
}
{
color = 4;
glyphname = ampersand;
kernRight = KO_ampersand;
layers = (
{
background = {
shapes = (
{
closed = 1;
nodes = (
(
347.789,
-14,
o
),
(
436.236,
104,
o
),
(
477.933,
337,
c
),
(
467.825,
339,
l
),
(
431.182,
144,
o
),
(
347.789,
35,
o
),
(
234.702,
35,
cs
),
(
131.092,
35,
o
),
(
64.125,
128,
o
),
(
64.125,
271,
cs
),
(
64.125,
394,
o
),
(
114.666,
511,
o
),
(
168.366,
511,
cs
),
(
191.742,
511,
o
),
(
203.114,
488,
o
),
(
203.114,
442,
cs
),
(
203.114,
367,
o
),
(
172.157,
297,
o
),
(
125.406,
265,
c
),
(
129.829,
249,
l
),
(
282.085,
356,
o
),
(
392.644,
519,
o
),
(
392.644,
637,
cs
),
(
392.644,
682,
o
),
(
377.482,
712,
o
),
(
354.738,
712,
cs
),
(
337.681,
712,
o
),
(
325.677,
695,
o
),
(
325.677,
669,
cs
),
(
325.677,
631,
o
),
(
352.843,
605,
o
),
(
352.843,
564,
cs
),
(
352.843,
507,
o
),
(
302.301,
426,
o
),
(
208.8,
333,
c
),
(
208.168,
329,
l
),
(
233.439,
375,
o
),
(
244.179,
409,
o
),
(
244.179,
443,
cs
),
(
244.179,
497,
o
),
(
218.276,
528,
o
),
(
173.421,
528,
cs
),
(
83.078,
528,
o
),
(
8.529,
404,
o
),
(
8.529,
253,
cs
),
(
8.529,
91,
o
),
(
90.027,
-14,
o
),
(
215.117,
-14,
cs
)
);
},
{
closed = 1;
nodes = (
(
349.052,
163,
o
),
(
362.319,
183,
o
),
(
362.319,
209,
cs
),
(
362.319,
250,
o
),
(
328.836,
275,
o
),
(
328.836,
305,
cs
),
(
328.836,
332,
o
),
(
357.265,
348,
o
),
(
404.648,
348,
cs
),
(
483.619,
348,
o
),
(
523.421,
304,
o
),
(
580.912,
304,
cs
),
(
636.507,
304,
o
),
(
672.518,
345,
o
),
(
672.518,
409,
cs
),
(
672.518,
440,
o
),
(
663.673,
456,
o
),
(
647.247,
456,
cs
),
(
599.233,
456,
o
),
(
625.767,
322,
o
),
(
576.489,
322,
cs
),
(
537.951,
322,
o
),
(
481.092,
406,
o
),
(
414.756,
406,
cs
),
(
351.579,
406,
o
),
(
297.879,
327,
o
),
(
297.879,
234,
cs
),
(
297.879,
190,
o
),
(
310.514,
163,
o
),
(
330.731,
163,
cs
)
);
}
);
};
layerId = "8A8107C8-C076-4746-AE01-7D15750BBEFC";
shapes = (
{
closed = 1;
nodes = (
(
334.522,
-14,
o
),
(
421.706,
104,
o
),
(
477.933,
341,
c
),
(
477.301,
341,
l
),
(
421.706,
127,
o
),
(
343.366,
20,
o
),
(
242.915,
20,
cs
),
(
146.255,
20,
o
),
(
83.078,
120,
o
),
(
83.078,
273,
cs
),
(
83.078,
401,
o
),
(
126.67,
527,
o
),
(
171.525,
527,
cs
),
(
192.374,
527,
o
),
(
203.114,
500,
o
),
(
203.114,
446,
cs
),
(
203.114,
360,
o
),
(
175.948,
288,
o
),
(
129.829,
250,
c
),
(
129.829,
249,
l
),
(
282.085,
356,
o
),
(
392.644,
519,
o
),
(
392.644,
637,
cs
),
(
392.644,
682,
o
),
(
377.482,
712,
o
),
(
354.738,
712,
cs
),
(
337.681,
712,
o
),
(
325.677,
695,
o
),
(
325.677,
670,
cs
),
(
325.677,
625,
o
),
(
364.847,
599,
o
),
(
364.847,
555,
cs
),
(
364.847,
482,
o
),
(
259.973,
344,
o
),
(
135.514,
254,
c
),
(
136.146,
254,
l
),
(
211.958,
333,
o
),
(
244.179,
390,
o
),
(
244.179,
445,
cs
),
(
244.179,
496,
o
),
(
217.644,
528,
o
),
(
175.316,
528,
cs
),
(
93.186,
528,
o
),
(
27.482,
405,
o
),
(
27.482,
253,
cs
),
(
27.482,
92,
o
),
(
102.031,
-14,
o
),
(
215.117,
-14,
cs
)
);
},
{
closed = 1;
nodes = (
(
349.052,
163,
o
),
(
362.319,
183,
o
),
(
362.319,
209,
cs
),
(
362.319,
255,
o
),
(
317.464,
294,
o
),
(
317.464,
319,
cs
),
(
317.464,
338,
o
),
(
343.998,
348,
o
),
(
393.908,
348,
cs
),
(
495.623,
348,
o
),
(
519.63,
304,
o
),
(
579.648,
304,
cs
),
(
635.875,
304,
o
),
(
672.518,
344,
o
),
(
672.518,
404,
cs
),
(
672.518,
436,
o
),
(
662.41,
456,
o
),
(
645.352,
456,
cs
),
(
599.233,
456,
o
),
(
623.872,
305,
o
),
(
574.594,
305,
cs
),
(
534.792,
305,
o
),
(
481.724,
406,
o
),
(
412.861,
406,
cs
),
(
351.579,
406,
o
),
(
297.879,
326,
o
),
(
297.879,
234,
cs
),
(
297.879,
190,
o
),
(
310.514,
163,
o
),
(
330.731,
163,
cs
)
);
}
);
width = 700;
},
{
background = {
shapes = (
{
closed = 1;
nodes = (
(
347.809,
-14,
o
),
(
435.465,
104,
o
),
(
476.789,
337,
c
),
(
466.771,
339,
l
),
(
430.456,
144,
o
),
(
347.809,
35,
o
),
(
235.733,
35,
cs
),
(
133.05,
35,
o
),
(
66.682,
128,
o
),
(
66.682,
271,
cs
),
(
66.682,
394,
o
),
(
116.771,
511,
o
),
(
169.991,
511,
cs
),
(
193.157,
511,
o
),
(
204.428,
488,
o
),
(
204.428,
442,
cs
),
(
204.428,
367,
o
),
(
173.748,
297,
o
),
(
127.415,
265,
c
),
(
131.798,
249,
l
),
(
282.692,
356,
o
),
(
392.263,
519,
o
),
(
392.263,
637,
cs
),
(
392.263,
682,
o
),
(
377.236,
712,
o
),
(
354.696,
712,
cs
),
(
337.791,
712,
o
),
(
325.894,
695,
o
),
(
325.894,
669,
cs
),
(
325.894,
631,
o
),
(
352.818,
605,
o
),
(
352.818,
564,
cs
),
(
352.818,
507,
o
),
(
302.728,
426,
o
),
(
210.063,
333,
c
),
(
209.436,
329,
l
),
(
234.481,
375,
o
),
(
245.125,
409,
o
),
(
245.125,
443,
cs
),
(
245.125,
497,
o
),
(
219.454,
528,
o
),
(
175,
528,
cs
),
(
85.465,
528,
o
),
(
11.583,
404,
o
),
(
11.583,
253,
cs
),
(
11.583,
91,
o
),
(
92.352,
-14,
o
),
(
216.324,
-14,
cs
)
);
},
{
closed = 1;
nodes = (
(
349.061,
163,
o
),
(
362.209,
183,
o
),
(
362.209,
209,
cs
),
(
362.209,
250,
o
),
(
329.025,
275,
o
),
(
329.025,
305,
cs
),
(
329.025,
332,
o
),
(
357.2,
348,
o
),
(
404.159,
348,
cs
),
(
482.424,
348,
o
),
(
521.869,
304,
o
),
(
578.846,
304,
cs
),
(
633.945,
304,
o
),
(
669.633,
345,
o
),
(
669.633,
409,
cs
),
(
669.633,
440,
o
),
(
660.868,
456,
o
),
(
644.589,
456,
cs
),
(
597.004,
456,
o
),
(
623.301,
322,
o
),
(
574.463,
322,
cs
),
(
536.27,
322,
o
),
(
479.919,
406,
o
),
(
414.177,
406,
cs
),
(
351.565,
406,
o
),
(
298.345,
327,
o
),
(
298.345,
234,
cs
),
(
298.345,
190,
o
),
(
310.868,
163,
o
),
(
330.903,
163,
cs
)
);
}
);
};
guides = (
{
angle = 74.4;
pos = (
-18.47,
150
);
},
{
angle = 74.4;
pos = (
42.263,
150
);
},
{
angle = 74.4;
pos = (
148.077,
385
);
},
{
angle = 74.4;
pos = (
139.937,
150
);
},
{
angle = 74.4;
pos = (
177.504,
-150
);
},
{
angle = 74.4;
pos = (
153.086,
-150
);
},
{
angle = 74.4;
pos = (
349.061,
-150
);
},
{
angle = 74.4;
pos = (
616.413,
91
);
},
{
angle = 74.4;
pos = (
209.436,
-150
);
},
{
angle = 74.4;
pos = (
285.823,
-150
);
},
{
angle = 74.4;
pos = (
137.433,
150
);
}
);
layerId = "4637ED20-F3CC-4D04-82BF-886AF47DA6B7";
shapes = (
{
closed = 1;
nodes = (
(
367.844,
-14,
o
),
(
458.005,
104,
o
),
(
492.442,
327,
c
),
(
451.118,
339,
l
),
(
424.195,
157,
o
),
(
355.948,
65,
o
),
(
246.377,
65,
cs
),
(
146.199,
65,
o
),
(
85.465,
143,
o
),
(
85.465,
272,
cs
),
(
85.465,
374,
o
),
(
123.032,
461,
o
),
(
166.86,
461,
cs
),
(
185.644,
461,
o
),
(
195.662,
446,
o
),
(
195.662,
417,
cs
),
(
195.662,
366,
o
),
(
163.73,
312,
o
),
(
121.154,
290,
c
),
(
138.059,
224,
l
),
(
297.719,
340,
o
),
(
407.916,
503,
o
),
(
407.916,
623,
cs
),
(
407.916,
674,
o
),
(
386.002,
712,
o
),
(
357.2,
712,
cs
),
(
334.034,
712,
o
),
(
316.503,
686,
o
),
(
316.503,
652,
cs
),
(
316.503,
615,
o
),
(
337.165,
593,
o
),
(
337.165,
555,
cs
),
(
337.165,
500,
o
),
(
293.336,
432,
o
),
(
194.41,
333,
c
),
(
209.436,
329,
l
),
(
234.481,
375,
o
),
(
245.125,
409,
o
),
(
245.125,
443,
cs
),
(
245.125,
496,
o
),
(
219.454,
528,
o
),
(
176.878,
528,
cs
),
(
94.857,
528,
o
),
(
30.367,
408,
o
),
(
30.367,
254,
cs
),
(
30.367,
87,
o
),
(
106.127,
-14,
o
),
(
231.977,
-14,
cs
)
);
},
{
closed = 1;
nodes = (
(
362.209,
153,
o
),
(
375.984,
173,
o
),
(
375.984,
202,
cs
),
(
375.984,
231,
o
),
(
361.583,
249,
o
),
(
361.583,
278,
cs
),
(
361.583,
310,
o
),
(
380.367,
328,
o
),
(
414.177,
328,
cs
),
(
451.118,
328,
o
),
(
520.617,
307,
o
),
(
565.698,
307,
cs
),
(
628.309,
307,
o
),
(
669.633,
348,
o
),
(
669.633,
410,
cs
),
(
669.633,
445,
o
),
(
657.111,
466,
o
),
(
636.449,
466,
cs
),
(
593.873,
466,
o
),
(
610.152,
375,
o
),
(
560.689,
375,
cs
),
(
531.887,
375,
o
),
(
485.555,
406,
o
),
(
431.082,
406,
cs
),
(
351.565,
406,
o
),
(
299.597,
341,
o
),
(
299.597,
241,
cs
),
(
299.597,
186,
o
),
(
315.25,
153,
o
),
(
341.547,
153,
cs
)
);
}
);
width = 700;
},
{
background = {
shapes = (
{
closed = 1;
nodes = (
(
360.366,
-14,
o
),
(
441.463,
96,
o
),
(
485.366,
337,
c
),
(
475.61,
339,
l
),
(
443.293,
178,
o
),
(
374.39,
85,
o
),
(
277.439,
85,
cs
),
(
182.927,
85,
o
),
(
134.756,
162,
o
),
(
134.756,
302,
cs
),
(
134.756,
411,
o
),
(
163.415,
516,
o
),
(
193.293,
516,
cs
),
(
206.707,
516,
o
),
(
214.024,
496,
o
),
(
214.024,
461,
cs
),
(
214.024,
396,
o
),
(
188.415,
316,
o
),
(
151.22,
265,
c
),
(
155.488,
249,
l
),
(
303.049,
358,
o
),
(
409.146,
517,
o
),
(
409.146,
630,
cs
),
(
409.146,
678,
o
),
(
390.244,
712,
o
),
(
364.024,
712,
cs
),
(
342.073,
712,
o
),
(
326.22,
689,
o
),
(
326.22,
656,
cs
),
(
326.22,
611,
o
),
(
356.707,
579,
o
),
(
356.707,
535,
cs
),
(
356.707,
484,
o
),
(
314.634,
416,
o
),
(
231.707,
333,
c
),
(
243.293,
329,
l
),
(
276.22,
375,
o
),
(
290.244,
409,
o
),
(
290.244,
444,
cs
),
(
290.244,
499,
o
),
(
255.488,
533,
o
),
(
200,
533,
cs
),
(
96.951,
533,
o
),
(
20.122,
412,
o
),
(
20.122,
248,
cs
),
(
20.122,
86,
o
),
(
98.78,
-14,
o
),
(
226.829,
-14,
cs
)
);
},
{
closed = 1;
nodes = (
(
369.512,
152,
o
),
(
385.976,
176,
o
),
(
385.976,
208,
cs
),
(
385.976,
266,
o
),
(
332.927,
300,
o
),
(
332.927,
322,
cs
),
(
332.927,
337,
o
),
(
359.756,
348,
o
),
(
397.561,
348,
cs
),
(
469.512,
348,
o
),
(
510.976,
308,
o
),
(
565.854,
308,
cs
),
(
631.098,
308,
o
),
(
679.878,
363,
o
),
(
679.878,
436,
cs
),
(
679.878,
475,
o
),
(
665.854,
498,
o
),
(
642.073,
498,
cs
),
(
578.049,
498,
o
),
(
604.878,
326,
o
),
(
574.39,
326,
cs
),
(
549.39,
326,
o
),
(
510.976,
438,
o
),
(
437.195,
438,
cs
),
(
367.073,
438,
o
),
(
296.341,
340,
o
),
(
296.341,
243,
cs
),
(
296.341,
191,
o
),
(
317.683,
152,
o
),
(
346.951,
152,
cs
)
);
}
);
};
layerId = "19651320-9895-44C9-9F41-285CE0F17596";
shapes = (
{
closed = 1;
nodes = (
(
360.366,
-14,
o
),
(
441.463,
96,
o
),
(
485.366,
337,
c
),
(
484.756,
337,
l
),
(
450,
164,
o
),
(
380.488,
75,
o
),
(
280.488,
75,
cs
),
(
185.976,
75,
o
),
(
134.756,
155,
o
),
(
134.756,
304,
cs
),
(
134.756,
416,
o
),
(
164.634,
531,
o
),
(
193.902,
531,
cs
),
(
206.707,
531,
o
),
(
214.024,
507,
o
),
(
214.024,
465,
cs
),
(
214.024,
391,
o
),
(
190.854,
306,
o
),
(
155.488,
250,
c
),
(
155.488,
249,
l
),
(
303.049,
358,
o
),
(
409.146,
517,
o
),
(
409.146,
630,
cs
),
(
409.146,
678,
o
),
(
390.244,
712,
o
),
(
364.024,
712,
cs
),
(
342.073,
712,
o
),
(
326.22,
689,
o
),
(
326.22,
656,
cs
),
(
326.22,
605,
o
),
(
363.415,
566,
o
),
(
363.415,
519,
cs
),
(
363.415,
471,
o
),
(
321.951,
405,
o
),
(
241.463,
324,
c
),
(
241.463,
323,
l
),
(
275.61,
372,
o
),
(
290.244,
408,
o
),
(
290.244,
444,
cs
),
(
290.244,
499,
o
),
(
255.488,
533,
o
),
(
200,
533,
cs
),
(
96.951,
533,
o
),
(
20.122,
412,
o
),
(
20.122,
248,
cs
),
(
20.122,
86,
o
),
(
98.78,
-14,
o
),
(
226.829,
-14,
cs
)
);
},
{
closed = 1;
nodes = (
(
369.512,
152,
o
),
(
385.976,
176,
o
),
(
385.976,
208,
cs
),
(
385.976,
277,
o
),
(
315.244,
308,
o
),
(
315.244,
329,
cs
),
(
315.244,
341,
o
),
(
349.39,
348,
o
),
(
397.561,
348,
cs
),
(
469.512,
348,
o
),
(
510.976,
308,
o
),
(
565.854,
308,
cs
),
(
631.098,
308,
o
),
(
679.878,
363,
o
),
(
679.878,
436,
cs
),
(
679.878,
475,
o
),
(
665.854,
498,
o
),
(
642.073,
498,
cs
),
(
576.22,
498,
o
),
(
603.659,
309,
o
),
(
572.561,
309,
cs
),
(
547.561,
309,
o
),
(
509.756,
438,
o
),
(
437.195,
438,
cs
),
(
367.073,
438,
o
),
(
296.341,
340,
o
),
(
296.341,
243,
cs
),
(
296.341,
191,
o
),
(
317.683,
152,
o
),
(
346.951,
152,
cs
)
);
}
);
width = 700;
},
{
background = {
shapes = (
{
closed = 1;
nodes = (
(
360.366,
-14,
o
),
(
441.463,
96,
o
),
(
485.366,
337,
c
),
(
475.61,
339,
l
),
(
443.293,
178,
o
),
(
374.39,
85,
o
),
(
277.439,
85,
cs
),
(
182.927,
85,
o
),
(
134.756,
162,
o
),
(
134.756,
302,
cs
),
(
134.756,
411,
o
),
(
163.415,
516,
o
),
(
193.293,
516,
cs
),
(
206.707,
516,
o
),
(
214.024,
496,
o
),
(
214.024,
461,
cs
),
(
214.024,
396,
o
),
(
188.415,
316,
o
),
(
151.22,
265,
c
),
(
155.488,
249,
l
),
(
303.049,
358,
o
),
(
409.146,
517,
o
),
(
409.146,
630,
cs
),
(
409.146,
678,
o
),
(
390.244,
712,
o
),
(
364.024,
712,
cs
),
(
342.073,
712,
o
),
(
326.22,
689,
o
),
(
326.22,
656,
cs
),
(
326.22,
611,
o
),
(
356.707,
579,
o
),
(
356.707,
535,
cs
),
(
356.707,
484,
o
),
(
314.634,
416,
o
),
(
231.707,
333,
c
),
(
243.293,
329,
l
),
(
276.22,
375,
o
),
(
290.244,
409,
o
),
(
290.244,
444,
cs
),
(
290.244,
499,
o
),
(
255.488,
533,
o
),
(
200,
533,
cs
),
(
96.951,
533,
o
),
(
20.122,
412,
o
),
(
20.122,
248,
cs
),
(
20.122,
86,
o
),
(
98.78,
-14,
o
),
(
226.829,
-14,
cs
)
);
},
{
closed = 1;
nodes = (
(
369.512,
152,
o
),
(
385.976,
176,
o
),
(
385.976,
208,
cs
),
(
385.976,
266,
o
),
(
332.927,
300,
o
),
(
332.927,
322,
cs
),
(
332.927,
337,
o
),
(
359.756,
348,
o
),
(
397.561,
348,
cs
),
(
469.512,
348,
o
),
(
510.976,
308,
o
),
(
565.854,
308,
cs
),
(
631.098,
308,
o
),
(
679.878,
363,
o
),
(
679.878,
436,
cs
),
(
679.878,
475,
o
),
(
665.854,
498,
o
),
(
642.073,
498,
cs
),
(
578.049,
498,
o
),
(
604.878,
326,
o
),
(
574.39,
326,
cs
),
(
549.39,
326,
o
),
(
510.976,
438,
o
),
(
437.195,
438,
cs
),
(
367.073,
438,
o
),
(
296.341,
340,
o
),
(
296.341,
243,
cs
),
(
296.341,
191,
o
),
(
317.683,
152,
o
),
(
346.951,
152,
cs
)
);
},
{
closed = 0;
nodes = (
(
326.22,
652,
ls
),
(
326.22,
615,
o
),
(
346.341,
593,
o
),
(
346.341,
555,
cs
),
(
346.341,
500,
o
),
(
303.659,
432,
o
),
(
207.317,
333,
c
)
);
}
);
};
layerId = "5936EB7C-5C81-433B-ABAB-ADB37EE98828";
shapes = (
{
closed = 1;
nodes = (
(
368.293,
-14,
o
),
(
454.268,
97,
o
),
(
500.61,
337,
c
),
(
462.805,
349,
l
),
(
429.268,
172,
o
),
(
366.463,
85,
o
),
(
273.78,
85,
cs
),
(
186.585,
85,
o
),
(
134.756,
163,
o
),
(
134.756,
293,
cs
),
(
134.756,
385,
o
),
(
162.195,
466,
o
),
(
193.293,
466,
cs
),
(
206.707,
466,
o
),
(
214.024,
451,
o
),
(
214.024,
423,
cs
),
(
214.024,
372,
o
),
(
187.805,
322,
o
),
(
150,
288,
c
),
(
171.951,
224,
l
),
(
306.098,
339,
o
),
(
409.146,
509,
o
),
(
409.146,
628,
cs
),
(
409.146,
678,
o
),
(
390.854,
712,
o
),
(
363.415,
712,
cs
),
(
341.463,
712,
o
),
(
326.22,
690,
o
),
(
326.22,
658,
cs
),
(
326.22,
622,
o
),
(
345.122,
597,
o
),
(
345.122,
561,
cs
),
(
345.122,
508,
o
),
(
303.659,
437,
o
),
(
221.341,
349,
c
),
(
243.293,
329,
l
),
(
276.22,
375,
o
),
(
290.244,
409,
o
),
(
290.244,
444,
cs
),
(
290.244,
499,
o
),
(
255.488,
533,
o
),
(
200,
533,
cs
),
(
96.951,
533,
o
),
(
20.122,
412,
o
),
(
20.122,
249,
cs
),
(
20.122,
85,
o
),
(
98.78,
-14,
o
),
(
229.268,
-14,
cs
)
);
},
{
closed = 1;
nodes = (
(
368.293,
152,
o
),
(
385.976,
180,
o
),
(
385.976,
218,
cs
),
(
385.976,
262,
o
),
(
363.415,
302,
o
),
(
363.415,
322,
cs
),
(
363.415,
338,
o
),
(
381.098,
348,
o
),
(
409.756,
348,
cs
),
(
470.122,
348,
o
),
(
510.366,
308,
o
),
(
565.854,
308,
cs
),
(
631.098,
308,
o
),
(
679.878,
363,
o
),
(
679.878,
436,
cs
),
(
679.878,
475,
o
),
(
665.854,
498,
o
),
(
642.073,
498,
cs
),
(
587.195,
498,
o
),
(
604.878,
376,
o
),
(
574.39,
376,
cs
),
(
552.439,
376,
o
),
(
504.878,
438,
o
),
(
442.683,
438,
cs
),
(
367.073,
438,
o
),
(
296.341,
344,
o
),
(
296.341,
243,
cs
),
(
296.341,
191,
o
),
(
316.463,
152,
o
),
(
344.512,
152,
cs
)
);
}
);
width = 700;
}
);
unicode = 38;
userData = {
KernOnSpecialSpacing = {};
};
}
{
color = 4;
glyphname = quotesingle;
kernLeft = KO_quotedbl;
kernRight = KO_quotedbl;
layers = (
{
background = {
shapes = (
{
closed = 1;
nodes = (
(
420,
468,
l
),
(
472,
573,
o
),
(
525,
629,
o
),
(
525,
680,
cs
),
(
525,
711,
o
),
(
505,
730,
o
),
(
472,
730,
cs
),
(
428,
730,
o
),
(
406,
697,
o
),
(
406,
631,
cs
),
(
406,
593,
o
),
(
409,
546,
o
),
(
406,
468,
c
)
);
}
);
};
layerId = "8A8107C8-C076-4746-AE01-7D15750BBEFC";
shapes = (
{
closed = 1;
nodes = (
(
404,
448,
l
),
(
442,
536,
o
),
(
522,
610,
o
),
(
522,
679,
cs
),
(
522,
712,
o
),
(
504,
730,
o
),
(
471,
730,
cs
),
(
426,
730,
o
),
(
404,
695,
o
),
(
404,
624,
cs
),
(
404,
584,
o
),
(
411,
538,
o
),
(
403,
448,
c
)
);
}
);
width = 700;
},
{
background = {
shapes = (
{
closed = 1;
nodes = (
(
435,
468,
l
),
(
457,
546,
o
),
(
500,
602,
o
),
(
516,
659,
cs
),
(
519,
671,
o
),
(
521,
681,
o
),
(
521,
690,
cs
),
(
521,
716,
o
),
(
508,
730,
o
),
(
482,
730,
cs
),
(
447,
730,
o
),
(
420,
704,
o
),
(
407,
658,
cs
),
(
392,
604,
o
),
(
399,
547,
o
),
(
381,
468,
c
)
);
}
);
};
layerId = "4637ED20-F3CC-4D04-82BF-886AF47DA6B7";
shapes = (
{
closed = 1;
nodes = (
(
435,
468,
l
),
(
462,
562,
o
),
(
521,
630,
o
),
(
521,
686,
cs
),
(
521,
714,
o
),
(
506,
730,
o
),
(
478,
730,
cs
),
(
445,
730,
o
),
(
422,
708,
o
),
(
409,
665,
cs
),
(
394,
614,
o
),
(
401,
557,
o
),
(
381,
468,
c
)
);
}
);
width = 700;
},
{
background = {
shapes = (
{
closed = 1;
nodes = (
(
411,
448,
l
),
(
458,
520,
o
),
(
555,
581,
o
),
(
555,
656,
cs
),
(
555,
699,
o
),
(
518,
730,
o
),
(
468,
730,
cs
),
(
404,
730,
o
),
(
360,
689,
o
),
(
360,
629,
cs
),
(
360,
571,
o
),
(
388,
523,
o
),
(
397,
448,
c
)
);
}
);
};
layerId = "19651320-9895-44C9-9F41-285CE0F17596";
shapes = (
{
closed = 1;
nodes = (
(
405,
448,
l
),
(
454,
520,
o
),
(
555,
581,
o
),
(
555,
656,
cs
),
(
555,
699,
o
),
(
518,
730,
o
),
(
468,
730,
cs
),
(
404,
730,
o
),
(
360,
689,
o
),
(
360,
629,
cs
),
(
360,
571,
o
),
(
393,
523,
o
),
(
404,
448,
c
)
);
}
);
width = 700;
},
{
background = {
shapes = (
{
closed = 1;
nodes = (
(
437,
468,
l
),
(
459,
546,
o
),
(
502,
602,
o
),
(
518,
659,
cs
),
(
521,
671,
o
),
(
523,
681,
o
),
(
523,
690,
cs
),
(
523,
716,
o
),
(
510,
730,
o
),
(
484,
730,
cs
),
(
449,
730,
o
),
(
422,
704,
o
),
(
409,
658,
cs
),
(
394,
604,
o
),
(
401,
547,
o
),
(
383,
468,
c
)
);
}
);
};
layerId = "5936EB7C-5C81-433B-ABAB-ADB37EE98828";
shapes = (
{
closed = 1;
nodes = (
(
437,
468,
l
),
(
476,
533,
o
),
(
555,
588,
o
),
(
555,
656,
cs
),
(
555,
699,
o
),
(
518,
730,
o
),
(
468,
730,
cs
),
(
404,
730,
o
),
(
360,
689,
o
),
(
360,
629,
cs
),
(
360,
577,
o
),
(
378,
535,
o
),
(
383,
468,
c
)
);
}
);
width = 700;
}
);
unicode = 39;
userData = {
KernOnSpecialSpacing = {
L = quotes;
R = quotes;
};
};
}
{
color = 6;
glyphname = parenleft;
kernLeft = KO_parenleft;
kernRight = KO_parenleft;
layers = (
{
guides = (
{
pos = (
-158.5,
-192
);
},
{
angle = 74.4;
pos = (
684.5,
782
);
}
);
layerId = "8A8107C8-C076-4746-AE01-7D15750BBEFC";
shapes = (
{
closed = 1;
nodes = (
(
463.5,
-191,
l
),
(
388.5,
-85,
o
),
(
345.5,
52,
o
),
(
345.5,
211,
cs
),
(
345.5,
463,
o
),
(
462.5,
656,
o
),
(
684.5,
781,
c
),
(
684.5,
782,
l
),
(
420.5,
681,
o
),
(
263.5,
473,
o
),
(
263.5,
224,
cs
),
(
263.5,
68,
o
),
(
324.5,
-59,
o
),
(
463.5,
-192,
c
)
);
}
);
width = 700;
},
{
guides = (
{
pos = (
-163,
-192
);
}
);
layerId = "4637ED20-F3CC-4D04-82BF-886AF47DA6B7";
shapes = (
{
closed = 1;
nodes = (
(
469,
-147,
l
),
(
378,
-46,
o
),
(
325,
80,
o
),
(
325,
219,
cs
),
(
325,
436,
o
),
(
445,
610,
o
),
(
666,
726,
c
),
(
638,
782,
l
),
(
389,
671,
o
),
(
242,
463,
o
),
(
242,
220,
cs
),
(
242,
60,
o
),
(
306,
-90,
o
),
(
418,
-192,
c
)
);
}
);
width = 700;
},
{
guides = (
{
pos = (
-164,
-192
);
}
);
layerId = "19651320-9895-44C9-9F41-285CE0F17596";
shapes = (
{
closed = 1;
nodes = (
(
491,
-191,
l
),
(
417,
-78,
o
),
(
382,
47,
o
),
(
382,
201,
cs
),
(
382,
462,
o
),
(
480,
652,
o
),
(
682,
781,
c
),
(
682,
782,
l
),
(
367,
680,
o
),
(
196,
492,
o
),
(
196,
249,
cs
),
(
196,
69,
o
),
(
294,
-77,
o
),
(
491,
-192,
c
)
);
}
);
width = 700;
},
{
guides = (
{
pos = (
-126.5,
-192
);
}
);
layerId = "5936EB7C-5C81-433B-ABAB-ADB37EE98828";
shapes = (
{
closed = 1;
nodes = (
(
491.5,
-146,
l
),
(
403.5,
-50,
o
),
(
360.5,
68,
o
),
(
360.5,
212,
cs
),
(
360.5,
438,
o
),
(
468.5,
606,
o
),
(
690.5,
724,
c
),
(
666.5,
782,
l
),
(
359.5,
676,
o
),
(
173.5,
466,
o
),
(
173.5,
226,
cs
),
(
173.5,
54,
o
),
(
267.5,
-90,
o
),
(
446.5,
-192,
c
)
);
}
);
width = 700;
}
);
unicode = 40;
userData = {
KernOnName = parenleft;
KernOnSpecialSpacing = {
R = parenthesis;
};
};
}
{
color = 5;
glyphname = parenright;
kernLeft = KO_parenright;
kernRight = KO_parenright;
layers = (
{
background = {
guides = (
{
pos = (
-302,
-192
);
},
{
pos = (
88,
782
);
},
{
angle = 74.4;
pos = (
144,
772
);
}
);
shapes = (
{
closed = 1;
nodes = (
(
275.5,
-91,
o
),
(
432.5,
117,
o
),
(
432.5,
366,
cs
),
(
432.5,
522,
o
),
(
371.5,
649,
o
),
(
232.5,
782,
c
),
(
232.5,
781,
l
),
(
307.5,
675,
o
),
(
350.5,
538,
o
),
(
350.5,
379,
cs
),
(
350.5,
127,
o
),
(
233.5,
-66,
o
),
(
11.5,
-191,
c
),
(
11.5,
-192,
l
)
);
}
);
};
guides = (
{
pos = (
-165.5,
-192
);
},
{
pos = (
224.5,
782
);
},
{
angle = 74.4;
pos = (
280.5,
772
);
}
);
layerId = "8A8107C8-C076-4746-AE01-7D15750BBEFC";
shapes = (
{
closed = 1;
nodes = ();
},
{
closed = 1;
nodes = (
(
258.5,
781,
l
),
(
333.5,
675,
o
),
(
376.5,
538,
o
),
(
376.5,
379,
cs
),
(
376.5,
127,
o
),
(
259.5,
-66,
o
),
(
37.5,
-191,
c
),
(
37.5,
-192,
l
),
(
301.5,
-91,
o
),
(
458.5,
117,
o
),
(
458.5,
366,
cs
),
(
458.5,
522,
o
),
(
397.5,
649,
o
),
(
258.5,
782,
c
)
);
}
);
width = 700;
},
{
background = {
guides = (
{
pos = (
-210,
-192
);
},
{
pos = (
180,
782
);
},
{
angle = 74.4;
pos = (
216,
787
);
}
);
shapes = (
{
closed = 1;
nodes = (
(
358.5,
-81,
o
),
(
505.5,
127,
o
),
(
505.5,
370,
cs
),
(
505.5,
530,
o
),
(
441.5,
680,
o
),
(
329.5,
782,
c
),
(
278.5,
737,
l
),
(
369.5,
636,
o
),
(
422.5,
510,
o
),
(
422.5,
371,
cs
),
(
422.5,
154,
o
),
(
302.5,
-20,
o
),
(
81.5,
-136,
c
),
(
109.5,
-192,
l
)
);
}
);
};
guides = (
{
pos = (
-86.5,
-192
);
},
{
pos = (
303.5,
782
);
},
{
angle = 74.4;
pos = (
339.5,
787
);
}
);
layerId = "4637ED20-F3CC-4D04-82BF-886AF47DA6B7";
shapes = (
{
closed = 1;
nodes = ();
},
{
closed = 1;
nodes = (
(
252.5,
737,
l
),
(
343.5,
636,
o
),
(
396.5,
510,
o
),
(
396.5,
371,
cs
),
(
396.5,
154,
o
),
(
276.5,
-20,
o
),
(
55.5,
-136,
c
),
(
83.5,
-192,
l
),
(
332.5,
-81,
o
),
(
479.5,
127,
o
),
(
479.5,
370,
cs
),
(
479.5,
530,
o
),
(
415.5,
680,
o
),
(
303.5,
782,
c
)
);
}
);
width = 700;
},
{
background = {
guides = (
{
pos = (
-167,
-192
);
},
{
pos = (
223,
782
);
},
{
angle = 74.4;
pos = (
274,
771
);
},
{
angle = 74.4;
pos = (
138,
571
);
}
);
shapes = (
{
closed = 1;
nodes = (
(
422,
-90,
o
),
(
593,
98,
o
),
(
593,
341,
cs
),
(
593,
521,
o
),
(
495,
667,
o
),
(
298,
782,
c
),
(
298,
781,
l
),
(
372,
668,
o
),
(
407,
543,
o
),
(
407,
389,
cs
),
(
407,
128,
o
),
(
309,
-62,
o
),
(
107,
-191,
c
),
(
107,
-192,
l
)
);
}
);
};
guides = (
{
pos = (
-66,
-192
);
},
{
pos = (
324,
782
);
},
{
angle = 74.4;
pos = (
375,
771
);
},
{
angle = 74.4;
pos = (
239,
571
);
}
);
layerId = "19651320-9895-44C9-9F41-285CE0F17596";
shapes = (
{
closed = 1;
nodes = ();
},
{
closed = 1;
nodes = (
(
229,
781,
l
),
(
303,
668,
o
),
(
338,
543,
o
),
(
338,
389,
cs
),
(
338,
128,
o
),
(
240,
-62,
o
),
(
38,
-191,
c
),
(
38,
-192,
l
),
(
353,
-90,
o
),
(
524,
98,
o
),
(
524,
341,
cs
),
(
524,
521,
o
),
(
426,
667,
o
),
(
229,
782,
c
)
);
}
);
width = 700;
},
{
background = {
guides = (
{
pos = (
-98,
-192
);
},
{
pos = (
292,
782
);
},
{
angle = 74.4;
pos = (
328,
787
);
}
);
shapes = (
{
closed = 1;
nodes = (
(
460,
-86,
o
),
(
646,
124,
o
),
(
646,
364,
cs
),
(
646,
536,
o
),
(
552,
680,
o
),
(
373,
782,
c
),
(
328,
736,
l
),
(
416,
640,
o
),
(
459,
522,
o
),
(
459,
378,
cs
),
(
459,
152,
o
),
(
351,
-16,
o
),
(
129,
-134,
c
),
(
153,
-192,
l
)
);
}
);
};
guides = (
{
pos = (
-13,
-192
);
},
{
pos = (
377,
782
);
},
{
angle = 74.4;
pos = (
413,
787
);
}
);
layerId = "5936EB7C-5C81-433B-ABAB-ADB37EE98828";
shapes = (
{
closed = 1;
nodes = ();
},
{
closed = 1;
nodes = (
(
228,
736,
l
),
(
316,
640,
o
),
(
359,
522,
o
),
(
359,
378,
cs
),
(
359,
152,
o
),
(
251,
-16,
o
),
(
29,
-134,
c
),
(
53,
-192,
l
),
(
360,
-86,
o
),
(
546,
124,
o
),
(
546,
364,
cs
),
(
546,
536,
o
),
(
452,
680,
o
),
(
273,
782,
c
)
);
}
);
width = 700;
}
);
metricLeft = "=|parenleft";
metricRight = "=|parenleft";
unicode = 41;
userData = {
KernOnName = parenright;
KernOnSpecialSpacing = {
L = parenthesis;
};
};
}
{
color = 6;
glyphname = asterisk;
layers = (
{
background = {
shapes = (
{
closed = 1;
nodes = (
(
485,
610,
o
),
(
452,
570,
o
),
(
399,
520,
c
),
(
400,
517,
l
),
(
474,
539,
o
),
(
521,
546,
o
),
(
554,
565,
cs
),
(
589,
585,
o
),
(
592,
608,
o
),
(
583,
623,
cs
),
(
574,
639,
o
),
(
552,
649,
o
),
(
517,
629,
cs
)
);
},
{
closed = 1;
nodes = (
(
399,
517,
l
),
(
455,
464,
o
),
(
485,
427,
o
),
(
518,
408,
cs
),
(
553,
388,
o
),
(
574,
397,
o
),
(
582,
412,
cs
),
(
592,
428,
o
),
(
589,
452,
o
),
(
555,
472,
cs
),
(
522,
490,
o
),
(
471,
499,
o
),
(
401,
520,
c
)
);
},
{
closed = 1;
nodes = (
(
399,
518,
l
),
(
381,
443,
o
),
(
364,
399,
o
),
(
364,
361,
cs
),
(
364,
320,
o
),
(
382,
307,
o
),
(
399,
307,
cs
),
(
418,
307,
o
),
(
437,
321,
o
),
(
438,
361,
cs
),
(
437,
398,
o
),
(
419,
447,
o
),
(
402,
518,
c
)
);
},
{
closed = 1;
nodes = (
(
326,
497,
o
),
(
279,
490,
o
),
(
246,
471,
cs
),
(
211,
450,
o
),
(
208,
428,
o
),
(
217,
413,
cs
),
(
226,
397,
o
),
(
248,
387,
o
),
(
283,
407,
c
),
(
315,
426,
o
),
(
348,
466,
o
),
(
401,
516,
c
),
(
399,
519,
l
)
);
},
{
closed = 1;
nodes = (
(
247,
648,
o
),
(
226,
639,
o
),
(
218,
624,
cs
),
(
208,
608,
o
),
(
211,
584,
o
),
(
245,
564,
cs
),
(
278,
546,
o
),
(
329,
537,
o
),
(
399,
516,
c
),
(
400,
519,
l
),
(
345,
572,
o
),
(
315,
609,
o
),
(
282,
628,
cs
)
);
},
{
closed = 1;
nodes = (
(
382,
729,
o
),
(
363,
715,
o
),
(
363,
675,
cs
),
(
363,
637,
o
),
(
381,
589,
o
),
(
398,
518,
c
),
(
401,
518,
l
),
(
419,
593,
o
),
(
436,
637,
o
),
(
436,
675,
cs
),
(
436,
715,
o
),
(
418,
729,
o
),
(
400,
729,
cs
)
);
}
);
};
layerId = "8A8107C8-C076-4746-AE01-7D15750BBEFC";
shapes = (
{
closed = 1;
nodes = (
(
571,
642,
o
),
(
551,
648,
o
),
(
528,
634,
cs
),
(
495,
614,
o
),
(
465,
564,
o
),
(
399,
518,
c
),
(
399,
517,
l
),
(
476,
551,
o
),
(
532,
552,
o
),
(
565,
571,
cs
),
(
589,
585,
o
),
(
593,
605,
o
),
(
582,
623,
cs
)
);
},
{
closed = 1;
nodes = (
(
594,
430,
o
),
(
589,
452,
o
),
(
565,
465,
cs
),
(
531,
483,
o
),
(
473,
484,
o
),
(
400,
518,
c
),
(
399,
518,
l
),
(
467,
468,
o
),
(
496,
420,
o
),
(
529,
401,
cs
),
(
553,
387,
o
),
(
572,
394,
o
),
(
583,
412,
cs
)
);
},
{
closed = 1;
nodes = (
(
421,
307,
o
),
(
437,
321,
o
),
(
436,
349,
cs
),
(
435,
387,
o
),
(
407,
438,
o
),
(
400,
518,
c
),
(
399,
518,
l
),
(
390,
435,
o
),
(
363,
386,
o
),
(
363,
348,
cs
),
(
363,
320,
o
),
(
378,
307,
o
),
(
399,
307,
cs
)
);
},
{
closed = 1;
nodes = (
(
227,
393,
o
),
(
247,
386,
o
),
(
271,
401,
cs
),
(
303,
421,
o
),
(
333,
471,
o
),
(
399,
517,
c
),
(
399,
518,
l
),
(
322,
484,
o
),
(
266,
483,
o
),
(
233,
464,
cs
),
(
209,
450,
o
),
(
205,
430,
o
),
(
216,
412,
cs
)
);
},
{
closed = 1;
nodes = (
(
207,
604,
o
),
(
210,
584,
o
),
(
235,
570,
cs
),
(
267,
552,
o
),
(
327,
552,
o
),
(
400,
517,
c
),
(
400,
518,
l
),
(
332,
568,
o
),
(
303,
616,
o
),
(
270,
635,
cs
),
(
246,
649,
o
),
(
227,
642,
o
),
(
217,
623,
cs
)
);
},
{
closed = 1;
nodes = (
(
378,
729,
o
),
(
363,
715,
o
),
(
363,
688,
cs
),
(
363,
650,
o
),
(
392,
598,
o
),
(
399,
518,
c
),
(
400,
518,
l
),
(
409,
601,
o
),
(
436,
650,
o
),
(
436,
688,
cs
),
(
436,
716,
o
),
(
421,
729,
o
),
(
400,
729,
cs
)
);
}
);
width = 700;
},
{
background = {
shapes = (
{
closed = 1;
nodes = (
(
574,
639,
o
),
(
552,
649,
o
),
(
517,
629,
cs
),
(
485,
610,
o
),
(
452,
570,
o
),
(
399,
520,
c
),
(
400,
517,
l
),
(
474,
539,
o
),
(
521,
546,
o
),
(
554,
565,
cs
),
(
589,
585,
o
),
(
592,
608,
o
),
(
583,
623,
cs
)
);
},
{
closed = 1;
nodes = (
(
592,
428,
o
),
(
589,
452,
o
),
(
555,
472,
cs
),
(
522,
490,
o
),
(
471,
499,
o
),
(
401,
520,
c
),
(
399,
517,
l
),
(
455,
464,
o
),
(
485,
427,
o
),
(
518,
408,
cs
),
(
553,
388,
o
),
(
574,
397,
o
),
(
582,
412,
cs
)
);
},
{
closed = 1;
nodes = (
(
418,
307,
o
),
(
437,
321,
o
),
(
438,
361,
cs
),
(
437,
398,
o
),
(
419,
447,
o
),
(
402,
518,
c
),
(
399,
518,
l
),
(
381,
443,
o
),
(
364,
399,
o
),
(
364,
361,
cs
),
(
364,
320,
o
),
(
382,
307,
o
),
(
399,
307,
cs
)
);
},
{
closed = 1;
nodes = (
(
226,
397,
o
),
(
248,
387,
o
),
(
283,
407,
cs
),
(
315,
426,
o
),
(
348,
466,
o
),
(
401,
516,
c
),
(
399,
519,
l
),
(
326,
497,
o
),
(
279,
490,
o
),
(
246,
471,
cs
),
(
211,
450,
o
),
(
208,
428,
o
),
(
217,
413,
cs
)
);
},
{
closed = 1;
nodes = (
(
208,
608,
o
),
(
211,
584,
o
),
(
245,
564,
cs
),
(
278,
546,
o
),
(
329,
537,
o
),
(
399,
516,
c
),
(
400,
519,
l
),
(
345,
572,
o
),
(
315,
609,
o
),
(
282,
628,
cs
),
(
247,
648,
o
),
(
226,
639,
o
),
(
218,
624,
cs
)
);
},
{
closed = 1;
nodes = (
(
382,
729,
o
),
(
363,
715,
o
),
(
363,
675,
cs
),
(
363,
637,
o
),
(
381,
589,
o
),
(
398,
518,
c
),
(
401,
518,
l
),
(
419,
593,
o
),
(
436,
637,
o
),
(
436,
675,
cs
),
(
436,
715,
o
),
(
418,
729,
o
),
(
400,
729,
cs
)
);
}
);
};
layerId = "4637ED20-F3CC-4D04-82BF-886AF47DA6B7";
shapes = (
{
closed = 1;
nodes = (
(
571,
643,
o
),
(
547,
657,
o
),
(
512,
637,
cs
),
(
479,
618,
o
),
(
443,
585,
o
),
(
391,
533,
c
),
(
408,
504,
l
),
(
483,
524,
o
),
(
526,
537,
o
),
(
559,
556,
cs
),
(
593,
576,
o
),
(
594,
603,
o
),
(
583,
623,
cs
)
);
},
{
closed = 1;
nodes = (
(
594,
432,
o
),
(
594,
460,
o
),
(
559,
480,
cs
),
(
526,
499,
o
),
(
479,
514,
o
),
(
408,
533,
c
),
(
392,
504,
l
),
(
446,
449,
o
),
(
479,
418,
o
),
(
512,
399,
cs
),
(
547,
380,
o
),
(
570,
392,
o
),
(
582,
412,
cs
)
);
},
{
closed = 1;
nodes = (
(
422,
307,
o
),
(
447,
321,
o
),
(
446,
361,
cs
),
(
446,
399,
o
),
(
436,
447,
o
),
(
417,
518,
c
),
(
384,
518,
l
),
(
363,
443,
o
),
(
353,
399,
o
),
(
353,
361,
cs
),
(
354,
321,
o
),
(
376,
308,
o
),
(
399,
307,
cs
)
);
},
{
closed = 1;
nodes = (
(
228,
393,
o
),
(
253,
379,
o
),
(
287,
399,
cs
),
(
320,
418,
o
),
(
356,
451,
o
),
(
408,
503,
c
),
(
392,
532,
l
),
(
316,
512,
o
),
(
273,
499,
o
),
(
240,
480,
cs
),
(
206,
459,
o
),
(
206,
434,
o
),
(
217,
413,
cs
)
);
},
{
closed = 1;
nodes = (
(
206,
604,
o
),
(
206,
576,
o
),
(
240,
556,
cs
),
(
273,
537,
o
),
(
320,
522,
o
),
(
391,
503,
c
),
(
408,
532,
l
),
(
353,
588,
o
),
(
320,
618,
o
),
(
287,
637,
cs
),
(
252,
656,
o
),
(
230,
644,
o
),
(
217,
624,
cs
)
);
},
{
closed = 1;
nodes = (
(
377,
729,
o
),
(
353,
715,
o
),
(
353,
675,
cs
),
(
353,
637,
o
),
(
363,
589,
o
),
(
383,
518,
c
),
(
416,
518,
l
),
(
436,
593,
o
),
(
446,
637,
o
),
(
446,
675,
cs
),
(
446,
715,
o
),
(
423,
729,
o
),
(
400,
729,
cs
)
);
}
);
width = 700;
},
{
layerId = "19651320-9895-44C9-9F41-285CE0F17596";
shapes = (
{
closed = 1;
nodes = (
(
569.5,
648,
o
),
(
542.5,
666,
o
),
(
507.5,
646,
cs
),
(
475.5,
627,
o
),
(
447.5,
579,
o
),
(
399.5,
520,
c
),
(
401.5,
517,
l
),
(
480.5,
530,
o
),
(
531.5,
529,
o
),
(
564.5,
548,
cs
),
(
599.5,
568,
o
),
(
597.5,
599,
o
),
(
582.5,
624,
cs
)
);
},
{
closed = 1;
nodes = (
(
597.5,
437,
o
),
(
599.5,
469,
o
),
(
564.5,
489,
cs
),
(
532.5,
508,
o
),
(
476.5,
508,
o
),
(
401.5,
520,
c
),
(
400.5,
517,
l
),
(
450.5,
455,
o
),
(
475.5,
410,
o
),
(
508.5,
391,
cs
),
(
543.5,
371,
o
),
(
569.5,
388,
o
),
(
583.5,
413,
cs
)
);
},
{
closed = 1;
nodes = (
(
428.5,
307,
o
),
(
457.5,
321,
o
),
(
457.5,
361,
cs
),
(
457.5,
399,
o
),
(
429.5,
447,
o
),
(
402.5,
518,
c
),
(
399.5,
517,
l
),
(
370.5,
443,
o
),
(
344.5,
399,
o
),
(
344.5,
361,
cs
),
(
344.5,
321,
o
),
(
372.5,
307,
o
),
(
401.5,
307,
cs
)
);
},
{
closed = 1;
nodes = (
(
231.5,
388,
o
),
(
258.5,
370,
o
),
(
293.5,
390,
cs
),
(
325.5,
409,
o
),
(
353.5,
457,
o
),
(
401.5,
516,
c
),
(
399.5,
518,
l
),
(
320.5,
506,
o
),
(
269.5,
507,
o
),
(
236.5,
488,
cs
),
(
201.5,
468,
o
),
(
203.5,
437,
o
),
(
218.5,
412,
cs
)
);
},
{
closed = 1;
nodes = (
(
203.5,
599,
o
),
(
201.5,
567,
o
),
(
236.5,
547,
cs
),
(
268.5,
528,
o
),
(
324.5,
528,
o
),
(
399.5,
516,
c
),
(
400.5,
519,
l
),
(
350.5,
581,
o
),
(
325.5,
626,
o
),
(
292.5,
645,
cs
),
(
257.5,
665,
o
),
(
231.5,
648,
o
),
(
217.5,
623,
cs
)
);
},
{
closed = 1;
nodes = (
(
372.5,
729,
o
),
(
343.5,
715,
o
),
(
343.5,
675,
cs
),
(
343.5,
637,
o
),
(
371.5,
589,
o
),
(
398.5,
518,
c
),
(
401.5,
518,
l
),
(
429.5,
593,
o
),
(
456.5,
637,
o
),
(
456.5,
675,
cs
),
(
456.5,
715,
o
),
(
428.5,
729,
o
),
(
400.5,
729,
cs
)
);
}
);
width = 700;
},
{
background = {
shapes = (
{
closed = 1;
nodes = (
(
560,
648,
o
),
(
533,
666,
o
),
(
498,
646,
cs
),
(
466,
627,
o
),
(
438,
579,
o
),
(
390,
520,
c
),
(
392,
517,
l
),
(
471,
530,
o
),
(
522,
529,
o
),
(
555,
548,
cs
),
(
590,
568,
o
),
(
588,
599,
o
),
(
573,
624,
cs
)
);
},
{
closed = 1;
nodes = (
(
588,
437,
o
),
(
590,
469,
o
),
(
555,
489,
cs
),
(
523,
508,
o
),
(
467,
508,
o
),
(
392,
520,
c
),
(
391,
517,
l
),
(
441,
455,
o
),
(
466,
410,
o
),
(
499,
391,
cs
),
(
534,
371,
o
),
(
560,
388,
o
),
(
574,
413,
cs
)
);
},
{
closed = 1;
nodes = (
(
419,
307,
o
),
(
448,
321,
o
),
(
448,
361,
cs
),
(
448,
399,
o
),
(
420,
447,
o
),
(
393,
518,
c
),
(
390,
517,
l
),
(
361,
443,
o
),
(
335,
399,
o
),
(
335,
361,
cs
),
(
335,
321,
o
),
(
363,
307,
o
),
(
392,
307,
cs
)
);
},
{
closed = 1;
nodes = (
(
222,
388,
o
),
(
249,
370,
o
),
(
284,
390,
cs
),
(
316,
409,
o
),
(
344,
457,
o
),
(
392,
516,
c
),
(
390,
518,
l
),
(
311,
506,
o
),
(
260,
507,
o
),
(
227,
488,
cs
),
(
192,
468,
o
),
(
194,
437,
o
),
(
209,
412,
cs
)
);
},
{
closed = 1;
nodes = (
(
194,
599,
o
),
(
192,
567,
o
),
(
227,
547,
cs
),
(
259,
528,
o
),
(
315,
528,
o
),
(
390,
516,
c
),
(
391,
519,
l
),
(
341,
581,
o
),
(
316,
626,
o
),
(
283,
645,
cs
),
(
248,
665,
o
),
(
222,
648,
o
),
(
208,
623,
cs
)
);
},
{
closed = 1;
nodes = (
(
363,
729,
o
),
(
334,
715,
o
),
(
334,
675,
cs
),
(
334,
637,
o
),
(
362,
589,
o
),
(
389,
518,
c
),
(
392,
518,
l
),
(
420,
593,
o
),
(
447,
637,
o
),
(
447,
675,
cs
),
(
447,
715,
o
),
(
419,
729,
o
),
(
391,
729,
cs
)
);
}
);
};
layerId = "5936EB7C-5C81-433B-ABAB-ADB37EE98828";
shapes = (
{
closed = 1;
nodes = (
(
556,
654,
o
),
(
528,
663,
o
),
(
500,
647,
cs
),
(
464,
626,
o
),
(
444,
571,
o
),
(
380,
537,
c
),
(
402,
500,
l
),
(
463,
538,
o
),
(
520,
528,
o
),
(
557,
549,
cs
),
(
584,
565,
o
),
(
591,
594,
o
),
(
574,
624,
cs
)
);
},
{
closed = 1;
nodes = (
(
591,
443,
o
),
(
585,
472,
o
),
(
557,
488,
cs
),
(
521,
509,
o
),
(
463,
499,
o
),
(
402,
537,
c
),
(
381,
500,
l
),
(
444,
466,
o
),
(
464,
411,
o
),
(
501,
390,
cs
),
(
528,
374,
o
),
(
557,
383,
o
),
(
574,
413,
cs
)
);
},
{
closed = 1;
nodes = (
(
426,
307,
o
),
(
448,
327,
o
),
(
448,
359,
cs
),
(
448,
401,
o
),
(
411,
446,
o
),
(
413,
518,
c
),
(
370,
518,
l
),
(
373,
446,
o
),
(
335,
401,
o
),
(
335,
359,
cs
),
(
335,
327,
o
),
(
357,
307,
o
),
(
392,
307,
cs
)
);
},
{
closed = 1;
nodes = (
(
226,
382,
o
),
(
254,
373,
o
),
(
282,
389,
cs
),
(
318,
410,
o
),
(
339,
465,
o
),
(
402,
499,
c
),
(
381,
536,
l
),
(
320,
498,
o
),
(
262,
508,
o
),
(
225,
487,
cs
),
(
198,
471,
o
),
(
191,
442,
o
),
(
209,
412,
cs
)
);
},
{
closed = 1;
nodes = (
(
191,
593,
o
),
(
197,
564,
o
),
(
225,
548,
cs
),
(
261,
527,
o
),
(
319,
537,
o
),
(
380,
499,
c
),
(
402,
536,
l
),
(
338,
570,
o
),
(
318,
625,
o
),
(
281,
646,
cs
),
(
254,
662,
o
),
(
225,
653,
o
),
(
208,
623,
cs
)
);
},
{
closed = 1;
nodes = (
(
356,
729,
o
),
(
334,
709,
o
),
(
334,
677,
cs
),
(
334,
635,
o
),
(
372,
590,
o
),
(
369,
518,
c
),
(
412,
518,
l
),
(
410,
590,
o
),
(
447,
635,
o
),
(
447,
677,
cs
),
(
447,
709,
o
),
(
425,
729,
o
),
(
391,
729,
cs
)
);
}
);
width = 700;
}
);
unicode = 42;
userData = {
KernOnSpecialSpacing = {
L = NoKerning;
R = NoKerning;
};
};
}
{
color = 4;
glyphname = plus;
kernLeft = KO_plus;
kernRight = KO_plus;
layers = (
{
background = {
guides = (
{
angle = 74.4;
pos = (
240,
105
);
}
);
shapes = (
{
closed = 1;
nodes = (
(
280.5,
105,
l
),
(
350.5,
354,
l
),
(
600.5,
354,
l
),
(
600.5,
355,
l
),
(
350.5,
355,
l
),
(
420.5,
606,
l
),
(
419.5,
606,
l
),
(
349.5,
355,
l
),
(
99.5,
355,
l
),
(
99.5,
354,
l
),
(
349.5,
354,
l
),
(
279.5,
105,
l
)
);
}
);
};
guides = (
{
angle = 74.4;
pos = (
263.5,
106
);
},
{
pos = (
259.5,
265
);
}
);
layerId = "8A8107C8-C076-4746-AE01-7D15750BBEFC";
shapes = (
{
closed = 1;
nodes = (
(
280.5,
16,
l
),
(
350.5,
265,
l
),
(
600.5,
265,
l
),
(
600.5,
266,
l
),
(
350.5,
266,
l
),
(
420.5,
517,
l
),
(
419.5,
517,
l
),
(
349.5,
266,
l
),
(
99.5,
266,
l
),
(
99.5,
265,
l
),
(
349.5,
265,
l
),
(
279.5,
16,
l
)
);
}
);
width = 700;
},
{
background = {
guides = (
{
angle = 74.4;
pos = (
263,
105
);
}
);
shapes = (
{
closed = 1;
nodes = (
(
348.5,
105,
l
),
(
407.5,
315,
l
),
(
614.5,
315,
l
),
(
636.5,
395,
l
),
(
429.5,
395,
l
),
(
488.5,
606,
l
),
(
402.5,
606,
l
),
(
343.5,
395,
l
),
(
135.5,
395,
l
),
(
113.5,
315,
l
),
(
321.5,
315,
l
),
(
262.5,
105,
l
)
);
}
);
};
guides = (
{
angle = 74.4;
pos = (
262.5,
105
);
},
{
pos = (
96.5,
305
);
}
);
layerId = "4637ED20-F3CC-4D04-82BF-886AF47DA6B7";
shapes = (
{
closed = 1;
nodes = (
(
323.5,
15,
l
),
(
382.5,
225,
l
),
(
589.5,
225,
l
),
(
611.5,
305,
l
),
(
404.5,
305,
l
),
(
463.5,
516,
l
),
(
377.5,
516,
l
),
(
318.5,
305,
l
),
(
110.5,
305,
l
),
(
88.5,
225,
l
),
(
296.5,
225,
l
),
(
237.5,
15,
l
)
);
}
);
width = 700;
},
{
background = {
shapes = (
{
closed = 1;
nodes = (
(
280.5,
105,
l
),
(
350.5,
355,
l
),
(
600.5,
355,
l
),
(
600.5,
356,
l
),
(
350.5,
356,
l
),
(
420.5,
606,
l
),
(
419.5,
606,
l
),
(
349.5,
356,
l
),
(
99.5,
356,
l
),
(
99.5,
355,
l
),
(
349.5,
355,
l
),
(
279.5,
105,
l
)
);
}
);
};
guides = (
{
pos = (
241.5,
265
);
}
);
layerId = "19651320-9895-44C9-9F41-285CE0F17596";
shapes = (
{
closed = 1;
nodes = (
(
280.5,
15,
l
),
(
350.5,
265,
l
),
(
600.5,
265,
l
),
(
600.5,
266,
l
),
(
350.5,
266,
l
),
(
420.5,
516,
l
),
(
419.5,
516,
l
),
(
349.5,
266,
l
),
(
99.5,
266,
l
),
(
99.5,
265,
l
),
(
349.5,
265,
l
),
(
279.5,
15,
l
)
);
}
);
width = 700;
},
{
background = {
guides = (
{
angle = 74.4;
pos = (
237,
105
);
}
);
shapes = (
{
closed = 1;
nodes = (
(
323.5,
105,
l
),
(
382.5,
315,
l
),
(
589.5,
315,
l
),
(
611.5,
395,
l
),
(
404.5,
395,
l
),
(
463.5,
606,
l
),
(
377.5,
606,
l
),
(
318.5,
395,
l
),
(
110.5,
395,
l
),
(
88.5,
315,
l
),
(
296.5,
315,
l
),
(
237.5,
105,
l
)
);
}
);
};
guides = (
{
angle = 74.4;
pos = (
261.5,
105
);
}
);
layerId = "5936EB7C-5C81-433B-ABAB-ADB37EE98828";
shapes = (
{
closed = 1;
nodes = (
(
323.5,
15,
l
),
(
382.5,
225,
l
),
(
589.5,
225,
l
),
(
611.5,
305,
l
),
(
404.5,
305,
l
),
(
463.5,
516,
l
),
(
377.5,
516,
l
),
(
318.5,
305,
l
),
(
110.5,
305,
l
),
(
88.5,
225,
l
),
(
296.5,
225,
l
),
(
237.5,
15,
l
)
);
}
);
width = 700;
}
);
metricLeft = minus;
metricRight = minus;
unicode = 43;
userData = {
KernOnSpecialSpacing = {
L = math;
R = math;
};
};
}
{
color = 4;
glyphname = comma;
kernLeft = KO_comma;
layers = (
{
background = {
shapes = (
{
closed = 1;
nodes = (
(
292,
-96,
o
),
(
346,
-38,
o
),
(
346,
28,
cs
),
(
346,
73,
o
),
(
318,
106,
o
),
(
280,
106,
cs
),
(
250,
106,
o
),
(
230,
87,
o
),
(
230,
60,
cs
),
(
230,
8,
o
),
(
303,
7,
o
),
(
303,
-39,
cs
),
(
303,
-72,
o
),
(
268,
-101,
o
),
(
198,
-127,
c
),
(
198,
-128,
l
)
);
}
);
};
guides = (
{
pos = (
176,
106
);
}
);
layerId = "8A8107C8-C076-4746-AE01-7D15750BBEFC";
shapes = (
{
closed = 1;
nodes = (
(
292,
-95,
o
),
(
346,
-38,
o
),
(
346,
30,
cs
),
(
346,
79,
o
),
(
318,
116,
o
),
(
280,
116,
cs
),
(
253,
116,
o
),
(
235,
98,
o
),
(
235,
73,
cs
),
(
235,
24,
o
),
(
303,
8,
o
),
(
303,
-39,
cs
),
(
303,
-72,
o
),
(
268,
-101,
o
),
(
198,
-127,
c
),
(
198,
-128,
l
)
);
}
);
width = 700;
},
{
background = {
shapes = (
{
closed = 1;
nodes = (
(
328,
-148,
o
),
(
402,
-73,
o
),
(
402,
23,
cs
),
(
402,
96,
o
),
(
359,
146,
o
),
(
297,
146,
cs
),
(
252,
146,
o
),
(
216,
117,
o
),
(
216,
80,
cs
),
(
216,
23,
o
),
(
302,
11,
o
),
(
302,
-42,
cs
),
(
302,
-79,
o
),
(
260,
-110,
o
),
(
170,
-139,
c
),
(
192,
-190,
l
)
);
}
);
};
guides = (
{
pos = (
156,
156
);
}
);
layerId = "4637ED20-F3CC-4D04-82BF-886AF47DA6B7";
shapes = (
{
closed = 1;
nodes = (
(
332,
-146,
o
),
(
402,
-73,
o
),
(
402,
27,
cs
),
(
402,
108,
o
),
(
358,
166,
o
),
(
297,
166,
cs
),
(
256,
166,
o
),
(
226,
140,
o
),
(
226,
105,
cs
),
(
226,
42,
o
),
(
317,
36,
o
),
(
317,
-25,
cs
),
(
317,
-69,
o
),
(
268,
-108,
o
),
(
175,
-138,
c
),
(
192,
-190,
l
)
);
}
);
width = 700;
},
{
background = {
shapes = (
{
closed = 1;
nodes = (
(
330.5,
-95,
o
),
(
400.5,
-38,
o
),
(
400.5,
45,
cs
),
(
400.5,
110,
o
),
(
355.5,
154,
o
),
(
289.5,
154,
cs
),
(
237.5,
154,
o
),
(
202.5,
123,
o
),
(
202.5,
78,
cs
),
(
202.5,
11,
o
),
(
283.5,
-7,
o
),
(
283.5,
-50,
cs
),
(
283.5,
-74,
o
),
(
255.5,
-90,
o
),
(
180.5,
-109,
c
),
(
186.5,
-129,
l
)
);
}
);
};
guides = (
{
pos = (
164.5,
154
);
}
);
layerId = "19651320-9895-44C9-9F41-285CE0F17596";
shapes = (
{
closed = 1;
nodes = (
(
330.5,
-95,
o
),
(
400.5,
-38,
o
),
(
400.5,
45,
cs
),
(
400.5,
110,
o
),
(
357.5,
154,
o
),
(
294.5,
154,
cs
),
(
243.5,
154,
o
),
(
207.5,
124,
o
),
(
207.5,
81,
cs
),
(
207.5,
6,
o
),
(
318.5,
-6,
o
),
(
318.5,
-53,
cs
),
(
318.5,
-82,
o
),
(
282.5,
-104,
o
),
(
186.5,
-128,
c
),
(
186.5,
-129,
l
)
);
}
);
width = 700;
},
{
background = {
shapes = (
{
closed = 1;
nodes = (
(
352,
-148,
o
),
(
426,
-73,
o
),
(
426,
23,
cs
),
(
426,
109,
o
),
(
375,
168,
o
),
(
301,
168,
cs
),
(
250,
168,
o
),
(
210,
139,
o
),
(
210,
99,
cs
),
(
210,
17,
o
),
(
331,
25,
o
),
(
331,
-27,
cs
),
(
331,
-69,
o
),
(
285,
-108,
o
),
(
199,
-138,
c
),
(
216,
-190,
l
)
);
}
);
};
guides = (
{
pos = (
156,
168
);
}
);
layerId = "5936EB7C-5C81-433B-ABAB-ADB37EE98828";
shapes = (
{
closed = 1;
nodes = (
(
353,
-148,
o
),
(
426,
-73,
o
),
(
426,
25,
cs
),
(
426,
108,
o
),
(
376,
168,
o
),
(
305,
168,
cs
),
(
253,
168,
o
),
(
216,
136,
o
),
(
216,
91,
cs
),
(
216,
15,
o
),
(
320,
6,
o
),
(
320,
-44,
cs
),
(
320,
-78,
o
),
(
275,
-112,
o
),
(
196,
-138,
c
),
(
216,
-190,
l
)
);
}
);
width = 700;
}
);
metricLeft = period;
unicode = 44;
userData = {
KernOnName = comma;
KernOnSpecialSpacing = {
L = period;
R = period;
};
};
}
{
color = 4;
glyphname = hyphen;
kernLeft = KO_hyphen;
kernRight = KO_hyphen;
layers = (
{
background = {
shapes = (
{
closed = 1;
nodes = (
(
176.5,
279,
l
),
(
170.5,
259,
l
),
(
531.5,
259,
l
),
(
537.5,
279,
l
)
);
}
);
};
layerId = "8A8107C8-C076-4746-AE01-7D15750BBEFC";
shapes = (
{
closed = 1;
nodes = (
(
533.5,
269,
l
),
(
539.5,
289,
l
),
(
178.5,
289,
l
),
(
172.5,
269,
l
)
);
}
);
width = 700;
},
{
background = {
shapes = (
{
closed = 1;
nodes = (
(
179.5,
289,
l
),
(
167.5,
249,
l
),
(
528.5,
249,
l
),
(
540.5,
289,
l
)
);
}
);
};
layerId = "4637ED20-F3CC-4D04-82BF-886AF47DA6B7";
shapes = (
{
closed = 1;
nodes = (
(
526.5,
244,
l
),
(
546.5,
314,
l
),
(
185.5,
314,
l
),
(
165.5,
244,
l
)
);
}
);
width = 700;
},
{
background = {
shapes = (
{
closed = 1;
nodes = (
(
183.5,
311,
l
),
(
161.5,
232,
l
),
(
522.5,
232,
l
),
(
544.5,
311,
l
)
);
}
);
};
layerId = "19651320-9895-44C9-9F41-285CE0F17596";
shapes = (
{
closed = 1;
nodes = (
(
525.5,
242,
l
),
(
547.5,
321,
l
),
(
186.5,
321,
l
),
(
164.5,
242,
l
)
);
}
);
width = 700;
},
{
background = {
shapes = (
{
closed = 1;
nodes = (
(
525.5,
242,
l
),
(
547.5,
321,
l
),
(
186.5,
321,
l
),
(
164.5,
242,
l
)
);
}
);
};
guides = (
{
angle = 74.4;
pos = (
164.5,
242
);
}
);
layerId = "5936EB7C-5C81-433B-ABAB-ADB37EE98828";
shapes = (
{
closed = 1;
nodes = (
(
518.5,
217,
l
),
(
554.5,
346,
l
),
(
193.5,
346,
l
),
(
157.5,
217,
l
)
);
}
);
width = 700;
}
);
unicode = 45;
userData = {
KernOnName = hyphen;
KernOnSpecialSpacing = {
L = hyphen;
R = hyphen;
};
};
}
{
color = 4;
glyphname = period;
kernLeft = KO_period;
kernRight = KO_period;
layers = (
{
anchors = (
{
name = "^entry";
pos = (
151,
0
);
},
{
name = "^exit";
pos = (
446,
0
);
},
{
name = _Ldot;
pos = (
291,
0
);
},
{
name = _ascender;
pos = (
291,
92
);
},
{
name = _baseline;
pos = (
279,
0
);
},
{
name = _center;
pos = (
279,
0
);
},
{
name = center;
pos = (
279,
0
);
}
);
background = {
shapes = (
{
closed = 1;
nodes = (
(
323,
-14,
o
),
(
353,
14,
o
),
(
353,
47,
cs
),
(
353,
80,
o
),
(
328,
106,
o
),
(
295,
106,
cs
),
(
261,
106,
o
),
(
231,
78,
o
),
(
231,
45,
cs
),
(
231,
12,
o
),
(
256,
-14,
o
),
(
289,
-14,
cs
)
);
}
);
};
layerId = "8A8107C8-C076-4746-AE01-7D15750BBEFC";
shapes = (
{
closed = 1;
nodes = (
(
322,
-14,
o
),
(
351,
16,
o
),
(
351,
50,
cs
),
(
351,
82,
o
),
(
327,
106,
o
),
(
295,
106,
cs
),
(
261,
106,
o
),
(
231,
77,
o
),
(
231,
42,
cs
),
(
231,
11,
o
),
(
256,
-14,
o
),
(
287,
-14,
cs
)
);
}
);
width = 700;
},
{
anchors = (
{
name = "^entry";
pos = (
118,
0
);
},
{
name = "^exit";
pos = (
471,
0
);
},
{
name = _Ldot;
pos = (
298,
0
);
},
{
name = _ascender;
pos = (
300,
142
);
},
{
name = _baseline;
pos = (
279,
0
);
},
{
name = _center;
pos = (
279,
0
);
},
{
name = center;
pos = (
279,
0
);
}
);
background = {
shapes = (
{
closed = 1;
nodes = (
(
342,
-14,
o
),
(
383,
26,
o
),
(
383,
77,
cs
),
(
383,
122,
o
),
(
349,
156,
o
),
(
305,
156,
cs
),
(
254,
156,
o
),
(
213,
115,
o
),
(
213,
65,
cs
),
(
213,
20,
o
),
(
246,
-14,
o
),
(
291,
-14,
cs
)
);
}
);
};
layerId = "4637ED20-F3CC-4D04-82BF-886AF47DA6B7";
shapes = (
{
closed = 1;
nodes = (
(
343,
-14,
o
),
(
383,
26,
o
),
(
383,
77,
cs
),
(
383,
124,
o
),
(
351,
156,
o
),
(
304,
156,
cs
),
(
253,
156,
o
),
(
213,
116,
o
),
(
213,
65,
cs
),
(
213,
19,
o
),
(
246,
-14,
o
),
(
292,
-14,
cs
)
);
}
);
width = 700;
},
{
anchors = (
{
name = "^entry";
pos = (
134.5,
0
);
},
{
name = "^exit";
pos = (
469.5,
0
);
},
{
name = _Ldot;
pos = (
297.5,
0
);
},
{
name = _ascender;
pos = (
299.5,
140
);
},
{
name = _baseline;
pos = (
276.5,
0
);
},
{
name = _center;
pos = (
276.5,
0
);
},
{
name = center;
pos = (
276.5,
0
);
}
);
background = {
shapes = (
{
closed = 1;
nodes = (
(
350.5,
-14,
o
),
(
396.5,
25,
o
),
(
396.5,
78,
cs
),
(
396.5,
124,
o
),
(
361.5,
154,
o
),
(
305.5,
154,
cs
),
(
244.5,
154,
o
),
(
198.5,
115,
o
),
(
198.5,
62,
cs
),
(
198.5,
16,
o
),
(
233.5,
-14,
o
),
(
289.5,
-14,
cs
)
);
}
);
};
layerId = "19651320-9895-44C9-9F41-285CE0F17596";
shapes = (
{
closed = 1;
nodes = (
(
350.5,
-14,
o
),
(
395.5,
25,
o
),
(
395.5,
76,
cs
),
(
395.5,
121,
o
),
(
357.5,
154,
o
),
(
303.5,
154,
cs
),
(
244.5,
154,
o
),
(
199.5,
115,
o
),
(
199.5,
64,
cs
),
(
199.5,
18,
o
),
(
236.5,
-14,
o
),
(
291.5,
-14,
cs
)
);
}
);
width = 700;
},
{
anchors = (
{
name = "^entry";
pos = (
74,
0
);
},
{
name = "^exit";
pos = (
505,
0
);
},
{
name = _Ldot;
pos = (
299,
0
);
},
{
name = _ascender;
pos = (
301,
154
);
},
{
name = _baseline;
pos = (
277,
0
);
},
{
name = _center;
pos = (
277,
0
);
},
{
name = center;
pos = (
277,
0
);
}
);
background = {
shapes = (
{
closed = 1;
nodes = (
(
351,
-14,
o
),
(
397,
25,
o
),
(
397,
78,
cs
),
(
397,
124,
o
),
(
362,
154,
o
),
(
306,
154,
cs
),
(
245,
154,
o
),
(
199,
115,
o
),
(
199,
62,
cs
),
(
199,
16,
o
),
(
234,
-14,
o
),
(
290,
-14,
cs
)
);
}
);
};
layerId = "5936EB7C-5C81-433B-ABAB-ADB37EE98828";
shapes = (
{
closed = 1;
nodes = (
(
355,
-14,
o
),
(
403,
28,
o
),
(
403,
83,
cs
),
(
403,
133,
o
),
(
362,
168,
o
),
(
305,
168,
cs
),
(
242,
168,
o
),
(
195,
126,
o
),
(
195,
71,
cs
),
(
195,
21,
o
),
(
236,
-14,
o
),
(
293,
-14,
cs
)
);
}
);
width = 700;
}
);
unicode = 46;
userData = {
KernOnSpecialSpacing = {
L = period;
R = period;
};
};
}
{
color = 4;
glyphname = slash;
kernLeft = KO_slash;
kernRight = KO_slash;
layers = (
{
anchors = (
{
name = ascender;
pos = (
342.5,
708
);
},
{
name = baseline;
pos = (
409.5,
0
);
}
);
background = {
anchors = (
{
name = ascender;
pos = (
199,
708
);
},
{
name = center;
pos = (
266,
0
);
}
);
shapes = (
{
closed = 1;
nodes = (
(
103.5,
-14,
l
),
(
651.5,
722,
l
),
(
650.5,
722,
l
),
(
102.5,
-14,
l
)
);
}
);
};
layerId = "8A8107C8-C076-4746-AE01-7D15750BBEFC";
shapes = (
{
closed = 1;
nodes = (
(
103.5,
-14,
l
),
(
651.5,
722,
l
),
(
650.5,
722,
l
),
(
102.5,
-14,
l
)
);
}
);
width = 700;
},
{
anchors = (
{
name = ascender;
pos = (
296.5,
708
);
},
{
name = baseline;
pos = (
431.5,
0
);
}
);
background = {
anchors = (
{
name = ascender;
pos = (
199,
708
);
},
{
name = center;
pos = (
316,
0
);
}
);
shapes = (
{
closed = 1;
nodes = (
(
147.5,
-14,
l
),
(
697.5,
722,
l
),
(
606.5,
722,
l
),
(
56.5,
-14,
l
)
);
}
);
};
layerId = "4637ED20-F3CC-4D04-82BF-886AF47DA6B7";
shapes = (
{
closed = 1;
nodes = (
(
147.5,
-14,
l
),
(
697.5,
722,
l
),
(
606.5,
722,
l
),
(
56.5,
-14,
l
)
);
}
);
width = 700;
},
{
anchors = (
{
name = ascender;
pos = (
368.5,
708
);
},
{
name = baseline;
pos = (
395.5,
0
);
}
);
background = {
anchors = (
{
name = ascender;
pos = (
219,
708
);
},
{
name = center;
pos = (
236,
0
);
}
);
shapes = (
{
closed = 1;
nodes = (
(
109.5,
-14,
l
),
(
654.5,
722,
l
),
(
653.5,
722,
l
),
(
108.5,
-14,
l
)
);
}
);
};
layerId = "19651320-9895-44C9-9F41-285CE0F17596";
shapes = (
{
closed = 1;
nodes = (
(
109.5,
-14,
l
),
(
654.5,
722,
l
),
(
653.5,
722,
l
),
(
108.5,
-14,
l
)
);
}
);
width = 700;
},
{
anchors = (
{
name = ascender;
pos = (
316.5,
708
);
},
{
name = baseline;
pos = (
406.5,
0
);
}
);
background = {
anchors = (
{
name = ascender;
pos = (
219,
708
);
},
{
name = center;
pos = (
286,
0
);
}
);
shapes = (
{
closed = 1;
nodes = (
(
147.5,
-14,
l
),
(
697.5,
722,
l
),
(
606.5,
722,
l
),
(
56.5,
-14,
l
)
);
}
);
};
layerId = "5936EB7C-5C81-433B-ABAB-ADB37EE98828";
shapes = (
{
closed = 1;
nodes = (
(
147.5,
-14,
l
),
(
697.5,
722,
l
),
(
606.5,
722,
l
),
(
56.5,
-14,
l
)
);
}
);
width = 700;
}
);
unicode = 47;
userData = {
KernOnSpecialSpacing = {};
};
}
{
color = 6;
glyphname = one;
kernLeft = KO_one;
kernRight = KO_one;
layers = (
{
background = {
shapes = (
{
closed = 1;
nodes = (
(
480,
530,
l
),
(
422,
485,
o
),
(
354,
432,
o
),
(
219,
393,
c
),
(
219,
392,
l
),
(
288,
412,
o
),
(
336,
434,
o
),
(
373,
455,
c
),
(
246,
0,
l
),
(
333,
0,
l
),
(
481,
530,
l
)
);
}
);
};
guides = (
{
angle = 74.4;
pos = (
333,
0
);
},
{
angle = 74.4;
pos = (
246,
0
);
}
);
layerId = "8A8107C8-C076-4746-AE01-7D15750BBEFC";
shapes = (
{
closed = 1;
nodes = (
(
333,
0,
l
),
(
481,
530,
l
),
(
480,
530,
l
),
(
422,
485,
o
),
(
354,
432,
o
),
(
219,
393,
c
),
(
219,
392,
l
),
(
288,
412,
o
),
(
336,
434,
o
),
(
373,
455,
c
),
(
246,
0,
l
)
);
}
);
width = 700;
},
{
background = {
shapes = (
{
closed = 1;
nodes = (
(
418.5,
514,
l
),
(
375.5,
475,
o
),
(
330.5,
438,
o
),
(
231.5,
393,
c
),
(
211.5,
321,
l
),
(
281.5,
344,
o
),
(
332.5,
376,
o
),
(
371.5,
405,
c
),
(
258.5,
0,
l
),
(
345.5,
0,
l
),
(
488.5,
514,
l
)
);
}
);
};
guides = (
{
angle = 74.4;
pos = (
345.5,
0
);
},
{
angle = 74.4;
pos = (
258.5,
0
);
},
{
angle = 74.4;
pos = (
126.5,
2
);
}
);
layerId = "4637ED20-F3CC-4D04-82BF-886AF47DA6B7";
shapes = (
{
closed = 1;
nodes = (
(
345.5,
0,
l
),
(
488.5,
514,
l
),
(
418.5,
514,
l
),
(
375.5,
475,
o
),
(
330.5,
438,
o
),
(
231.5,
393,
c
),
(
211.5,
321,
l
),
(
281.5,
344,
o
),
(
332.5,
376,
o
),
(
371.5,
405,
c
),
(
258.5,
0,
l
)
);
}
);
width = 700;
},
{
background = {
shapes = (
{
closed = 1;
nodes = (
(
500.5,
530,
l
),
(
430.5,
489,
o
),
(
344.5,
442,
o
),
(
179.5,
407,
c
),
(
173.5,
385,
l
),
(
233.5,
397,
o
),
(
267.5,
406,
o
),
(
301.5,
416,
c
),
(
185.5,
0,
l
),
(
372.5,
0,
l
),
(
520.5,
530,
l
)
);
}
);
};
guides = (
{
angle = 74.4;
pos = (
372.5,
0
);
},
{
angle = 74.4;
pos = (
185.5,
0
);
},
{
angle = 74.4;
pos = (
65.5,
-2
);
}
);
layerId = "19651320-9895-44C9-9F41-285CE0F17596";
shapes = (
{
closed = 1;
nodes = (
(
372.5,
0,
l
),
(
520.5,
530,
l
),
(
519.5,
530,
l
),
(
445.5,
489,
o
),
(
354.5,
442,
o
),
(
179.5,
407,
c
),
(
179.5,
406,
l
),
(
229.5,
415,
o
),
(
273.5,
427,
o
),
(
307.5,
437,
c
),
(
185.5,
0,
l
)
);
}
);
width = 700;
},
{
background = {
shapes = (
{
closed = 1;
nodes = (
(
366.5,
514,
l
),
(
323.5,
475,
o
),
(
278.5,
438,
o
),
(
179.5,
393,
c
),
(
159.5,
321,
l
),
(
229.5,
344,
o
),
(
280.5,
376,
o
),
(
319.5,
405,
c
),
(
206.5,
0,
l
),
(
293.5,
0,
l
),
(
436.5,
514,
l
)
);
}
);
};
guides = (
{
angle = 74.4;
pos = (
293.5,
0
);
},
{
angle = 74.4;
pos = (
206.5,
0
);
},
{
angle = 74.4;
pos = (
74.5,
2
);
}
);
layerId = "5936EB7C-5C81-433B-ABAB-ADB37EE98828";
shapes = (
{
closed = 1;
nodes = (
(
393.5,
0,
l
),
(
538.5,
519,
l
),
(
468.5,
519,
l
),
(
402.5,
480,
o
),
(
333.5,
443,
o
),
(
181.5,
398,
c
),
(
161.5,
326,
l
),
(
225.5,
339,
o
),
(
272.5,
353,
o
),
(
308.5,
368,
c
),
(
206.5,
0,
l
)
);
}
);
width = 700;
}
);
metricLeft = one.lf;
metricRight = one.lf;
unicode = 49;
userData = {
KernOnName = one;
};
}
{
color = 4;
glyphname = two;
kernLeft = KO_two;
kernRight = KO_two;
layers = (
{
background = {
shapes = (
{
closed = 1;
nodes = (
(
495,
-14,
o
),
(
524,
12,
o
),
(
559,
81,
cs
),
(
585,
132,
l
),
(
584,
132,
l
),
(
563,
91,
o
),
(
546,
82,
o
),
(
491,
82,
cs
),
(
428,
82,
o
),
(
310,
93,
o
),
(
180,
102,
c
),
(
179,
100,
l
),
(
324,
252,
o
),
(
589,
261,
o
),
(
589,
424,
cs
),
(
589,
488,
o
),
(
528,
528,
o
),
(
429,
528,
cs
),
(
298,
528,
o
),
(
175,
434,
o
),
(
175,
334,
cs
),
(
175,
287,
o
),
(
204,
259,
o
),
(
255,
259,
cs
),
(
304,
259,
o
),
(
350,
283,
o
),
(
392,
332,
c
),
(
391,
332,
l
),
(
368,
311,
o
),
(
346,
301,
o
),
(
315,
301,
cs
),
(
269,
301,
o
),
(
241,
324,
o
),
(
241,
372,
cs
),
(
241,
454,
o
),
(
313,
522,
o
),
(
392,
522,
cs
),
(
458,
522,
o
),
(
498,
481,
o
),
(
498,
408,
cs
),
(
498,
218,
o
),
(
179,
213,
o
),
(
111,
-10,
c
),
(
112,
-10,
l
),
(
136,
65,
o
),
(
174,
97,
o
),
(
224,
97,
cs
),
(
306,
97,
o
),
(
363,
-14,
o
),
(
455,
-14,
cs
)
);
}
);
};
guides = (
{
angle = 74.4;
pos = (
114,
1
);
},
{
angle = 74.4;
pos = (
473,
-10
);
}
);
layerId = "8A8107C8-C076-4746-AE01-7D15750BBEFC";
shapes = (
{
closed = 1;
nodes = (
(
539,
21,
o
),
(
545,
43,
o
),
(
568,
128,
c
),
(
567,
128,
l
),
(
551,
91,
o
),
(
525,
77,
o
),
(
469,
77,
cs
),
(
244,
77,
l
),
(
244,
78,
l
),
(
491,
204,
o
),
(
586,
291,
o
),
(
586,
392,
cs
),
(
586,
474,
o
),
(
523,
528,
o
),
(
427,
528,
cs
),
(
297,
528,
o
),
(
175,
429,
o
),
(
175,
323,
cs
),
(
175,
265,
o
),
(
212,
229,
o
),
(
272,
229,
cs
),
(
324,
229,
o
),
(
369,
256,
o
),
(
412,
312,
c
),
(
411,
313,
l
),
(
386,
282,
o
),
(
365,
271,
o
),
(
331,
271,
cs
),
(
274,
271,
o
),
(
241,
304,
o
),
(
241,
363,
cs
),
(
241,
449,
o
),
(
312,
522,
o
),
(
394,
522,
cs
),
(
458,
522,
o
),
(
496,
476,
o
),
(
496,
397,
cs
),
(
496,
219,
o
),
(
297,
112,
o
),
(
114,
1,
c
),
(
114,
0,
l
),
(
457,
0,
ls
),
(
498,
0,
o
),
(
528,
-2,
o
),
(
534,
-5,
c
)
);
}
);
width = 700;
},
{
background = {
shapes = (
{
closed = 1;
nodes = (
(
536,
21,
o
),
(
542,
43,
o
),
(
565,
128,
c
),
(
564,
128,
l
),
(
548,
91,
o
),
(
522,
77,
o
),
(
466,
77,
cs
),
(
241,
77,
l
),
(
241,
78,
l
),
(
488,
204,
o
),
(
583,
291,
o
),
(
583,
392,
cs
),
(
583,
474,
o
),
(
520,
528,
o
),
(
424,
528,
cs
),
(
294,
528,
o
),
(
172,
429,
o
),
(
172,
323,
cs
),
(
172,
265,
o
),
(
209,
229,
o
),
(
269,
229,
cs
),
(
321,
229,
o
),
(
366,
256,
o
),
(
409,
312,
c
),
(
408,
313,
l
),
(
383,
282,
o
),
(
362,
271,
o
),
(
328,
271,
cs
),
(
271,
271,
o
),
(
238,
304,
o
),
(
238,
363,
cs
),
(
238,
449,
o
),
(
309,
522,
o
),
(
391,
522,
cs
),
(
455,
522,
o
),
(
493,
476,
o
),
(
493,
397,
cs
),
(
493,
219,
o
),
(
294,
112,
o
),
(
111,
1,
c
),
(
111,
0,
l
),
(
454,
0,
ls
),
(
495,
0,
o
),
(
525,
-2,
o
),
(
531,
-5,
c
)
);
}
);
};
guides = (
{
angle = 74.4;
pos = (
89,
-10
);
},
{
angle = 74.4;
pos = (
476,
-12
);
}
);
layerId = "4637ED20-F3CC-4D04-82BF-886AF47DA6B7";
shapes = (
{
closed = 1;
nodes = (
(
553,
40,
o
),
(
564,
85,
o
),
(
588,
168,
c
),
(
521,
168,
l
),
(
494,
92,
o
),
(
479,
77,
o
),
(
429,
77,
cs
),
(
263,
77,
l
),
(
263,
87,
l
),
(
484,
196,
o
),
(
580,
288,
o
),
(
580,
390,
cs
),
(
580,
475,
o
),
(
515,
528,
o
),
(
412,
528,
cs
),
(
279,
528,
o
),
(
163,
439,
o
),
(
163,
337,
cs
),
(
163,
270,
o
),
(
212,
226,
o
),
(
287,
226,
cs
),
(
305,
226,
o
),
(
324,
229,
o
),
(
338,
234,
c
),
(
325,
298,
l
),
(
317,
296,
o
),
(
310,
296,
o
),
(
302,
296,
cs
),
(
274,
296,
o
),
(
251,
311,
o
),
(
251,
351,
cs
),
(
251,
408,
o
),
(
313,
452,
o
),
(
393,
452,
cs
),
(
452,
452,
o
),
(
490,
425,
o
),
(
490,
368,
cs
),
(
490,
280,
o
),
(
378,
193,
o
),
(
130,
67,
c
),
(
112,
0,
l
),
(
456,
0,
ls
),
(
502,
0,
o
),
(
537,
-2,
o
),
(
544,
-5,
c
)
);
}
);
width = 700;
},
{
background = {
shapes = (
{
closed = 1;
nodes = (
(
559,
30,
o
),
(
567,
60,
o
),
(
602,
188,
c
),
(
601,
188,
l
),
(
586,
154,
o
),
(
572,
147,
o
),
(
522,
147,
cs
),
(
274,
147,
l
),
(
274,
148,
l
),
(
392,
202,
o
),
(
615,
268,
o
),
(
615,
403,
cs
),
(
615,
485,
o
),
(
546,
533,
o
),
(
430,
533,
cs
),
(
259,
533,
o
),
(
116,
444,
o
),
(
116,
338,
cs
),
(
116,
278,
o
),
(
158,
243,
o
),
(
231,
243,
cs
),
(
299,
243,
o
),
(
357,
287,
o
),
(
395,
368,
c
),
(
394,
369,
l
),
(
364,
314,
o
),
(
330,
291,
o
),
(
288,
291,
cs
),
(
235,
291,
o
),
(
206,
323,
o
),
(
206,
379,
cs
),
(
206,
462,
o
),
(
263,
520,
o
),
(
361,
520,
cs
),
(
419,
520,
o
),
(
448,
483,
o
),
(
448,
425,
cs
),
(
448,
251,
o
),
(
233,
119,
o
),
(
75,
1,
c
),
(
75,
0,
l
),
(
454,
0,
ls
),
(
506,
0,
o
),
(
542,
-2,
o
),
(
552,
-5,
c
)
);
},
{
closed = 0;
nodes = (
(
410,
533,
ls
),
(
255,
533,
o
),
(
115,
434,
o
),
(
115,
324,
cs
),
(
115,
267,
o
),
(
156,
234,
o
),
(
226,
234,
cs
),
(
289,
234,
o
),
(
348,
263,
o
),
(
396,
316,
c
),
(
395,
317,
l
),
(
356,
281,
o
),
(
319,
265,
o
),
(
280,
265,
cs
),
(
222,
265,
o
),
(
188,
299,
o
),
(
188,
356,
cs
),
(
188,
450,
o
),
(
273,
528,
o
),
(
374,
528,
cs
)
);
}
);
};
guides = (
{
angle = 74.4;
pos = (
72,
-10
);
},
{
angle = 74.4;
pos = (
504,
-10
);
}
);
layerId = "19651320-9895-44C9-9F41-285CE0F17596";
shapes = (
{
closed = 1;
nodes = (
(
559,
30,
o
),
(
567,
60,
o
),
(
602,
188,
c
),
(
601,
188,
l
),
(
586,
154,
o
),
(
572,
147,
o
),
(
522,
147,
cs
),
(
267,
147,
l
),
(
267,
148,
l
),
(
395,
202,
o
),
(
625,
266,
o
),
(
625,
407,
cs
),
(
625,
486,
o
),
(
550,
533,
o
),
(
424,
533,
cs
),
(
256,
533,
o
),
(
116,
442,
o
),
(
116,
333,
cs
),
(
116,
272,
o
),
(
158,
234,
o
),
(
224,
234,
cs
),
(
282,
234,
o
),
(
333,
264,
o
),
(
366,
316,
c
),
(
365,
317,
l
),
(
348,
294,
o
),
(
326,
282,
o
),
(
300,
282,
cs
),
(
258,
282,
o
),
(
236,
309,
o
),
(
236,
360,
cs
),
(
236,
443,
o
),
(
285,
524,
o
),
(
350,
524,
cs
),
(
403,
524,
o
),
(
435,
482,
o
),
(
435,
420,
cs
),
(
435,
253,
o
),
(
227,
119,
o
),
(
75,
1,
c
),
(
75,
0,
l
),
(
454,
0,
ls
),
(
503,
0,
o
),
(
542,
-2,
o
),
(
552,
-5,
c
)
);
}
);
width = 700;
},
{
background = {
shapes = (
{
closed = 1;
nodes = (
(
590.5,
38,
o
),
(
603.5,
87,
o
),
(
631.5,
188,
c
),
(
558.5,
188,
l
),
(
544.5,
157,
o
),
(
534.5,
147,
o
),
(
479.5,
147,
cs
),
(
328.5,
147,
l
),
(
328.5,
157,
l
),
(
413.5,
196,
o
),
(
611.5,
277,
o
),
(
611.5,
406,
cs
),
(
611.5,
483,
o
),
(
535.5,
533,
o
),
(
419.5,
533,
cs
),
(
277.5,
533,
o
),
(
169.5,
460,
o
),
(
169.5,
364,
cs
),
(
169.5,
312,
o
),
(
205.5,
281,
o
),
(
259.5,
281,
cs
),
(
277.5,
281,
o
),
(
290.5,
283,
o
),
(
297.5,
285,
c
),
(
287.5,
352,
l
),
(
283.5,
351,
o
),
(
279.5,
351,
o
),
(
275.5,
351,
cs
),
(
254.5,
351,
o
),
(
243.5,
360,
o
),
(
243.5,
376,
cs
),
(
243.5,
411,
o
),
(
282.5,
437,
o
),
(
335.5,
437,
cs
),
(
385.5,
437,
o
),
(
414.5,
411,
o
),
(
414.5,
366,
cs
),
(
414.5,
230,
o
),
(
209.5,
140,
o
),
(
88.5,
71,
c
),
(
68.5,
0,
l
),
(
493.5,
0,
ls
),
(
529.5,
0,
o
),
(
571.5,
-1,
o
),
(
581.5,
-5,
c
)
);
},
{
closed = 1;
nodes = (
(
567.5,
30,
o
),
(
575.5,
60,
o
),
(
610.5,
188,
c
),
(
609.5,
188,
l
),
(
594.5,
154,
o
),
(
580.5,
147,
o
),
(
530.5,
147,
cs
),
(
275.5,
147,
l
),
(
275.5,
148,
l
),
(
403.5,
202,
o
),
(
633.5,
266,
o
),
(
633.5,
407,
cs
),
(
633.5,
486,
o
),
(
558.5,
533,
o
),
(
432.5,
533,
cs
),
(
264.5,
533,
o
),
(
124.5,
442,
o
),
(
124.5,
333,
cs
),
(
124.5,
272,
o
),
(
166.5,
234,
o
),
(
232.5,
234,
cs
),
(
290.5,
234,
o
),
(
341.5,
264,
o
),
(
374.5,
316,
c
),
(
373.5,
317,
l
),
(
356.5,
294,
o
),
(
334.5,
282,
o
),
(
308.5,
282,
cs
),
(
266.5,
282,
o
),
(
244.5,
309,
o
),
(
244.5,
360,
cs
),
(
244.5,
443,
o
),
(
293.5,
524,
o
),
(
358.5,
524,
cs
),
(
411.5,
524,
o
),
(
443.5,
482,
o
),
(
443.5,
420,
cs
),
(
443.5,
253,
o
),
(
235.5,
119,
o
),
(
83.5,
1,
c
),
(
83.5,
0,
l
),
(
462.5,
0,
ls
),
(
511.5,
0,
o
),
(
550.5,
-2,
o
),
(
560.5,
-5,
c
)
);
}
);
};
guides = (
{
angle = 74.4;
pos = (
55.5,
-10
);
},
{
angle = 74.4;
pos = (
442.5,
-12
);
}
);
layerId = "5936EB7C-5C81-433B-ABAB-ADB37EE98828";
shapes = (
{
closed = 1;
nodes = (
(
590.5,
38,
o
),
(
603.5,
87,
o
),
(
631.5,
188,
c
),
(
558.5,
188,
l
),
(
544.5,
157,
o
),
(
534.5,
147,
o
),
(
479.5,
147,
cs
),
(
358.5,
147,
l
),
(
358.5,
157,
l
),
(
440.5,
196,
o
),
(
631.5,
277,
o
),
(
631.5,
406,
cs
),
(
631.5,
483,
o
),
(
547.5,
533,
o
),
(
419.5,
533,
cs
),
(
238.5,
533,
o
),
(
119.5,
444,
o
),
(
119.5,
342,
cs
),
(
119.5,
275,
o
),
(
158.5,
231,
o
),
(
252.5,
231,
cs
),
(
273.5,
231,
o
),
(
295.5,
234,
o
),
(
314.5,
239,
c
),
(
301.5,
303,
l
),
(
297.5,
302,
o
),
(
294.5,
302,
o
),
(
290.5,
302,
cs
),
(
267.5,
302,
o
),
(
249.5,
314,
o
),
(
249.5,
347,
cs
),
(
249.5,
397,
o
),
(
295.5,
437,
o
),
(
359.5,
437,
cs
),
(
409.5,
437,
o
),
(
441.5,
411,
o
),
(
441.5,
366,
cs
),
(
441.5,
230,
o
),
(
219.5,
140,
o
),
(
88.5,
71,
c
),
(
68.5,
0,
l
),
(
493.5,
0,
ls
),
(
529.5,
0,
o
),
(
571.5,
-1,
o
),
(
581.5,
-5,
c
)
);
}
);
width = 700;
},
{
associatedMasterId = "19651320-9895-44C9-9F41-285CE0F17596";
background = {
shapes = (
{
closed = 1;
nodes = (
(
162,
-14,
o
),
(
184,
10,
o
),
(
184,
40,
cs
),
(
184,
70,
o
),
(
167,
93,
o
),
(
167,
131,
cs
),
(
167,
153,
o
),
(
183,
166,
o
),
(
206,
166,
cs
),
(
299,
166,
o
),
(
352,
-14,
o
),
(
468,
-14,
cs
),
(
502,
-14,
o
),
(
528,
13,
o
),
(
566,
89,
cs
),
(
620,
196,
l
),
(
619,
196,
l
),
(
599,
158,
o
),
(
574,
146,
o
),
(
516,
146,
cs
),
(
443,
146,
o
),
(
343,
159,
o
),
(
194,
168,
c
),
(
194,
167,
l
),
(
302,
241,
o
),
(
614,
271,
o
),
(
614,
423,
cs
),
(
614,
492,
o
),
(
550,
533,
o
),
(
443,
533,
cs
),
(
294,
533,
o
),
(
169,
453,
o
),
(
169,
358,
cs
),
(
169,
311,
o
),
(
198,
283,
o
),
(
249,
283,
cs
),
(
307,
283,
o
),
(
356,
320,
o
),
(
388,
388,
c
),
(
387,
389,
l
),
(
367,
362,
o
),
(
344,
351,
o
),
(
316,
351,
cs
),
(
273,
351,
o
),
(
249,
376,
o
),
(
249,
419,
cs
),
(
249,
475,
o
),
(
287,
514,
o
),
(
343,
514,
cs
),
(
402,
514,
o
),
(
441,
473,
o
),
(
441,
411,
cs
),
(
441,
257,
o
),
(
80,
164,
o
),
(
80,
32,
cs
),
(
80,
5,
o
),
(
97,
-14,
o
),
(
129,
-14,
cs
)
);
}
);
};
guides = (
{
angle = 74.4;
pos = (
65,
-10
);
},
{
angle = 74.4;
pos = (
497,
-10
);
}
);
layerId = "E6A09FC1-C47E-4A7F-8490-8BC61709D3FA";
name = "17 Jan 22, 12:48";
shapes = (
{
closed = 1;
nodes = (
(
441,
253,
o
),
(
80,
184,
o
),
(
80,
51,
cs
),
(
80,
12,
o
),
(
110,
-14,
o
),
(
156,
-14,
cs
),
(
196,
-14,
o
),
(
224,
8,
o
),
(
224,
39,
cs
),
(
224,
82,
o
),
(
162,
103,
o
),
(
162,
147,
cs
),
(
162,
161,
o
),
(
168,
167,
o
),
(
184,
167,
cs
),
(
277,
167,
o
),
(
349,
-14,
o
),
(
462,
-14,
cs
),
(
502,
-14,
o
),
(
526,
10,
o
),
(
566,
89,
cs
),
(
620,
196,
l
),
(
619,
196,
l
),
(
599,
157,
o
),
(
575,
146,
o
),
(
511,
146,
cs
),
(
443,
146,
o
),
(
327,
159,
o
),
(
174,
168,
c
),
(
174,
167,
l
),
(
288,
241,
o
),
(
614,
270,
o
),
(
614,
423,
cs
),
(
614,
492,
o
),
(
550,
533,
o
),
(
443,
533,
cs
),
(
294,
533,
o
),
(
169,
453,
o
),
(
169,
358,
cs
),
(
169,
311,
o
),
(
198,
283,
o
),
(
249,
283,
cs
),
(
307,
283,
o
),
(
356,
320,
o
),
(
388,
388,
c
),
(
387,
389,
l
),
(
367,
362,
o
),
(
344,
351,
o
),
(
316,
351,
cs
),
(
273,
351,
o
),
(
249,
376,
o
),
(
249,
419,
cs
),
(
249,
475,
o
),
(
287,
514,
o
),
(
343,
514,
cs
),
(
402,
514,
o
),
(
441,
479,
o
),
(
441,
425,
cs
)
);
}
);
width = 700;
},
{
associatedMasterId = "19651320-9895-44C9-9F41-285CE0F17596";
background = {
shapes = (
{
closed = 1;
nodes = (
(
502,
-14,
o
),
(
528,
13,
o
),
(
566,
89,
cs
),
(
620,
196,
l
),
(
619,
196,
l
),
(
599,
158,
o
),
(
574,
146,
o
),
(
516,
146,
cs
),
(
444,
146,
o
),
(
345,
159,
o
),
(
197,
168,
c
),
(
197,
167,
l
),
(
306,
242,
o
),
(
614,
269,
o
),
(
614,
425,
cs
),
(
614,
492,
o
),
(
550,
533,
o
),
(
443,
533,
cs
),
(
294,
533,
o
),
(
169,
453,
o
),
(
169,
358,
cs
),
(
169,
313,
o
),
(
199,
286,
o
),
(
248,
286,
cs
),
(
279,
286,
o
),
(
305,
296,
o
),
(
326,
316,
c
),
(
325,
317,
l
),
(
304,
297,
o
),
(
278,
287,
o
),
(
248,
287,
cs
),
(
200,
287,
o
),
(
170,
314,
o
),
(
170,
358,
cs
),
(
170,
427,
o
),
(
254,
491,
o
),
(
346,
491,
cs
),
(
408,
491,
o
),
(
441,
462,
o
),
(
441,
406,
cs
),
(
441,
235,
o
),
(
133,
226,
o
),
(
65,
-10,
c
),
(
66,
-10,
l
),
(
99,
100,
o
),
(
186,
164,
o
),
(
226,
164,
cs
),
(
312,
164,
o
),
(
361,
-14,
o
),
(
468,
-14,
cs
)
);
}
);
};
guides = (
{
angle = 74.4;
pos = (
65,
-10
);
},
{
angle = 74.4;
pos = (
497,
-10
);
}
);
layerId = "FF57F05D-8DAF-40F2-AB0C-B4DADFACD295";
name = "17 Jan 22, 12:54";
shapes = (
{
closed = 1;
nodes = (
(
196,
-14,
o
),
(
224,
8,
o
),
(
224,
39,
cs
),
(
224,
82,
o
),
(
162,
103,
o
),
(
162,
147,
cs
),
(
162,
161,
o
),
(
168,
167,
o
),
(
184,
167,
cs
),
(
277,
167,
o
),
(
349,
-14,
o
),
(
462,
-14,
cs
),
(
502,
-14,
o
),
(
526,
10,
o
),
(
566,
89,
cs
),
(
620,
196,
l
),
(
619,
196,
l
),
(
599,
157,
o
),
(
575,
146,
o
),
(
511,
146,
cs
),
(
443,
146,
o
),
(
327,
159,
o
),
(
174,
168,
c
),
(
174,
167,
l
),
(
288,
241,
o
),
(
614,
270,
o
),
(
614,
423,
cs
),
(
614,
491,
o
),
(
550,
533,
o
),
(
444,
533,
cs
),
(
296,
533,
o
),
(
169,
452,
o
),
(
169,
357,
cs
),
(
169,
310,
o
),
(
202,
277,
o
),
(
250,
277,
cs
),
(
288,
277,
o
),
(
313,
299,
o
),
(
313,
331,
cs
),
(
313,
382,
o
),
(
247,
407,
o
),
(
247,
449,
cs
),
(
247,
483,
o
),
(
290,
510,
o
),
(
344,
510,
cs
),
(
406,
510,
o
),
(
441,
479,
o
),
(
441,
425,
cs
),
(
441,
253,
o
),
(
80,
184,
o
),
(
80,
51,
cs
),
(
80,
12,
o
),
(
110,
-14,
o
),
(
156,
-14,
cs
)
);
}
);
width = 700;
}
);
metricLeft = two.lf;
metricRight = two.lf;
unicode = 50;
userData = {
KernOnName = two;
};
}
{
color = 4;
glyphname = four;
kernLeft = KO_four;
kernRight = KO_four;
layers = (
{
background = {
guides = (
{
angle = 74.4;
pos = (
243,
-141
);
},
{
pos = (
-143,
54
);
}
);
shapes = (
{
closed = 1;
nodes = (
(
569,
34,
l
),
(
588,
104,
l
),
(
154,
104,
l
),
(
197,
94,
l
),
(
279,
187,
o
),
(
315,
228,
o
),
(
344,
264,
cs
),
(
428,
366,
o
),
(
460,
408,
o
),
(
460,
450,
cs
),
(
460,
497,
o
),
(
432,
528,
o
),
(
390,
528,
cs
),
(
352,
528,
o
),
(
328,
503,
o
),
(
328,
463,
cs
),
(
328,
442,
o
),
(
335,
425,
o
),
(
335,
392,
cs
),
(
335,
353,
o
),
(
317,
319,
o
),
(
266,
255,
cs
),
(
211,
188,
o
),
(
180,
152,
o
),
(
139,
105,
c
),
(
120,
34,
l
)
);
},
{
closed = 1;
nodes = (
(
411,
-141,
l
),
(
529,
281,
l
),
(
500,
267,
o
),
(
467,
256,
o
),
(
433,
249,
c
),
(
324,
-141,
l
)
);
}
);
};
guides = (
{
angle = 74.4;
pos = (
412,
-141
);
},
{
pos = (
26,
54
);
}
);
layerId = "8A8107C8-C076-4746-AE01-7D15750BBEFC";
shapes = (
{
closed = 1;
nodes = (
(
575,
54,
l
),
(
575,
55,
l
),
(
125,
55,
l
),
(
126,
54,
l
),
(
210,
146,
o
),
(
270,
214,
o
),
(
315,
266,
cs
),
(
396,
358,
o
),
(
431,
420,
o
),
(
431,
470,
cs
),
(
431,
505,
o
),
(
412,
528,
o
),
(
383,
528,
cs
),
(
355,
528,
o
),
(
339,
509,
o
),
(
339,
476,
cs
),
(
339,
455,
o
),
(
346,
432,
o
),
(
346,
395,
cs
),
(
346,
325,
o
),
(
332,
288,
o
),
(
283,
232,
cs
),
(
240,
182,
o
),
(
175,
109,
o
),
(
125,
55,
c
),
(
125,
54,
l
)
);
},
{
closed = 1;
nodes = (
(
412,
-141,
l
),
(
530,
281,
l
),
(
508,
263,
o
),
(
475,
252,
o
),
(
434,
249,
c
),
(
325,
-141,
l
)
);
}
);
width = 700;
},
{
background = {
guides = (
{
angle = 74.4;
pos = (
242,
-141
);
},
{
pos = (
-144,
54
);
},
{
angle = 74.4;
pos = (
351,
-141
);
}
);
shapes = (
{
closed = 1;
nodes = (
(
565,
34,
l
),
(
584,
104,
l
),
(
150,
104,
l
),
(
201,
94,
l
),
(
305,
183,
o
),
(
352,
227,
o
),
(
389,
267,
cs
),
(
473,
358,
o
),
(
496,
405,
o
),
(
496,
450,
cs
),
(
496,
497,
o
),
(
468,
528,
o
),
(
426,
528,
cs
),
(
388,
528,
o
),
(
364,
503,
o
),
(
364,
463,
cs
),
(
364,
442,
o
),
(
371,
425,
o
),
(
371,
392,
cs
),
(
371,
343,
o
),
(
354,
302,
o
),
(
290,
242,
cs
),
(
236,
191,
o
),
(
195,
155,
o
),
(
135,
105,
c
),
(
116,
34,
l
)
);
},
{
closed = 1;
nodes = (
(
407,
-141,
l
),
(
525,
281,
l
),
(
496,
267,
o
),
(
463,
256,
o
),
(
429,
249,
c
),
(
320,
-141,
l
)
);
}
);
};
guides = (
{
angle = 74.4;
pos = (
407,
-141
);
},
{
pos = (
21,
54
);
},
{
angle = 74.4;
pos = (
516,
-141
);
}
);
layerId = "4637ED20-F3CC-4D04-82BF-886AF47DA6B7";
shapes = (
{
closed = 1;
nodes = (
(
565,
34,
l
),
(
584,
104,
l
),
(
150,
104,
l
),
(
203,
94,
l
),
(
285,
187,
o
),
(
321,
228,
o
),
(
350,
264,
cs
),
(
431,
362,
o
),
(
456,
408,
o
),
(
456,
457,
cs
),
(
456,
497,
o
),
(
428,
528,
o
),
(
386,
528,
cs
),
(
348,
528,
o
),
(
324,
503,
o
),
(
324,
463,
cs
),
(
324,
442,
o
),
(
331,
425,
o
),
(
331,
392,
cs
),
(
331,
353,
o
),
(
313,
319,
o
),
(
262,
255,
cs
),
(
207,
188,
o
),
(
176,
152,
o
),
(
135,
105,
c
),
(
116,
34,
l
)
);
},
{
closed = 1;
nodes = (
(
407,
-141,
l
),
(
525,
281,
l
),
(
496,
267,
o
),
(
463,
256,
o
),
(
429,
249,
c
),
(
320,
-141,
l
)
);
}
);
width = 700;
},
{
background = {
guides = (
{
angle = 74.4;
pos = (
304,
-141
);
},
{
pos = (
-171,
54
);
}
);
shapes = (
{
closed = 1;
nodes = (
(
614.5,
54,
l
),
(
614.5,
55,
l
),
(
85.5,
55,
l
),
(
86.5,
54,
l
),
(
115.5,
77,
o
),
(
159.5,
110,
o
),
(
231.5,
180,
cs
),
(
374.5,
319,
o
),
(
430.5,
400,
o
),
(
430.5,
456,
cs
),
(
430.5,
501,
o
),
(
396.5,
533,
o
),
(
350.5,
533,
cs
),
(
297.5,
533,
o
),
(
258.5,
492,
o
),
(
258.5,
438,
cs
),
(
258.5,
398,
o
),
(
280.5,
367,
o
),
(
280.5,
317,
cs
),
(
280.5,
266,
o
),
(
266.5,
215,
o
),
(
193.5,
146,
cs
),
(
156.5,
111,
o
),
(
119.5,
82,
o
),
(
85.5,
55,
c
),
(
85.5,
54,
l
)
);
},
{
closed = 1;
nodes = (
(
453.5,
-141,
l
),
(
574.5,
294,
l
),
(
523.5,
270,
o
),
(
464.5,
259,
o
),
(
376.5,
256,
c
),
(
266.5,
-141,
l
)
);
}
);
};
guides = (
{
angle = 74.4;
pos = (
453.5,
-141
);
},
{
pos = (
-21.5,
54
);
}
);
layerId = "19651320-9895-44C9-9F41-285CE0F17596";
shapes = (
{
closed = 1;
nodes = (
(
614.5,
54,
l
),
(
614.5,
55,
l
),
(
85.5,
55,
l
),
(
86.5,
54,
l
),
(
113.5,
82,
o
),
(
148.5,
116,
o
),
(
211.5,
181,
cs
),
(
350.5,
324,
o
),
(
410.5,
400,
o
),
(
410.5,
456,
cs
),
(
410.5,
501,
o
),
(
383.5,
533,
o
),
(
330.5,
533,
cs
),
(
277.5,
533,
o
),
(
238.5,
492,
o
),
(
238.5,
438,
cs
),
(
238.5,
398,
o
),
(
260.5,
367,
o
),
(
260.5,
317,
cs
),
(
260.5,
266,
o
),
(
244.5,
217,
o
),
(
174.5,
145,
cs
),
(
145.5,
115,
o
),
(
113.5,
83,
o
),
(
85.5,
55,
c
),
(
85.5,
54,
l
)
);
},
{
closed = 1;
nodes = (
(
453.5,
-141,
l
),
(
574.5,
294,
l
),
(
523.5,
270,
o
),
(
464.5,
259,
o
),
(
376.5,
256,
c
),
(
266.5,
-141,
l
)
);
}
);
width = 700;
},
{
background = {
guides = (
{
angle = 74.4;
pos = (
242,
-141
);
},
{
pos = (
-144,
54
);
},
{
angle = 74.4;
pos = (
351,
-141
);
}
);
shapes = (
{
closed = 1;
nodes = (
(
619,
54,
l
),
(
619,
55,
l
),
(
90,
55,
l
),
(
91,
54,
l
),
(
118,
82,
o
),
(
153,
116,
o
),
(
216,
181,
cs
),
(
355,
324,
o
),
(
415,
400,
o
),
(
415,
456,
cs
),
(
415,
501,
o
),
(
388,
533,
o
),
(
335,
533,
cs
),
(
282,
533,
o
),
(
243,
492,
o
),
(
243,
438,
cs
),
(
243,
398,
o
),
(
265,
367,
o
),
(
265,
317,
cs
),
(
265,
266,
o
),
(
249,
217,
o
),
(
179,
145,
cs
),
(
150,
115,
o
),
(
118,
83,
o
),
(
90,
55,
c
),
(
90,
54,
l
)
);
},
{
closed = 1;
nodes = (
(
458,
-141,
l
),
(
579,
294,
l
),
(
528,
270,
o
),
(
469,
259,
o
),
(
381,
256,
c
),
(
271,
-141,
l
)
);
}
);
};
guides = (
{
angle = 74.4;
pos = (
357,
-141
);
},
{
pos = (
-29,
54
);
},
{
angle = 74.4;
pos = (
466,
-141
);
}
);
layerId = "5936EB7C-5C81-433B-ABAB-ADB37EE98828";
shapes = (
{
closed = 1;
nodes = (
(
615,
34,
l
),
(
634,
104,
l
),
(
100,
104,
l
),
(
155,
94,
l
),
(
237,
183,
o
),
(
273,
227,
o
),
(
304,
264,
cs
),
(
390,
367,
o
),
(
406,
410,
o
),
(
406,
452,
cs
),
(
406,
502,
o
),
(
372,
533,
o
),
(
319,
533,
cs
),
(
263,
533,
o
),
(
224,
499,
o
),
(
224,
448,
cs
),
(
224,
406,
o
),
(
251,
375,
o
),
(
251,
330,
cs
),
(
251,
300,
o
),
(
240,
280,
o
),
(
194,
227,
cs
),
(
159,
186,
o
),
(
100,
121,
o
),
(
85,
105,
c
),
(
66,
34,
l
)
);
},
{
closed = 1;
nodes = (
(
457,
-141,
l
),
(
579,
294,
l
),
(
528,
270,
o
),
(
469,
259,
o
),
(
381,
256,
c
),
(
270,
-141,
l
)
);
}
);
width = 700;
}
);
metricLeft = four.lf;
metricRight = four.lf;
unicode = 52;
userData = {
KernOnName = four;
};
}
{
color = 4;
glyphname = nine;
kernLeft = KO_nine;
kernRight = KO_nine;
layers = (
{
background = {
shapes = (
{
closed = 1;
nodes = (
(
415,
-148,
o
),
(
602,
79,
o
),
(
602,
314,
cs
),
(
602,
453,
o
),
(
544,
530,
o
),
(
438,
530,
cs
),
(
297,
530,
o
),
(
171,
396,
o
),
(
171,
247,
cs
),
(
171,
151,
o
),
(
223,
96,
o
),
(
316,
96,
cs
),
(
383,
96,
o
),
(
440,
124,
o
),
(
499,
187,
c
),
(
499,
188,
l
),
(
446,
133,
o
),
(
402,
109,
o
),
(
352,
109,
cs
),
(
291,
109,
o
),
(
259,
148,
o
),
(
259,
225,
cs
),
(
259,
367,
o
),
(
350,
528,
o
),
(
431,
528,
cs
),
(
485,
528,
o
),
(
516,
466,
o
),
(
516,
359,
cs
),
(
516,
110,
o
),
(
361,
-137,
o
),
(
204,
-137,
cs
),
(
137,
-137,
o
),
(
101,
-100,
o
),
(
101,
-32,
cs
),
(
101,
-16,
o
),
(
104,
4,
o
),
(
111,
27,
c
),
(
110,
27,
l
),
(
102,
3,
o
),
(
98,
-19,
o
),
(
98,
-38,
cs
),
(
98,
-111,
o
),
(
140,
-148,
o
),
(
220,
-148,
cs
)
);
}
);
};
guides = (
{
angle = 74.4;
pos = (
34,
-231
);
},
{
pos = (
188,
-148
);
},
{
angle = 74.4;
pos = (
27,
-231
);
}
);
layerId = "8A8107C8-C076-4746-AE01-7D15750BBEFC";
shapes = (
{
closed = 1;
nodes = (
(
415,
-148,
o
),
(
602,
79,
o
),
(
602,
314,
cs
),
(
602,
453,
o
),
(
544,
530,
o
),
(
438,
530,
cs
),
(
297,
530,
o
),
(
171,
396,
o
),
(
171,
247,
cs
),
(
171,
151,
o
),
(
223,
96,
o
),
(
316,
96,
cs
),
(
362,
96,
o
),
(
403,
109,
o
),
(
444,
138,
c
),
(
443,
139,
l
),
(
413,
119,
o
),
(
384,
109,
o
),
(
352,
109,
cs
),
(
291,
109,
o
),
(
259,
148,
o
),
(
259,
225,
cs
),
(
259,
367,
o
),
(
350,
528,
o
),
(
431,
528,
cs
),
(
485,
528,
o
),
(
516,
466,
o
),
(
516,
359,
cs
),
(
516,
110,
o
),
(
361,
-137,
o
),
(
204,
-137,
cs
),
(
137,
-137,
o
),
(
101,
-100,
o
),
(
101,
-32,
cs
),
(
101,
-16,
o
),
(
104,
4,
o
),
(
111,
27,
c
),
(
110,
27,
l
),
(
102,
3,
o
),
(
98,
-19,
o
),
(
98,
-38,
cs
),
(
98,
-111,
o
),
(
140,
-148,
o
),
(
220,
-148,
cs
)
);
}
);
width = 700;
},
{
background = {
shapes = (
{
closed = 1;
nodes = (
(
429.5,
-148,
o
),
(
603.5,
66,
o
),
(
603.5,
302,
cs
),
(
603.5,
450,
o
),
(
541.5,
528,
o
),
(
423.5,
528,
cs
),
(
282.5,
528,
o
),
(
174.5,
410,
o
),
(
174.5,
255,
cs
),
(
174.5,
150,
o
),
(
228.5,
94,
o
),
(
327.5,
94,
cs
),
(
398.5,
94,
o
),
(
453.5,
123,
o
),
(
506.5,
188,
c
),
(
523.5,
242,
l
),
(
471.5,
183,
o
),
(
427.5,
159,
o
),
(
370.5,
159,
cs
),
(
299.5,
159,
o
),
(
264.5,
196,
o
),
(
264.5,
270,
cs
),
(
264.5,
377,
o
),
(
326.5,
458,
o
),
(
408.5,
458,
cs
),
(
479.5,
458,
o
),
(
516.5,
403,
o
),
(
516.5,
299,
cs
),
(
516.5,
111,
o
),
(
386.5,
-77,
o
),
(
256.5,
-77,
cs
),
(
202.5,
-77,
o
),
(
174.5,
-48,
o
),
(
174.5,
6,
cs
),
(
174.5,
11,
o
),
(
174.5,
17,
o
),
(
175.5,
25,
c
),
(
102.5,
25,
l
),
(
98.5,
10,
o
),
(
96.5,
-4,
o
),
(
96.5,
-16,
cs
),
(
96.5,
-100,
o
),
(
148.5,
-148,
o
),
(
239.5,
-148,
cs
)
);
}
);
};
guides = (
{
pos = (
197.5,
-148
);
},
{
angle = 74.4;
pos = (
25.5,
-231
);
},
{
angle = 74.4;
pos = (
28.5,
-231
);
}
);
layerId = "4637ED20-F3CC-4D04-82BF-886AF47DA6B7";
shapes = (
{
closed = 1;
nodes = (
(
429.5,
-148,
o
),
(
603.5,
66,
o
),
(
603.5,
302,
cs
),
(
603.5,
450,
o
),
(
538.5,
528,
o
),
(
413.5,
528,
cs
),
(
278.5,
528,
o
),
(
174.5,
410,
o
),
(
174.5,
255,
cs
),
(
174.5,
150,
o
),
(
228.5,
94,
o
),
(
327.5,
94,
cs
),
(
374.5,
94,
o
),
(
415.5,
107,
o
),
(
452.5,
135,
c
),
(
438.5,
173,
l
),
(
417.5,
163,
o
),
(
395.5,
159,
o
),
(
370.5,
159,
cs
),
(
298.5,
159,
o
),
(
263.5,
196,
o
),
(
263.5,
270,
cs
),
(
263.5,
377,
o
),
(
321.5,
458,
o
),
(
398.5,
458,
cs
),
(
476.5,
458,
o
),
(
516.5,
403,
o
),
(
516.5,
299,
cs
),
(
516.5,
111,
o
),
(
386.5,
-77,
o
),
(
256.5,
-77,
cs
),
(
202.5,
-77,
o
),
(
174.5,
-48,
o
),
(
174.5,
6,
cs
),
(
174.5,
11,
o
),
(
174.5,
17,
o
),
(
175.5,
25,
c
),
(
102.5,
25,
l
),
(
98.5,
10,
o
),
(
96.5,
-4,
o
),
(
96.5,
-16,
cs
),
(
96.5,
-100,
o
),
(
148.5,
-148,
o
),
(
239.5,
-148,
cs
)
);
}
);
width = 700;
},
{
associatedMasterId = "8A8107C8-C076-4746-AE01-7D15750BBEFC";
background = {
shapes = (
{
closed = 1;
nodes = (
(
407.5,
-148,
o
),
(
595.5,
74,
o
),
(
595.5,
296,
cs
),
(
595.5,
444,
o
),
(
528.5,
528,
o
),
(
412.5,
528,
cs
),
(
278.5,
528,
o
),
(
171.5,
415,
o
),
(
171.5,
272,
cs
),
(
171.5,
164,
o
),
(
234.5,
97,
o
),
(
335.5,
97,
cs
),
(
398.5,
97,
o
),
(
453.5,
124,
o
),
(
495.5,
175,
c
),
(
495.5,
176,
l
),
(
457.5,
132,
o
),
(
415.5,
110,
o
),
(
369.5,
110,
cs
),
(
297.5,
110,
o
),
(
261.5,
161,
o
),
(
261.5,
263,
cs
),
(
261.5,
403,
o
),
(
330.5,
527,
o
),
(
409.5,
527,
cs
),
(
471.5,
527,
o
),
(
508.5,
448,
o
),
(
508.5,
318,
cs
),
(
508.5,
83,
o
),
(
355.5,
-143,
o
),
(
196.5,
-143,
cs
),
(
162.5,
-143,
o
),
(
145.5,
-132,
o
),
(
145.5,
-111,
cs
),
(
145.5,
-66,
o
),
(
221.5,
-48,
o
),
(
221.5,
0,
cs
),
(
221.5,
20,
o
),
(
207.5,
32,
o
),
(
184.5,
32,
cs
),
(
141.5,
32,
o
),
(
104.5,
-11,
o
),
(
104.5,
-59,
cs
),
(
104.5,
-114,
o
),
(
149.5,
-148,
o
),
(
221.5,
-148,
cs
)
);
}
);
};
guides = (
{
angle = 74.4;
pos = (
68.5,
-174
);
},
{
pos = (
205.5,
-148
);
}
);
layerId = "25B392A5-4769-41D0-A6F5-A502E6258349";
name = "ball terminal";
shapes = (
{
closed = 1;
nodes = (
(
407.5,
-148,
o
),
(
595.5,
74,
o
),
(
595.5,
296,
cs
),
(
595.5,
444,
o
),
(
528.5,
528,
o
),
(
412.5,
528,
cs
),
(
278.5,
528,
o
),
(
171.5,
415,
o
),
(
171.5,
272,
cs
),
(
171.5,
164,
o
),
(
234.5,
97,
o
),
(
335.5,
97,
cs
),
(
398.5,
97,
o
),
(
453.5,
124,
o
),
(
495.5,
175,
c
),
(
495.5,
176,
l
),
(
457.5,
132,
o
),
(
415.5,
110,
o
),
(
369.5,
110,
cs
),
(
297.5,
110,
o
),
(
261.5,
161,
o
),
(
261.5,
263,
cs
),
(
261.5,
403,
o
),
(
330.5,
527,
o
),
(
409.5,
527,
cs
),
(
471.5,
527,
o
),
(
508.5,
448,
o
),
(
508.5,
318,
cs
),
(
508.5,
83,
o
),
(
355.5,
-143,
o
),
(
196.5,
-143,
cs
),
(
162.5,
-143,
o
),
(
145.5,
-132,
o
),
(
145.5,
-111,
cs
),
(
145.5,
-66,
o
),
(
221.5,
-48,
o
),
(
221.5,
0,
cs
),
(
221.5,
20,
o
),
(
207.5,
32,
o
),
(
184.5,
32,
cs
),
(
141.5,
32,
o
),
(
104.5,
-11,
o
),
(
104.5,
-59,
cs
),
(
104.5,
-114,
o
),
(
149.5,
-148,
o
),
(
221.5,
-148,
cs
)
);
}
);
width = 700;
},
{
associatedMasterId = "4637ED20-F3CC-4D04-82BF-886AF47DA6B7";
background = {
shapes = (
{
closed = 1;
nodes = (
(
413,
-148,
o
),
(
591,
75,
o
),
(
591,
298,
cs
),
(
591,
441,
o
),
(
518,
528,
o
),
(
398,
528,
cs
),
(
266,
528,
o
),
(
168,
424,
o
),
(
168,
283,
cs
),
(
168,
169,
o
),
(
232,
97,
o
),
(
334,
97,
cs
),
(
407,
97,
o
),
(
472,
134,
o
),
(
518,
203,
c
),
(
522,
258,
l
),
(
475,
196,
o
),
(
425,
167,
o
),
(
364,
167,
cs
),
(
297,
167,
o
),
(
258,
214,
o
),
(
258,
295,
cs
),
(
258,
388,
o
),
(
315,
458,
o
),
(
391,
458,
cs
),
(
462,
458,
o
),
(
504,
397,
o
),
(
504,
295,
cs
),
(
504,
114,
o
),
(
368,
-81,
o
),
(
241,
-81,
cs
),
(
217,
-81,
o
),
(
207,
-74,
o
),
(
207,
-59,
cs
),
(
207,
-28,
o
),
(
253,
-16,
o
),
(
253,
26,
cs
),
(
253,
55,
o
),
(
231,
76,
o
),
(
199,
76,
cs
),
(
149,
76,
o
),
(
109,
26,
o
),
(
109,
-37,
cs
),
(
109,
-106,
o
),
(
157,
-148,
o
),
(
235,
-148,
cs
)
);
}
);
};
guides = (
{
angle = 74.4;
pos = (
65,
-174
);
},
{
pos = (
198,
-148
);
}
);
layerId = "93C7C8FE-D9BE-4D71-98CE-F144262D5761";
name = "ball terminal";
shapes = (
{
closed = 1;
nodes = (
(
413,
-148,
o
),
(
591,
75,
o
),
(
591,
298,
cs
),
(
591,
441,
o
),
(
518,
528,
o
),
(
398,
528,
cs
),
(
266,
528,
o
),
(
168,
424,
o
),
(
168,
283,
cs
),
(
168,
169,
o
),
(
232,
97,
o
),
(
334,
97,
cs
),
(
407,
97,
o
),
(
472,
134,
o
),
(
518,
203,
c
),
(
522,
258,
l
),
(
475,
196,
o
),
(
425,
167,
o
),
(
364,
167,
cs
),
(
297,
167,
o
),
(
258,
214,
o
),
(
258,
295,
cs
),
(
258,
388,
o
),
(
315,
458,
o
),
(
391,
458,
cs
),
(
462,
458,
o
),
(
504,
397,
o
),
(
504,
295,
cs
),
(
504,
114,
o
),
(
368,
-81,
o
),
(
241,
-81,
cs
),
(
217,
-81,
o
),
(
207,
-74,
o
),
(
207,
-59,
cs
),
(
207,
-28,
o
),
(
253,
-16,
o
),
(
253,
26,
cs
),
(
253,
55,
o
),
(
231,
76,
o
),
(
199,
76,
cs
),
(
149,
76,
o
),
(
109,
26,
o
),
(
109,
-37,
cs
),
(
109,
-106,
o
),
(
157,
-148,
o
),
(
235,
-148,
cs
)
);
}
);
width = 700;
},
{
background = {
shapes = (
{
closed = 1;
nodes = (
(
437,
-148,
o
),
(
634,
56,
o
),
(
634,
289,
cs
),
(
634,
448,
o
),
(
559,
533,
o
),
(
418,
533,
cs
),
(
248,
533,
o
),
(
108,
410,
o
),
(
108,
259,
cs
),
(
108,
158,
o
),
(
175,
94,
o
),
(
281,
94,
cs
),
(
339,
94,
o
),
(
392,
112,
o
),
(
432,
149,
c
),
(
431,
150,
l
),
(
400,
124,
o
),
(
374,
111,
o
),
(
352,
111,
cs
),
(
314,
111,
o
),
(
295,
152,
o
),
(
295,
236,
cs
),
(
295,
384,
o
),
(
353,
531,
o
),
(
412,
531,
cs
),
(
441,
531,
o
),
(
453,
494,
o
),
(
453,
409,
cs
),
(
453,
133,
o
),
(
310,
-127,
o
),
(
159,
-127,
cs
),
(
102,
-127,
o
),
(
68,
-86,
o
),
(
68,
-20,
cs
),
(
68,
-6,
o
),
(
70,
10,
o
),
(
74,
30,
c
),
(
73,
30,
l
),
(
68,
9,
o
),
(
66,
-9,
o
),
(
66,
-24,
cs
),
(
66,
-105,
o
),
(
116,
-148,
o
),
(
213,
-148,
cs
)
);
}
);
};
guides = (
{
angle = 74.4;
pos = (
-39,
-231
);
},
{
pos = (
143,
-148
);
},
{
angle = 74.4;
pos = (
-1,
-231
);
}
);
layerId = "19651320-9895-44C9-9F41-285CE0F17596";
shapes = (
{
closed = 1;
nodes = (
(
437,
-148,
o
),
(
634,
56,
o
),
(
634,
289,
cs
),
(
634,
448,
o
),
(
559,
533,
o
),
(
418,
533,
cs
),
(
248,
533,
o
),
(
108,
410,
o
),
(
108,
259,
cs
),
(
108,
158,
o
),
(
175,
94,
o
),
(
281,
94,
cs
),
(
318,
94,
o
),
(
352,
101,
o
),
(
383,
116,
c
),
(
382,
117,
l
),
(
371,
112,
o
),
(
361,
110,
o
),
(
352,
110,
cs
),
(
314,
110,
o
),
(
295,
151,
o
),
(
295,
236,
cs
),
(
295,
384,
o
),
(
353,
531,
o
),
(
412,
531,
cs
),
(
441,
531,
o
),
(
453,
494,
o
),
(
453,
409,
cs
),
(
453,
133,
o
),
(
310,
-127,
o
),
(
159,
-127,
cs
),
(
102,
-127,
o
),
(
68,
-86,
o
),
(
68,
-20,
cs
),
(
68,
-6,
o
),
(
70,
10,
o
),
(
74,
30,
c
),
(
73,
30,
l
),
(
68,
9,
o
),
(
66,
-9,
o
),
(
66,
-24,
cs
),
(
66,
-105,
o
),
(
116,
-148,
o
),
(
213,
-148,
cs
)
);
}
);
width = 700;
},
{
associatedMasterId = "19651320-9895-44C9-9F41-285CE0F17596";
background = {
shapes = (
{
closed = 1;
nodes = (
(
434,
-148,
o
),
(
645,
68,
o
),
(
645,
298,
cs
),
(
645,
447,
o
),
(
557,
533,
o
),
(
406,
533,
cs
),
(
241,
533,
o
),
(
118,
431,
o
),
(
118,
293,
cs
),
(
118,
184,
o
),
(
192,
116,
o
),
(
311,
116,
cs
),
(
385,
116,
o
),
(
441,
143,
o
),
(
472,
193,
c
),
(
466,
206,
l
),
(
440,
171,
o
),
(
409,
152,
o
),
(
377,
152,
cs
),
(
327,
152,
o
),
(
298,
198,
o
),
(
298,
279,
cs
),
(
298,
392,
o
),
(
355,
513,
o
),
(
409,
513,
cs
),
(
446,
513,
o
),
(
468,
457,
o
),
(
468,
364,
cs
),
(
468,
126,
o
),
(
320,
-132,
o
),
(
184,
-132,
cs
),
(
157,
-132,
o
),
(
144,
-122,
o
),
(
144,
-102,
cs
),
(
144,
-52,
o
),
(
229,
-35,
o
),
(
229,
24,
cs
),
(
229,
55,
o
),
(
205,
75,
o
),
(
169,
75,
cs
),
(
108,
75,
o
),
(
55,
20,
o
),
(
55,
-43,
cs
),
(
55,
-108,
o
),
(
114,
-148,
o
),
(
210,
-148,
cs
)
);
}
);
};
guides = (
{
angle = 74.4;
pos = (
-4,
-239
);
},
{
pos = (
165,
-148
);
}
);
layerId = "4EC458C3-70DA-45A1-A261-CEB87238EF23";
name = "ball terminal";
shapes = (
{
closed = 1;
nodes = (
(
434,
-148,
o
),
(
645,
68,
o
),
(
645,
298,
cs
),
(
645,
447,
o
),
(
557,
533,
o
),
(
406,
533,
cs
),
(
241,
533,
o
),
(
118,
431,
o
),
(
118,
293,
cs
),
(
118,
184,
o
),
(
192,
116,
o
),
(
311,
116,
cs
),
(
385,
116,
o
),
(
441,
143,
o
),
(
472,
193,
c
),
(
466,
206,
l
),
(
440,
171,
o
),
(
409,
152,
o
),
(
377,
152,
cs
),
(
327,
152,
o
),
(
298,
198,
o
),
(
298,
279,
cs
),
(
298,
392,
o
),
(
355,
513,
o
),
(
409,
513,
cs
),
(
446,
513,
o
),
(
468,
457,
o
),
(
468,
364,
cs
),
(
468,
126,
o
),
(
320,
-132,
o
),
(
184,
-132,
cs
),
(
157,
-132,
o
),
(
144,
-122,
o
),
(
144,
-102,
cs
),
(
144,
-52,
o
),
(
229,
-35,
o
),
(
229,
24,
cs
),
(
229,
55,
o
),
(
205,
75,
o
),
(
169,
75,
cs
),
(
108,
75,
o
),
(
55,
20,
o
),
(
55,
-43,
cs
),
(
55,
-108,
o
),
(
114,
-148,
o
),
(
210,
-148,
cs
)
);
}
);
width = 700;
},
{
background = {
shapes = (
{
closed = 1;
nodes = (
(
445,
-148,
o
),
(
628,
44,
o
),
(
628,
261,
cs
),
(
628,
427,
o
),
(
535,
533,
o
),
(
388,
533,
cs
),
(
230,
533,
o
),
(
103,
411,
o
),
(
103,
261,
cs
),
(
103,
157,
o
),
(
167,
94,
o
),
(
274,
94,
cs
),
(
342,
94,
o
),
(
400,
119,
o
),
(
444,
168,
c
),
(
462,
242,
l
),
(
426,
187,
o
),
(
391,
159,
o
),
(
358,
159,
cs
),
(
318,
159,
o
),
(
293,
212,
o
),
(
295,
292,
cs
),
(
299,
387,
o
),
(
338,
463,
o
),
(
383,
463,
cs
),
(
422,
463,
o
),
(
441,
417,
o
),
(
441,
324,
cs
),
(
441,
108,
o
),
(
343,
-77,
o
),
(
228,
-77,
cs
),
(
176,
-77,
o
),
(
148,
-47,
o
),
(
148,
6,
cs
),
(
148,
13,
o
),
(
148,
20,
o
),
(
149,
30,
c
),
(
78,
30,
l
),
(
74,
13,
o
),
(
72,
-2,
o
),
(
72,
-15,
cs
),
(
72,
-99,
o
),
(
133,
-148,
o
),
(
238,
-148,
cs
)
);
}
);
};
guides = (
{
angle = 74.4;
pos = (
-45,
-231
);
},
{
pos = (
172,
-148
);
},
{
angle = 74.4;
pos = (
3,
-231
);
}
);
layerId = "5936EB7C-5C81-433B-ABAB-ADB37EE98828";
shapes = (
{
closed = 1;
nodes = (
(
445,
-148,
o
),
(
628,
44,
o
),
(
628,
261,
cs
),
(
628,
427,
o
),
(
535,
533,
o
),
(
388,
533,
cs
),
(
230,
533,
o
),
(
103,
411,
o
),
(
103,
261,
cs
),
(
103,
157,
o
),
(
167,
94,
o
),
(
274,
94,
cs
),
(
315,
94,
o
),
(
353,
103,
o
),
(
386,
121,
c
),
(
376,
162,
l
),
(
370,
160,
o
),
(
364,
159,
o
),
(
358,
159,
cs
),
(
318,
159,
o
),
(
293,
212,
o
),
(
295,
292,
cs
),
(
299,
387,
o
),
(
338,
463,
o
),
(
383,
463,
cs
),
(
422,
463,
o
),
(
441,
417,
o
),
(
441,
324,
cs
),
(
441,
108,
o
),
(
343,
-77,
o
),
(
228,
-77,
cs
),
(
176,
-77,
o
),
(
148,
-47,
o
),
(
148,
6,
cs
),
(
148,
13,
o
),
(
148,
20,
o
),
(
149,
30,
c
),
(
78,
30,
l
),
(
74,
13,
o
),
(
72,
-2,
o
),
(
72,
-15,
cs
),
(
72,
-99,
o
),
(
133,
-148,
o
),
(
238,
-148,
cs
)
);
}
);
width = 700;
},
{
associatedMasterId = "5936EB7C-5C81-433B-ABAB-ADB37EE98828";
background = {
shapes = (
{
closed = 1;
nodes = (
(
413,
-148,
o
),
(
591,
75,
o
),
(
591,
298,
cs
),
(
591,
441,
o
),
(
518,
528,
o
),
(
398,
528,
cs
),
(
266,
528,
o
),
(
168,
424,
o
),
(
168,
283,
cs
),
(
168,
169,
o
),
(
232,
97,
o
),
(
334,
97,
cs
),
(
407,
97,
o
),
(
472,
134,
o
),
(
518,
203,
c
),
(
522,
258,
l
),
(
475,
196,
o
),
(
425,
167,
o
),
(
364,
167,
cs
),
(
297,
167,
o
),
(
258,
214,
o
),
(
258,
295,
cs
),
(
258,
388,
o
),
(
315,
458,
o
),
(
391,
458,
cs
),
(
462,
458,
o
),
(
504,
397,
o
),
(
504,
295,
cs
),
(
504,
114,
o
),
(
368,
-81,
o
),
(
241,
-81,
cs
),
(
217,
-81,
o
),
(
207,
-74,
o
),
(
207,
-59,
cs
),
(
207,
-28,
o
),
(
253,
-16,
o
),
(
253,
26,
cs
),
(
253,
55,
o
),
(
231,
76,
o
),
(
199,
76,
cs
),
(
149,
76,
o
),
(
109,
26,
o
),
(
109,
-37,
cs
),
(
109,
-106,
o
),
(
157,
-148,
o
),
(
235,
-148,
cs
)
);
}
);
};
guides = (
{
angle = 74.4;
pos = (
65,
-174
);
},
{
pos = (
198,
-148
);
}
);
layerId = "6D36DF9D-918C-4FB6-A967-28D60F1F0EE7";
name = "ball terminal";
shapes = (
{
closed = 1;
nodes = (
(
413,
-148,
o
),
(
591,
75,
o
),
(
591,
298,
cs
),
(
591,
441,
o
),
(
518,
528,
o
),
(
398,
528,
cs
),
(
266,
528,
o
),
(
168,
424,
o
),
(
168,
283,
cs
),
(
168,
169,
o
),
(
232,
97,
o
),
(
334,
97,
cs
),
(
407,
97,
o
),
(
472,
134,
o
),
(
518,
203,
c
),
(
522,
258,
l
),
(
475,
196,
o
),
(
425,
167,
o
),
(
364,
167,
cs
),
(
297,
167,
o
),
(
258,
214,
o
),
(
258,
295,
cs
),
(
258,
388,
o
),
(
315,
458,
o
),
(
391,
458,
cs
),
(
462,
458,
o
),
(
504,
397,
o
),
(
504,
295,
cs
),
(
504,
114,
o
),
(
368,
-81,
o
),
(
241,
-81,
cs
),
(
217,
-81,
o
),
(
207,
-74,
o
),
(
207,
-59,
cs
),
(
207,
-28,
o
),
(
253,
-16,
o
),
(
253,
26,
cs
),
(
253,
55,
o
),
(
231,
76,
o
),
(
199,
76,
cs
),
(
149,
76,
o
),
(
109,
26,
o
),
(
109,
-37,
cs
),
(
109,
-106,
o
),
(
157,
-148,
o
),
(
235,
-148,
cs
)
);
}
);
width = 700;
}
);
metricLeft = "=|six.lf";
metricRight = "=|six.lf";
unicode = 57;
userData = {
KernOnName = nine;
};
}
{
color = 8;
glyphname = colon;
kernLeft = KO_colon;
kernRight = KO_colon;
layers = (
{
background = {
guides = (
{
angle = 74.4;
pos = (
-14,
-42
);
}
);
shapes = (
{
closed = 1;
nodes = (
(
441,
408,
o
),
(
470,
438,
o
),
(
470,
472,
cs
),
(
470,
504,
o
),
(
446,
528,
o
),
(
414,
528,
cs
),
(
380,
528,
o
),
(
350,
499,
o
),
(
350,
464,
cs
),
(
350,
433,
o
),
(
375,
408,
o
),
(
406,
408,
cs
)
);
},
{
closed = 1;
nodes = (
(
322,
-14,
o
),
(
351,
16,
o
),
(
351,
50,
cs
),
(
351,
82,
o
),
(
327,
106,
o
),
(
295,
106,
cs
),
(
261,
106,
o
),
(
231,
77,
o
),
(
231,
42,
cs
),
(
231,
11,
o
),
(
256,
-14,
o
),
(
287,
-14,
cs
)
);
}
);
};
guides = (
{
angle = 74.4;
pos = (
205,
-42
);
}
);
layerId = "8A8107C8-C076-4746-AE01-7D15750BBEFC";
shapes = (
{
closed = 1;
nodes = (
(
322,
-14,
o
),
(
351,
16,
o
),
(
351,
50,
cs
),
(
351,
82,
o
),
(
327,
106,
o
),
(
295,
106,
cs
),
(
261,
106,
o
),
(
231,
77,
o
),
(
231,
42,
cs
),
(
231,
11,
o
),
(
256,
-14,
o
),
(
287,
-14,
cs
)
);
},
{
closed = 1;
nodes = (
(
440,
408,
o
),
(
469,
438,
o
),
(
469,
472,
cs
),
(
469,
504,
o
),
(
445,
528,
o
),
(
413,
528,
cs
),
(
379,
528,
o
),
(
349,
499,
o
),
(
349,
464,
cs
),
(
349,
433,
o
),
(
374,
408,
o
),
(
405,
408,
cs
)
);
}
);
width = 700;
},
{
background = {
guides = (
{
angle = 74.4;
pos = (
-9,
-42
);
}
);
shapes = (
{
closed = 1;
nodes = (
(
447,
358,
o
),
(
487,
398,
o
),
(
487,
449,
cs
),
(
487,
496,
o
),
(
455,
528,
o
),
(
408,
528,
cs
),
(
357,
528,
o
),
(
317,
488,
o
),
(
317,
437,
cs
),
(
317,
391,
o
),
(
350,
358,
o
),
(
396,
358,
cs
)
);
},
{
closed = 1;
nodes = (
(
343,
-14,
o
),
(
383,
26,
o
),
(
383,
77,
cs
),
(
383,
124,
o
),
(
351,
156,
o
),
(
304,
156,
cs
),
(
253,
156,
o
),
(
213,
116,
o
),
(
213,
65,
cs
),
(
213,
19,
o
),
(
246,
-14,
o
),
(
292,
-14,
cs
)
);
}
);
};
guides = (
{
angle = 74.4;
pos = (
180,
-42
);
}
);
layerId = "4637ED20-F3CC-4D04-82BF-886AF47DA6B7";
shapes = (
{
closed = 1;
nodes = (
(
343,
-14,
o
),
(
383,
26,
o
),
(
383,
77,
cs
),
(
383,
124,
o
),
(
351,
156,
o
),
(
304,
156,
cs
),
(
253,
156,
o
),
(
213,
116,
o
),
(
213,
65,
cs
),
(
213,
19,
o
),
(
246,
-14,
o
),
(
292,
-14,
cs
)
);
},
{
closed = 1;
nodes = (
(
447,
358,
o
),
(
487,
398,
o
),
(
487,
449,
cs
),
(
487,
496,
o
),
(
455,
528,
o
),
(
408,
528,
cs
),
(
357,
528,
o
),
(
317,
488,
o
),
(
317,
437,
cs
),
(
317,
391,
o
),
(
350,
358,
o
),
(
396,
358,
cs
)
);
}
);
width = 700;
},
{
background = {
guides = (
{
angle = 74.4;
pos = (
-39,
-42
);
}
);
shapes = (
{
closed = 1;
nodes = (
(
456.5,
365,
o
),
(
501.5,
404,
o
),
(
501.5,
455,
cs
),
(
501.5,
500,
o
),
(
463.5,
533,
o
),
(
409.5,
533,
cs
),
(
350.5,
533,
o
),
(
305.5,
494,
o
),
(
305.5,
443,
cs
),
(
305.5,
397,
o
),
(
342.5,
365,
o
),
(
397.5,
365,
cs
)
);
},
{
closed = 1;
nodes = (
(
350.5,
-14,
o
),
(
395.5,
25,
o
),
(
395.5,
76,
cs
),
(
395.5,
121,
o
),
(
357.5,
154,
o
),
(
303.5,
154,
cs
),
(
244.5,
154,
o
),
(
199.5,
115,
o
),
(
199.5,
64,
cs
),
(
199.5,
18,
o
),
(
236.5,
-14,
o
),
(
291.5,
-14,
cs
)
);
}
);
};
guides = (
{
angle = 74.4;
pos = (
166.5,
-42
);
}
);
layerId = "19651320-9895-44C9-9F41-285CE0F17596";
shapes = (
{
closed = 1;
nodes = (
(
350.5,
-14,
o
),
(
395.5,
25,
o
),
(
395.5,
76,
cs
),
(
395.5,
121,
o
),
(
357.5,
154,
o
),
(
303.5,
154,
cs
),
(
244.5,
154,
o
),
(
199.5,
115,
o
),
(
199.5,
64,
cs
),
(
199.5,
18,
o
),
(
236.5,
-14,
o
),
(
291.5,
-14,
cs
)
);
},
{
closed = 1;
nodes = (
(
456.5,
365,
o
),
(
501.5,
404,
o
),
(
501.5,
455,
cs
),
(
501.5,
500,
o
),
(
463.5,
533,
o
),
(
409.5,
533,
cs
),
(
350.5,
533,
o
),
(
305.5,
494,
o
),
(
305.5,
443,
cs
),
(
305.5,
397,
o
),
(
342.5,
365,
o
),
(
397.5,
365,
cs
)
);
}
);
width = 700;
},
{
background = {
guides = (
{
angle = 74.4;
pos = (
8,
-68
);
}
);
shapes = (
{
closed = 1;
nodes = (
(
457,
351,
o
),
(
505,
393,
o
),
(
505,
448,
cs
),
(
505,
498,
o
),
(
464,
533,
o
),
(
407,
533,
cs
),
(
344,
533,
o
),
(
297,
491,
o
),
(
297,
436,
cs
),
(
297,
386,
o
),
(
338,
351,
o
),
(
395,
351,
cs
)
);
},
{
closed = 1;
nodes = (
(
355,
-14,
o
),
(
403,
28,
o
),
(
403,
83,
cs
),
(
403,
133,
o
),
(
362,
168,
o
),
(
305,
168,
cs
),
(
242,
168,
o
),
(
195,
126,
o
),
(
195,
71,
cs
),
(
195,
21,
o
),
(
236,
-14,
o
),
(
293,
-14,
cs
)
);
}
);
};
guides = (
{
angle = 74.4;
pos = (
153,
-68
);
}
);
layerId = "5936EB7C-5C81-433B-ABAB-ADB37EE98828";
shapes = (
{
closed = 1;
nodes = (
(
355,
-14,
o
),
(
403,
28,
o
),
(
403,
83,
cs
),
(
403,
133,
o
),
(
362,
168,
o
),
(
305,
168,
cs
),
(
242,
168,
o
),
(
195,
126,
o
),
(
195,
71,
cs
),
(
195,
21,
o
),
(
236,
-14,
o
),
(
293,
-14,
cs
)
);
},
{
closed = 1;
nodes = (
(
457,
351,
o
),
(
505,
393,
o
),
(
505,
448,
cs
),
(
505,
498,
o
),
(
464,
533,
o
),
(
407,
533,
cs
),
(
344,
533,
o
),
(
297,
491,
o
),
(
297,
436,
cs
),
(
297,
386,
o
),
(
338,
351,
o
),
(
395,
351,
cs
)
);
}
);
width = 700;
}
);
metricLeft = period;
metricRight = period;
unicode = 58;
userData = {
KernOnSpecialSpacing = {};
};
}
{
color = 8;
glyphname = semicolon;
kernLeft = KO_semicolon;
layers = (
{
guides = (
{
angle = 74.4;
pos = (
202.5,
-42
);
}
);
layerId = "8A8107C8-C076-4746-AE01-7D15750BBEFC";
shapes = (
{
closed = 1;
nodes = (
(
435.5,
408,
o
),
(
464.5,
438,
o
),
(
464.5,
472,
cs
),
(
464.5,
504,
o
),
(
440.5,
528,
o
),
(
408.5,
528,
cs
),
(
374.5,
528,
o
),
(
344.5,
499,
o
),
(
344.5,
464,
cs
),
(
344.5,
433,
o
),
(
369.5,
408,
o
),
(
400.5,
408,
cs
)
);
},
{
closed = 1;
nodes = (
(
292.5,
-95,
o
),
(
346.5,
-38,
o
),
(
346.5,
30,
cs
),
(
346.5,
79,
o
),
(
318.5,
116,
o
),
(
280.5,
116,
cs
),
(
253.5,
116,
o
),
(
235.5,
98,
o
),
(
235.5,
73,
cs
),
(
235.5,
24,
o
),
(
303.5,
8,
o
),
(
303.5,
-39,
cs
),
(
303.5,
-72,
o
),
(
268.5,
-101,
o
),
(
198.5,
-127,
c
),
(
198.5,
-128,
l
)
);
}
);
width = 700;
},
{
guides = (
{
angle = 74.4;
pos = (
163.5,
-42
);
}
);
layerId = "4637ED20-F3CC-4D04-82BF-886AF47DA6B7";
shapes = (
{
closed = 1;
nodes = (
(
430.5,
358,
o
),
(
470.5,
398,
o
),
(
470.5,
449,
cs
),
(
470.5,
496,
o
),
(
438.5,
528,
o
),
(
391.5,
528,
cs
),
(
340.5,
528,
o
),
(
300.5,
488,
o
),
(
300.5,
437,
cs
),
(
300.5,
391,
o
),
(
333.5,
358,
o
),
(
379.5,
358,
cs
)
);
},
{
closed = 1;
nodes = (
(
312.5,
-146,
o
),
(
382.5,
-73,
o
),
(
382.5,
27,
cs
),
(
382.5,
108,
o
),
(
338.5,
166,
o
),
(
277.5,
166,
cs
),
(
236.5,
166,
o
),
(
206.5,
140,
o
),
(
206.5,
105,
cs
),
(
206.5,
42,
o
),
(
297.5,
36,
o
),
(
297.5,
-25,
cs
),
(
297.5,
-69,
o
),
(
248.5,
-108,
o
),
(
155.5,
-138,
c
),
(
172.5,
-190,
l
)
);
}
);
width = 700;
},
{
guides = (
{
angle = 74.4;
pos = (
161,
-42
);
}
);
layerId = "19651320-9895-44C9-9F41-285CE0F17596";
shapes = (
{
closed = 1;
nodes = (
(
451,
365,
o
),
(
496,
404,
o
),
(
496,
455,
cs
),
(
496,
500,
o
),
(
458,
533,
o
),
(
404,
533,
cs
),
(
345,
533,
o
),
(
300,
494,
o
),
(
300,
443,
cs
),
(
300,
397,
o
),
(
337,
365,
o
),
(
392,
365,
cs
)
);
},
{
closed = 1;
nodes = (
(
321,
-95,
o
),
(
391,
-38,
o
),
(
391,
45,
cs
),
(
391,
110,
o
),
(
348,
154,
o
),
(
285,
154,
cs
),
(
234,
154,
o
),
(
198,
124,
o
),
(
198,
81,
cs
),
(
198,
6,
o
),
(
309,
-6,
o
),
(
309,
-53,
cs
),
(
309,
-82,
o
),
(
273,
-104,
o
),
(
177,
-128,
c
),
(
177,
-129,
l
)
);
}
);
width = 700;
},
{
guides = (
{
angle = 74.4;
pos = (
146.5,
-42
);
}
);
layerId = "5936EB7C-5C81-433B-ABAB-ADB37EE98828";
shapes = (
{
closed = 1;
nodes = (
(
443.5,
351,
o
),
(
491.5,
393,
o
),
(
491.5,
448,
cs
),
(
491.5,
498,
o
),
(
450.5,
533,
o
),
(
393.5,
533,
cs
),
(
330.5,
533,
o
),
(
283.5,
491,
o
),
(
283.5,
436,
cs
),
(
283.5,
386,
o
),
(
324.5,
351,
o
),
(
381.5,
351,
cs
)
);
},
{
closed = 1;
nodes = (
(
323.5,
-148,
o
),
(
396.5,
-73,
o
),
(
396.5,
25,
cs
),
(
396.5,
108,
o
),
(
346.5,
168,
o
),
(
275.5,
168,
cs
),
(
223.5,
168,
o
),
(
186.5,
136,
o
),
(
186.5,
91,
cs
),
(
186.5,
15,
o
),
(
290.5,
6,
o
),
(
290.5,
-44,
cs
),
(
290.5,
-78,
o
),
(
245.5,
-112,
o
),
(
166.5,
-138,
c
),
(
186.5,
-190,
l
)
);
}
);
width = 700;
}
);
metricLeft = period;
metricRight = period;
unicode = 59;
userData = {
KernOnSpecialSpacing = {};
};
}
{
color = 5;
glyphname = question;
kernLeft = KO_question;
layers = (
{
background = {
guides = (
{
angle = 74.4;
pos = (
136,
-99
);
},
{
pos = (
268,
198
);
}
);
shapes = (
{
closed = 1;
nodes = (
(
328.5,
198,
l
),
(
323.5,
209,
o
),
(
318.5,
222,
o
),
(
318.5,
236,
cs
),
(
318.5,
367,
o
),
(
624.5,
461,
o
),
(
624.5,
643,
cs
),
(
624.5,
726,
o
),
(
557.5,
782,
o
),
(
457.5,
782,
cs
),
(
364.5,
782,
o
),
(
294.5,
730,
o
),
(
294.5,
661,
cs
),
(
294.5,
618,
o
),
(
323.5,
587,
o
),
(
362.5,
587,
cs
),
(
389.5,
587,
o
),
(
407.5,
602,
o
),
(
407.5,
624,
cs
),
(
407.5,
668,
o
),
(
337.5,
672,
o
),
(
337.5,
715,
cs
),
(
337.5,
749,
o
),
(
380.5,
777,
o
),
(
434.5,
777,
cs
),
(
505.5,
777,
o
),
(
551.5,
729,
o
),
(
551.5,
655,
cs
),
(
551.5,
498,
o
),
(
298.5,
424,
o
),
(
298.5,
272,
cs
),
(
298.5,
242,
o
),
(
310.5,
217,
o
),
(
327.5,
198,
c
)
);
},
{
closed = 1;
nodes = (
(
320.5,
-14,
o
),
(
349.5,
16,
o
),
(
349.5,
50,
cs
),
(
349.5,
82,
o
),
(
325.5,
106,
o
),
(
293.5,
106,
cs
),
(
259.5,
106,
o
),
(
229.5,
77,
o
),
(
229.5,
42,
cs
),
(
229.5,
11,
o
),
(
254.5,
-14,
o
),
(
285.5,
-14,
cs
)
);
}
);
};
guides = (
{
angle = 74.4;
pos = (
238.5,
-99
);
},
{
pos = (
370.5,
198
);
}
);
layerId = "8A8107C8-C076-4746-AE01-7D15750BBEFC";
shapes = (
{
closed = 1;
nodes = (
(
328.5,
198,
l
),
(
323.5,
209,
o
),
(
318.5,
222,
o
),
(
318.5,
236,
cs
),
(
318.5,
367,
o
),
(
624.5,
461,
o
),
(
624.5,
643,
cs
),
(
624.5,
726,
o
),
(
557.5,
782,
o
),
(
457.5,
782,
cs
),
(
364.5,
782,
o
),
(
294.5,
730,
o
),
(
294.5,
661,
cs
),
(
294.5,
618,
o
),
(
323.5,
587,
o
),
(
362.5,
587,
cs
),
(
389.5,
587,
o
),
(
407.5,
602,
o
),
(
407.5,
624,
cs
),
(
407.5,
668,
o
),
(
337.5,
672,
o
),
(
337.5,
715,
cs
),
(
337.5,
749,
o
),
(
380.5,
777,
o
),
(
434.5,
777,
cs
),
(
505.5,
777,
o
),
(
551.5,
729,
o
),
(
551.5,
655,
cs
),
(
551.5,
498,
o
),
(
298.5,
424,
o
),
(
298.5,
272,
cs
),
(
298.5,
242,
o
),
(
310.5,
217,
o
),
(
327.5,
198,
c
)
);
},
{
closed = 1;
nodes = (
(
312.5,
-14,
o
),
(
341.5,
16,
o
),
(
341.5,
50,
cs
),
(
341.5,
82,
o
),
(
317.5,
106,
o
),
(
285.5,
106,
cs
),
(
251.5,
106,
o
),
(
221.5,
77,
o
),
(
221.5,
42,
cs
),
(
221.5,
11,
o
),
(
246.5,
-14,
o
),
(
277.5,
-14,
cs
)
);
}
);
width = 700;
},
{
background = {
guides = (
{
angle = 74.4;
pos = (
171,
-99
);
},
{
angle = 74.4;
pos = (
-25,
-99
);
},
{
angle = 74.4;
pos = (
305,
-99
);
},
{
angle = 74.4;
pos = (
186,
-99
);
},
{
angle = 74.4;
pos = (
99,
-99
);
},
{
pos = (
56,
234
);
}
);
shapes = (
{
closed = 1;
nodes = (
(
372,
253,
l
),
(
368,
263,
o
),
(
366,
280,
o
),
(
366,
296,
cs
),
(
366,
409,
o
),
(
622,
470,
o
),
(
622,
629,
cs
),
(
622,
720,
o
),
(
556,
782,
o
),
(
457,
782,
cs
),
(
361,
782,
o
),
(
289,
724,
o
),
(
289,
647,
cs
),
(
289,
598,
o
),
(
319,
566,
o
),
(
363,
566,
cs
),
(
395,
566,
o
),
(
416,
582,
o
),
(
416,
607,
cs
),
(
416,
637,
o
),
(
382,
655,
o
),
(
382,
680,
cs
),
(
382,
701,
o
),
(
407,
715,
o
),
(
444,
715,
cs
),
(
503,
715,
o
),
(
541,
680,
o
),
(
541,
625,
cs
),
(
541,
499,
o
),
(
294,
448,
o
),
(
294,
292,
cs
),
(
294,
270,
o
),
(
299,
251,
o
),
(
308,
234,
c
)
);
},
{
closed = 1;
nodes = (
(
350,
-14,
o
),
(
390,
26,
o
),
(
390,
77,
cs
),
(
390,
124,
o
),
(
358,
156,
o
),
(
311,
156,
cs
),
(
260,
156,
o
),
(
220,
116,
o
),
(
220,
65,
cs
),
(
220,
19,
o
),
(
253,
-14,
o
),
(
299,
-14,
cs
)
);
}
);
};
guides = (
{
angle = 74.4;
pos = (
272,
-99
);
},
{
angle = 74.4;
pos = (
76,
-99
);
},
{
angle = 74.4;
pos = (
406,
-99
);
},
{
angle = 74.4;
pos = (
287,
-99
);
},
{
angle = 74.4;
pos = (
200,
-99
);
},
{
pos = (
157,
234
);
}
);
layerId = "4637ED20-F3CC-4D04-82BF-886AF47DA6B7";
shapes = (
{
closed = 1;
nodes = (
(
372,
253,
l
),
(
368,
263,
o
),
(
366,
280,
o
),
(
366,
296,
cs
),
(
366,
409,
o
),
(
622,
470,
o
),
(
622,
629,
cs
),
(
622,
720,
o
),
(
556,
782,
o
),
(
457,
782,
cs
),
(
361,
782,
o
),
(
289,
724,
o
),
(
289,
647,
cs
),
(
289,
598,
o
),
(
319,
566,
o
),
(
363,
566,
cs
),
(
395,
566,
o
),
(
416,
582,
o
),
(
416,
607,
cs
),
(
416,
637,
o
),
(
382,
655,
o
),
(
382,
680,
cs
),
(
382,
701,
o
),
(
407,
715,
o
),
(
444,
715,
cs
),
(
503,
715,
o
),
(
541,
680,
o
),
(
541,
625,
cs
),
(
541,
499,
o
),
(
294,
448,
o
),
(
294,
292,
cs
),
(
294,
270,
o
),
(
299,
251,
o
),
(
308,
234,
c
)
);
},
{
closed = 1;
nodes = (
(
334,
-14,
o
),
(
374,
26,
o
),
(
374,
77,
cs
),
(
374,
124,
o
),
(
342,
156,
o
),
(
295,
156,
cs
),
(
244,
156,
o
),
(
204,
116,
o
),
(
204,
65,
cs
),
(
204,
19,
o
),
(
237,
-14,
o
),
(
283,
-14,
cs
)
);
}
);
width = 700;
},
{
associatedMasterId = "8A8107C8-C076-4746-AE01-7D15750BBEFC";
background = {
guides = (
{
angle = 74.4;
pos = (
132,
-99
);
}
);
shapes = (
{
closed = 1;
nodes = (
(
437,
188,
o
),
(
502,
236,
o
),
(
502,
299,
cs
),
(
502,
336,
o
),
(
478,
363,
o
),
(
443,
363,
cs
),
(
417,
363,
o
),
(
399,
348,
o
),
(
399,
327,
cs
),
(
399,
287,
o
),
(
458,
283,
o
),
(
458,
245,
cs
),
(
458,
216,
o
),
(
422,
193,
o
),
(
377,
193,
cs
),
(
319,
193,
o
),
(
284,
226,
o
),
(
284,
279,
cs
),
(
284,
324,
o
),
(
310,
360,
o
),
(
379,
409,
cs
),
(
494,
492,
ls
),
(
568,
545,
o
),
(
606,
601,
o
),
(
606,
657,
cs
),
(
606,
730,
o
),
(
540,
782,
o
),
(
449,
782,
cs
),
(
356,
782,
o
),
(
286,
730,
o
),
(
286,
661,
cs
),
(
286,
618,
o
),
(
315,
587,
o
),
(
354,
587,
cs
),
(
381,
587,
o
),
(
399,
602,
o
),
(
399,
624,
cs
),
(
399,
668,
o
),
(
329,
671,
o
),
(
329,
716,
cs
),
(
329,
749,
o
),
(
372,
777,
o
),
(
423,
777,
cs
),
(
489,
777,
o
),
(
533,
733,
o
),
(
533,
669,
cs
),
(
533,
622,
o
),
(
503,
577,
o
),
(
442,
533,
cs
),
(
334,
455,
ls
),
(
249,
394,
o
),
(
214,
347,
o
),
(
214,
296,
cs
),
(
214,
232,
o
),
(
270,
188,
o
),
(
353,
188,
cs
)
);
},
{
closed = 1;
nodes = (
(
339,
-14,
o
),
(
368,
16,
o
),
(
368,
50,
cs
),
(
368,
82,
o
),
(
344,
106,
o
),
(
312,
106,
cs
),
(
278,
106,
o
),
(
248,
77,
o
),
(
248,
42,
cs
),
(
248,
11,
o
),
(
273,
-14,
o
),
(
304,
-14,
cs
)
);
}
);
};
guides = (
{
angle = 74.4;
pos = (
263,
-99
);
}
);
layerId = "FA7B23AC-AFA4-4485-AF05-D2CA20F2A959";
name = "Double curl";
shapes = (
{
closed = 1;
nodes = (
(
437,
188,
o
),
(
502,
236,
o
),
(
502,
299,
cs
),
(
502,
336,
o
),
(
478,
363,
o
),
(
443,
363,
cs
),
(
417,
363,
o
),
(
399,
348,
o
),
(
399,
327,
cs
),
(
399,
287,
o
),
(
458,
283,
o
),
(
458,
245,
cs
),
(
458,
216,
o
),
(
422,
193,
o
),
(
377,
193,
cs
),
(
319,
193,
o
),
(
284,
226,
o
),
(
284,
279,
cs
),
(
284,
324,
o
),
(
310,
360,
o
),
(
379,
409,
cs
),
(
494,
492,
ls
),
(
568,
545,
o
),
(
606,
601,
o
),
(
606,
657,
cs
),
(
606,
730,
o
),
(
540,
782,
o
),
(
449,
782,
cs
),
(
356,
782,
o
),
(
286,
730,
o
),
(
286,
661,
cs
),
(
286,
618,
o
),
(
315,
587,
o
),
(
354,
587,
cs
),
(
381,
587,
o
),
(
399,
602,
o
),
(
399,
624,
cs
),
(
399,
668,
o
),
(
329,
671,
o
),
(
329,
716,
cs
),
(
329,
749,
o
),
(
372,
777,
o
),
(
423,
777,
cs
),
(
489,
777,
o
),
(
533,
733,
o
),
(
533,
669,
cs
),
(
533,
622,
o
),
(
503,
577,
o
),
(
442,
533,
cs
),
(
334,
455,
ls
),
(
249,
394,
o
),
(
214,
347,
o
),
(
214,
296,
cs
),
(
214,
232,
o
),
(
270,
188,
o
),
(
353,
188,
cs
)
);
},
{
closed = 1;
nodes = (
(
339,
-14,
o
),
(
368,
16,
o
),
(
368,
50,
cs
),
(
368,
82,
o
),
(
344,
106,
o
),
(
312,
106,
cs
),
(
278,
106,
o
),
(
248,
77,
o
),
(
248,
42,
cs
),
(
248,
11,
o
),
(
273,
-14,
o
),
(
304,
-14,
cs
)
);
}
);
width = 700;
},
{
associatedMasterId = "4637ED20-F3CC-4D04-82BF-886AF47DA6B7";
background = {
guides = (
{
angle = 74.4;
pos = (
135,
-99
);
},
{
angle = 74.4;
pos = (
-61,
-99
);
},
{
angle = 74.4;
pos = (
269,
-99
);
},
{
angle = 74.4;
pos = (
150,
-99
);
},
{
angle = 74.4;
pos = (
63,
-99
);
}
);
shapes = (
{
closed = 1;
nodes = (
(
447,
188,
o
),
(
510,
238,
o
),
(
510,
310,
cs
),
(
510,
355,
o
),
(
486,
384,
o
),
(
449,
384,
cs
),
(
421,
384,
o
),
(
403,
368,
o
),
(
403,
342,
cs
),
(
403,
319,
o
),
(
417,
299,
o
),
(
417,
282,
cs
),
(
417,
264,
o
),
(
401,
255,
o
),
(
370,
255,
cs
),
(
321,
255,
o
),
(
296,
274,
o
),
(
296,
311,
cs
),
(
296,
348,
o
),
(
324,
384,
o
),
(
378,
417,
cs
),
(
494,
489,
ls
),
(
565,
533,
o
),
(
606,
593,
o
),
(
606,
653,
cs
),
(
606,
729,
o
),
(
542,
782,
o
),
(
450,
782,
cs
),
(
354,
782,
o
),
(
283,
724,
o
),
(
283,
647,
cs
),
(
283,
598,
o
),
(
313,
566,
o
),
(
357,
566,
cs
),
(
389,
566,
o
),
(
410,
582,
o
),
(
410,
607,
cs
),
(
410,
637,
o
),
(
376,
655,
o
),
(
376,
680,
cs
),
(
376,
701,
o
),
(
401,
715,
o
),
(
438,
715,
cs
),
(
490,
715,
o
),
(
525,
688,
o
),
(
525,
647,
cs
),
(
525,
608,
o
),
(
497,
570,
o
),
(
442,
536,
cs
),
(
334,
469,
ls
),
(
254,
419,
o
),
(
214,
364,
o
),
(
214,
304,
cs
),
(
214,
233,
o
),
(
268,
188,
o
),
(
355,
188,
cs
)
);
},
{
closed = 1;
nodes = (
(
339,
-14,
o
),
(
368,
16,
o
),
(
368,
50,
cs
),
(
368,
82,
o
),
(
344,
106,
o
),
(
312,
106,
cs
),
(
278,
106,
o
),
(
248,
77,
o
),
(
248,
42,
cs
),
(
248,
11,
o
),
(
273,
-14,
o
),
(
304,
-14,
cs
)
);
}
);
};
guides = (
{
angle = 74.4;
pos = (
266,
-99
);
},
{
angle = 74.4;
pos = (
70,
-99
);
},
{
angle = 74.4;
pos = (
400,
-99
);
},
{
angle = 74.4;
pos = (
281,
-99
);
},
{
angle = 74.4;
pos = (
194,
-99
);
}
);
layerId = "6481344F-D570-4EEE-9DE9-5ACB3A4452CA";
name = "Double curl";
shapes = (
{
closed = 1;
nodes = (
(
447,
188,
o
),
(
510,
238,
o
),
(
510,
310,
cs
),
(
510,
355,
o
),
(
486,
384,
o
),
(
449,
384,
cs
),
(
421,
384,
o
),
(
403,
368,
o
),
(
403,
342,
cs
),
(
403,
319,
o
),
(
417,
299,
o
),
(
417,
282,
cs
),
(
417,
264,
o
),
(
401,
255,
o
),
(
370,
255,
cs
),
(
321,
255,
o
),
(
296,
274,
o
),
(
296,
311,
cs
),
(
296,
348,
o
),
(
324,
384,
o
),
(
378,
417,
cs
),
(
494,
489,
ls
),
(
565,
533,
o
),
(
606,
593,
o
),
(
606,
653,
cs
),
(
606,
729,
o
),
(
542,
782,
o
),
(
450,
782,
cs
),
(
354,
782,
o
),
(
283,
724,
o
),
(
283,
647,
cs
),
(
283,
598,
o
),
(
313,
566,
o
),
(
357,
566,
cs
),
(
389,
566,
o
),
(
410,
582,
o
),
(
410,
607,
cs
),
(
410,
637,
o
),
(
376,
655,
o
),
(
376,
680,
cs
),
(
376,
701,
o
),
(
401,
715,
o
),
(
438,
715,
cs
),
(
490,
715,
o
),
(
525,
688,
o
),
(
525,
647,
cs
),
(
525,
608,
o
),
(
497,
570,
o
),
(
442,
536,
cs
),
(
334,
469,
ls
),
(
254,
419,
o
),
(
214,
364,
o
),
(
214,
304,
cs
),
(
214,
233,
o
),
(
268,
188,
o
),
(
355,
188,
cs
)
);
},
{
closed = 1;
nodes = (
(
339,
-14,
o
),
(
368,
16,
o
),
(
368,
50,
cs
),
(
368,
82,
o
),
(
344,
106,
o
),
(
312,
106,
cs
),
(
278,
106,
o
),
(
248,
77,
o
),
(
248,
42,
cs
),
(
248,
11,
o
),
(
273,
-14,
o
),
(
304,
-14,
cs
)
);
}
);
width = 700;
},
{
associatedMasterId = "8A8107C8-C076-4746-AE01-7D15750BBEFC";
background = {
guides = (
{
angle = 74.4;
pos = (
122,
-99
);
},
{
pos = (
10,
208
);
}
);
shapes = (
{
closed = 1;
nodes = (
(
373,
208,
o
),
(
399,
215,
o
),
(
422,
231,
c
),
(
422,
232,
l
),
(
404,
221,
o
),
(
384,
215,
o
),
(
366,
215,
cs
),
(
330,
215,
o
),
(
304,
241,
o
),
(
304,
278,
cs
),
(
304,
399,
o
),
(
596,
485,
o
),
(
596,
653,
cs
),
(
596,
730,
o
),
(
533,
782,
o
),
(
439,
782,
cs
),
(
346,
782,
o
),
(
276,
730,
o
),
(
276,
661,
cs
),
(
276,
618,
o
),
(
305,
587,
o
),
(
344,
587,
cs
),
(
371,
587,
o
),
(
389,
602,
o
),
(
389,
624,
cs
),
(
389,
668,
o
),
(
319,
672,
o
),
(
319,
715,
cs
),
(
319,
749,
o
),
(
362,
777,
o
),
(
416,
777,
cs
),
(
481,
777,
o
),
(
523,
737,
o
),
(
523,
675,
cs
),
(
523,
511,
o
),
(
234,
449,
o
),
(
234,
300,
cs
),
(
234,
243,
o
),
(
276,
208,
o
),
(
342,
208,
cs
)
);
},
{
closed = 1;
nodes = (
(
317,
-14,
o
),
(
346,
16,
o
),
(
346,
50,
cs
),
(
346,
82,
o
),
(
322,
106,
o
),
(
290,
106,
cs
),
(
256,
106,
o
),
(
226,
77,
o
),
(
226,
42,
cs
),
(
226,
11,
o
),
(
251,
-14,
o
),
(
282,
-14,
cs
)
);
}
);
};
guides = (
{
angle = 74.4;
pos = (
253,
-99
);
},
{
pos = (
141,
208
);
}
);
layerId = "FE5F5FEC-E036-4AA4-AC10-39C2229C6EA1";
name = hook;
shapes = (
{
closed = 1;
nodes = (
(
373,
208,
o
),
(
399,
215,
o
),
(
422,
231,
c
),
(
422,
232,
l
),
(
404,
221,
o
),
(
384,
215,
o
),
(
366,
215,
cs
),
(
330,
215,
o
),
(
304,
241,
o
),
(
304,
278,
cs
),
(
304,
399,
o
),
(
596,
485,
o
),
(
596,
653,
cs
),
(
596,
730,
o
),
(
533,
782,
o
),
(
439,
782,
cs
),
(
346,
782,
o
),
(
276,
730,
o
),
(
276,
661,
cs
),
(
276,
618,
o
),
(
305,
587,
o
),
(
344,
587,
cs
),
(
371,
587,
o
),
(
389,
602,
o
),
(
389,
624,
cs
),
(
389,
668,
o
),
(
319,
672,
o
),
(
319,
715,
cs
),
(
319,
749,
o
),
(
362,
777,
o
),
(
416,
777,
cs
),
(
481,
777,
o
),
(
523,
737,
o
),
(
523,
675,
cs
),
(
523,
511,
o
),
(
234,
449,
o
),
(
234,
300,
cs
),
(
234,
243,
o
),
(
276,
208,
o
),
(
342,
208,
cs
)
);
},
{
closed = 1;
nodes = (
(
317,
-14,
o
),
(
346,
16,
o
),
(
346,
50,
cs
),
(
346,
82,
o
),
(
322,
106,
o
),
(
290,
106,
cs
),
(
256,
106,
o
),
(
226,
77,
o
),
(
226,
42,
cs
),
(
226,
11,
o
),
(
251,
-14,
o
),
(
282,
-14,
cs
)
);
}
);
width = 700;
},
{
associatedMasterId = "4637ED20-F3CC-4D04-82BF-886AF47DA6B7";
background = {
guides = (
{
angle = 74.4;
pos = (
115,
-99
);
},
{
angle = 74.4;
pos = (
-81,
-99
);
},
{
angle = 74.4;
pos = (
249,
-99
);
},
{
angle = 74.4;
pos = (
130,
-99
);
},
{
angle = 74.4;
pos = (
43,
-99
);
},
{
pos = (
0,
208
);
}
);
shapes = (
{
closed = 1;
nodes = (
(
368,
208,
o
),
(
396,
214,
o
),
(
418,
223,
c
),
(
403,
281,
l
),
(
391,
277,
o
),
(
378,
275,
o
),
(
364,
275,
cs
),
(
326,
275,
o
),
(
306,
290,
o
),
(
306,
318,
cs
),
(
306,
422,
o
),
(
586,
469,
o
),
(
586,
643,
cs
),
(
586,
727,
o
),
(
524,
782,
o
),
(
431,
782,
cs
),
(
335,
782,
o
),
(
263,
724,
o
),
(
263,
647,
cs
),
(
263,
598,
o
),
(
293,
566,
o
),
(
337,
566,
cs
),
(
369,
566,
o
),
(
390,
582,
o
),
(
390,
607,
cs
),
(
390,
637,
o
),
(
356,
655,
o
),
(
356,
680,
cs
),
(
356,
701,
o
),
(
381,
715,
o
),
(
418,
715,
cs
),
(
472,
715,
o
),
(
505,
686,
o
),
(
505,
639,
cs
),
(
505,
505,
o
),
(
224,
471,
o
),
(
224,
312,
cs
),
(
224,
248,
o
),
(
269,
208,
o
),
(
341,
208,
cs
)
);
},
{
closed = 1;
nodes = (
(
319,
-14,
o
),
(
348,
16,
o
),
(
348,
50,
cs
),
(
348,
82,
o
),
(
324,
106,
o
),
(
292,
106,
cs
),
(
258,
106,
o
),
(
228,
77,
o
),
(
228,
42,
cs
),
(
228,
11,
o
),
(
253,
-14,
o
),
(
284,
-14,
cs
)
);
}
);
};
guides = (
{
angle = 74.4;
pos = (
246,
-99
);
},
{
angle = 74.4;
pos = (
50,
-99
);
},
{
angle = 74.4;
pos = (
380,
-99
);
},
{
angle = 74.4;
pos = (
261,
-99
);
},
{
angle = 74.4;
pos = (
174,
-99
);
},
{
pos = (
131,
208
);
}
);
layerId = "F288396F-EA13-48A8-9315-B92AD1F06884";
name = hook;
shapes = (
{
closed = 1;
nodes = (
(
368,
208,
o
),
(
396,
214,
o
),
(
418,
223,
c
),
(
403,
281,
l
),
(
391,
277,
o
),
(
378,
275,
o
),
(
364,
275,
cs
),
(
326,
275,
o
),
(
306,
290,
o
),
(
306,
318,
cs
),
(
306,
422,
o
),
(
586,
469,
o
),
(
586,
643,
cs
),
(
586,
727,
o
),
(
524,
782,
o
),
(
431,
782,
cs
),
(
335,
782,
o
),
(
263,
724,
o
),
(
263,
647,
cs
),
(
263,
598,
o
),
(
293,
566,
o
),
(
337,
566,
cs
),
(
369,
566,
o
),
(
390,
582,
o
),
(
390,
607,
cs
),
(
390,
637,
o
),
(
356,
655,
o
),
(
356,
680,
cs
),
(
356,
701,
o
),
(
381,
715,
o
),
(
418,
715,
cs
),
(
472,
715,
o
),
(
505,
686,
o
),
(
505,
639,
cs
),
(
505,
505,
o
),
(
224,
471,
o
),
(
224,
312,
cs
),
(
224,
248,
o
),
(
269,
208,
o
),
(
341,
208,
cs
)
);
},
{
closed = 1;
nodes = (
(
319,
-14,
o
),
(
348,
16,
o
),
(
348,
50,
cs
),
(
348,
82,
o
),
(
324,
106,
o
),
(
292,
106,
cs
),
(
258,
106,
o
),
(
228,
77,
o
),
(
228,
42,
cs
),
(
228,
11,
o
),
(
253,
-14,
o
),
(
284,
-14,
cs
)
);
}
);
width = 700;
},
{
background = {
guides = (
{
angle = 74.4;
pos = (
167,
-111
);
},
{
pos = (
41,
198
);
}
);
shapes = (
{
closed = 1;
nodes = (
(
347,
199,
l
),
(
340,
206,
o
),
(
334,
219,
o
),
(
334,
233,
cs
),
(
334,
367,
o
),
(
665,
426,
o
),
(
665,
625,
cs
),
(
665,
719,
o
),
(
577,
782,
o
),
(
445,
782,
cs
),
(
328,
782,
o
),
(
245,
730,
o
),
(
245,
657,
cs
),
(
245,
608,
o
),
(
282,
575,
o
),
(
336,
575,
cs
),
(
379,
575,
o
),
(
409,
598,
o
),
(
409,
630,
cs
),
(
409,
685,
o
),
(
331,
710,
o
),
(
331,
744,
cs
),
(
331,
761,
o
),
(
353,
773,
o
),
(
385,
773,
cs
),
(
455,
773,
o
),
(
506,
722,
o
),
(
506,
655,
cs
),
(
506,
515,
o
),
(
248,
471,
o
),
(
248,
325,
cs
),
(
248,
271,
o
),
(
285,
224,
o
),
(
346,
198,
c
)
);
},
{
closed = 1;
nodes = (
(
337,
-14,
o
),
(
382,
25,
o
),
(
382,
76,
cs
),
(
382,
121,
o
),
(
344,
154,
o
),
(
290,
154,
cs
),
(
231,
154,
o
),
(
186,
115,
o
),
(
186,
64,
cs
),
(
186,
18,
o
),
(
223,
-14,
o
),
(
278,
-14,
cs
)
);
}
);
};
guides = (
{
angle = 74.4;
pos = (
247,
-111
);
},
{
pos = (
121,
198
);
}
);
layerId = "19651320-9895-44C9-9F41-285CE0F17596";
shapes = (
{
closed = 1;
nodes = (
(
347,
199,
l
),
(
340,
206,
o
),
(
334,
219,
o
),
(
334,
233,
cs
),
(
334,
367,
o
),
(
665,
426,
o
),
(
665,
625,
cs
),
(
665,
719,
o
),
(
577,
782,
o
),
(
445,
782,
cs
),
(
328,
782,
o
),
(
245,
730,
o
),
(
245,
657,
cs
),
(
245,
608,
o
),
(
282,
575,
o
),
(
336,
575,
cs
),
(
379,
575,
o
),
(
409,
598,
o
),
(
409,
630,
cs
),
(
409,
685,
o
),
(
331,
710,
o
),
(
331,
744,
cs
),
(
331,
761,
o
),
(
353,
773,
o
),
(
385,
773,
cs
),
(
455,
773,
o
),
(
506,
722,
o
),
(
506,
655,
cs
),
(
506,
515,
o
),
(
248,
471,
o
),
(
248,
325,
cs
),
(
248,
271,
o
),
(
285,
224,
o
),
(
346,
198,
c
)
);
},
{
closed = 1;
nodes = (
(
342,
-14,
o
),
(
387,
25,
o
),
(
387,
76,
cs
),
(
387,
121,
o
),
(
349,
154,
o
),
(
295,
154,
cs
),
(
236,
154,
o
),
(
191,
115,
o
),
(
191,
64,
cs
),
(
191,
18,
o
),
(
228,
-14,
o
),
(
283,
-14,
cs
)
);
}
);
width = 700;
},
{
associatedMasterId = "19651320-9895-44C9-9F41-285CE0F17596";
background = {
shapes = (
{
closed = 1;
nodes = (
(
470,
187,
o
),
(
547,
234,
o
),
(
547,
307,
cs
),
(
547,
348,
o
),
(
510,
381,
o
),
(
463,
381,
cs
),
(
425,
381,
o
),
(
397,
357,
o
),
(
397,
323,
cs
),
(
397,
276,
o
),
(
449,
264,
o
),
(
449,
239,
cs
),
(
449,
222,
o
),
(
423,
209,
o
),
(
387,
209,
cs
),
(
340,
209,
o
),
(
311,
233,
o
),
(
311,
270,
cs
),
(
311,
305,
o
),
(
337,
344,
o
),
(
401,
393,
cs
),
(
535,
495,
ls
),
(
609,
552,
o
),
(
645,
605,
o
),
(
645,
656,
cs
),
(
645,
735,
o
),
(
568,
782,
o
),
(
439,
782,
cs
),
(
309,
782,
o
),
(
225,
731,
o
),
(
225,
652,
cs
),
(
225,
608,
o
),
(
264,
575,
o
),
(
317,
575,
cs
),
(
359,
575,
o
),
(
389,
598,
o
),
(
389,
630,
cs
),
(
389,
677,
o
),
(
328,
699,
o
),
(
328,
728,
cs
),
(
328,
746,
o
),
(
351,
757,
o
),
(
386,
757,
cs
),
(
445,
757,
o
),
(
486,
726,
o
),
(
486,
682,
cs
),
(
486,
646,
o
),
(
463,
610,
o
),
(
403,
565,
cs
),
(
260,
457,
ls
),
(
201,
412,
o
),
(
166,
358,
o
),
(
166,
310,
cs
),
(
166,
233,
o
),
(
236,
187,
o
),
(
352,
187,
cs
)
);
},
{
closed = 1;
nodes = (
(
297,
-14,
o
),
(
326,
16,
o
),
(
326,
50,
cs
),
(
326,
82,
o
),
(
302,
106,
o
),
(
270,
106,
cs
),
(
236,
106,
o
),
(
206,
77,
o
),
(
206,
42,
cs
),
(
206,
11,
o
),
(
231,
-14,
o
),
(
262,
-14,
cs
)
);
}
);
};
layerId = "D7B41CF0-3B67-4CB7-A79C-9F26C814559F";
name = "Double curl";
shapes = (
{
closed = 1;
nodes = (
(
470,
187,
o
),
(
547,
234,
o
),
(
547,
307,
cs
),
(
547,
348,
o
),
(
510,
381,
o
),
(
463,
381,
cs
),
(
425,
381,
o
),
(
397,
357,
o
),
(
397,
323,
cs
),
(
397,
276,
o
),
(
449,
264,
o
),
(
449,
239,
cs
),
(
449,
222,
o
),
(
423,
209,
o
),
(
387,
209,
cs
),
(
340,
209,
o
),
(
311,
233,
o
),
(
311,
270,
cs
),
(
311,
305,
o
),
(
337,
344,
o
),
(
401,
393,
cs
),
(
535,
495,
ls
),
(
609,
552,
o
),
(
645,
605,
o
),
(
645,
656,
cs
),
(
645,
735,
o
),
(
568,
782,
o
),
(
439,
782,
cs
),
(
309,
782,
o
),
(
225,
731,
o
),
(
225,
652,
cs
),
(
225,
608,
o
),
(
264,
575,
o
),
(
317,
575,
cs
),
(
359,
575,
o
),
(
389,
598,
o
),
(
389,
630,
cs
),
(
389,
677,
o
),
(
328,
699,
o
),
(
328,
728,
cs
),
(
328,
746,
o
),
(
351,
757,
o
),
(
386,
757,
cs
),
(
445,
757,
o
),
(
486,
726,
o
),
(
486,
682,
cs
),
(
486,
646,
o
),
(
463,
610,
o
),
(
403,
565,
cs
),
(
260,
457,
ls
),
(
201,
412,
o
),
(
166,
358,
o
),
(
166,
310,
cs
),
(
166,
233,
o
),
(
236,
187,
o
),
(
352,
187,
cs
)
);
},
{
closed = 1;
nodes = (
(
297,
-14,
o
),
(
326,
16,
o
),
(
326,
50,
cs
),
(
326,
82,
o
),
(
302,
106,
o
),
(
270,
106,
cs
),
(
236,
106,
o
),
(
206,
77,
o
),
(
206,
42,
cs
),
(
206,
11,
o
),
(
231,
-14,
o
),
(
262,
-14,
cs
)
);
}
);
width = 700;
},
{
associatedMasterId = "19651320-9895-44C9-9F41-285CE0F17596";
background = {
guides = (
{
angle = 74.4;
pos = (
136,
-111
);
},
{
pos = (
10,
208
);
}
);
shapes = (
{
closed = 1;
nodes = (
(
389,
208,
o
),
(
418,
214,
o
),
(
445,
227,
c
),
(
440,
242,
l
),
(
426,
237,
o
),
(
410,
234,
o
),
(
394,
234,
cs
),
(
359,
234,
o
),
(
341,
250,
o
),
(
341,
280,
cs
),
(
341,
400,
o
),
(
645,
471,
o
),
(
645,
643,
cs
),
(
645,
729,
o
),
(
567,
782,
o
),
(
438,
782,
cs
),
(
311,
782,
o
),
(
225,
731,
o
),
(
225,
657,
cs
),
(
225,
608,
o
),
(
262,
575,
o
),
(
316,
575,
cs
),
(
359,
575,
o
),
(
389,
598,
o
),
(
389,
630,
cs
),
(
389,
677,
o
),
(
328,
699,
o
),
(
328,
728,
cs
),
(
328,
746,
o
),
(
350,
757,
o
),
(
384,
757,
cs
),
(
444,
757,
o
),
(
486,
721,
o
),
(
486,
668,
cs
),
(
486,
528,
o
),
(
196,
479,
o
),
(
196,
321,
cs
),
(
196,
251,
o
),
(
255,
208,
o
),
(
352,
208,
cs
)
);
},
{
closed = 1;
nodes = (
(
287,
-14,
o
),
(
316,
16,
o
),
(
316,
50,
cs
),
(
316,
82,
o
),
(
292,
106,
o
),
(
260,
106,
cs
),
(
226,
106,
o
),
(
196,
77,
o
),
(
196,
42,
cs
),
(
196,
11,
o
),
(
221,
-14,
o
),
(
252,
-14,
cs
)
);
}
);
};
guides = (
{
angle = 74.4;
pos = (
227,
-111
);
},
{
pos = (
101,
208
);
}
);
layerId = "900D90BF-44B1-4F5C-9FB3-1C926A33CCE2";
name = hook;
shapes = (
{
closed = 1;
nodes = (
(
389,
208,
o
),
(
418,
214,
o
),
(
445,
227,
c
),
(
440,
242,
l
),
(
426,
237,
o
),
(
410,
234,
o
),
(
394,
234,
cs
),
(
359,
234,
o
),
(
341,
250,
o
),
(
341,
280,
cs
),
(
341,
400,
o
),
(
645,
471,
o
),
(
645,
643,
cs
),
(
645,
729,
o
),
(
567,
782,
o
),
(
438,
782,
cs
),
(
311,
782,
o
),
(
225,
731,
o
),
(
225,
657,
cs
),
(
225,
608,
o
),
(
262,
575,
o
),
(
316,
575,
cs
),
(
359,
575,
o
),
(
389,
598,
o
),
(
389,
630,
cs
),
(
389,
677,
o
),
(
328,
699,
o
),
(
328,
728,
cs
),
(
328,
746,
o
),
(
350,
757,
o
),
(
384,
757,
cs
),
(
444,
757,
o
),
(
486,
721,
o
),
(
486,
668,
cs
),
(
486,
528,
o
),
(
196,
479,
o
),
(
196,
321,
cs
),
(
196,
251,
o
),
(
255,
208,
o
),
(
352,
208,
cs
)
);
},
{
closed = 1;
nodes = (
(
287,
-14,
o
),
(
316,
16,
o
),
(
316,
50,
cs
),
(
316,
82,
o
),
(
292,
106,
o
),
(
260,
106,
cs
),
(
226,
106,
o
),
(
196,
77,
o
),
(
196,
42,
cs
),
(
196,
11,
o
),
(
221,
-14,
o
),
(
252,
-14,
cs
)
);
}
);
width = 700;
},
{
background = {
guides = (
{
angle = 74.4;
pos = (
181,
-99
);
},
{
angle = 74.4;
pos = (
-15,
-99
);
},
{
angle = 74.4;
pos = (
315,
-99
);
},
{
angle = 74.4;
pos = (
196,
-99
);
},
{
angle = 74.4;
pos = (
109,
-99
);
},
{
pos = (
66,
234
);
}
);
shapes = (
{
closed = 1;
nodes = (
(
364.5,
253,
l
),
(
361.5,
260,
o
),
(
359.5,
266,
o
),
(
359.5,
277,
cs
),
(
359.5,
398,
o
),
(
663.5,
445,
o
),
(
663.5,
627,
cs
),
(
663.5,
719,
o
),
(
578.5,
782,
o
),
(
453.5,
782,
cs
),
(
332.5,
782,
o
),
(
243.5,
722,
o
),
(
243.5,
640,
cs
),
(
243.5,
589,
o
),
(
279.5,
555,
o
),
(
332.5,
555,
cs
),
(
377.5,
555,
o
),
(
407.5,
581,
o
),
(
407.5,
621,
cs
),
(
407.5,
651,
o
),
(
389.5,
667,
o
),
(
389.5,
685,
cs
),
(
389.5,
703,
o
),
(
407.5,
715,
o
),
(
434.5,
715,
cs
),
(
475.5,
715,
o
),
(
504.5,
689,
o
),
(
504.5,
651,
cs
),
(
504.5,
524,
o
),
(
236.5,
475,
o
),
(
236.5,
335,
cs
),
(
236.5,
299,
o
),
(
258.5,
265,
o
),
(
300.5,
234,
c
)
);
},
{
closed = 1;
nodes = (
(
330.5,
-14,
o
),
(
378.5,
28,
o
),
(
378.5,
83,
cs
),
(
378.5,
133,
o
),
(
337.5,
168,
o
),
(
280.5,
168,
cs
),
(
217.5,
168,
o
),
(
170.5,
126,
o
),
(
170.5,
71,
cs
),
(
170.5,
21,
o
),
(
211.5,
-14,
o
),
(
268.5,
-14,
cs
)
);
}
);
};
guides = (
{
angle = 74.4;
pos = (
234.5,
-99
);
},
{
angle = 74.4;
pos = (
38.5,
-99
);
},
{
angle = 74.4;
pos = (
368.5,
-99
);
},
{
angle = 74.4;
pos = (
249.5,
-99
);
},
{
angle = 74.4;
pos = (
162.5,
-99
);
},
{
pos = (
119.5,
234
);
}
);
layerId = "5936EB7C-5C81-433B-ABAB-ADB37EE98828";
shapes = (
{
closed = 1;
nodes = (
(
364.5,
253,
l
),
(
361.5,
260,
o
),
(
359.5,
266,
o
),
(
359.5,
277,
cs
),
(
359.5,
398,
o
),
(
663.5,
445,
o
),
(
663.5,
627,
cs
),
(
663.5,
719,
o
),
(
578.5,
782,
o
),
(
453.5,
782,
cs
),
(
332.5,
782,
o
),
(
243.5,
722,
o
),
(
243.5,
640,
cs
),
(
243.5,
589,
o
),
(
279.5,
555,
o
),
(
332.5,
555,
cs
),
(
377.5,
555,
o
),
(
407.5,
581,
o
),
(
407.5,
621,
cs
),
(
407.5,
651,
o
),
(
389.5,
667,
o
),
(
389.5,
685,
cs
),
(
389.5,
703,
o
),
(
407.5,
715,
o
),
(
434.5,
715,
cs
),
(
475.5,
715,
o
),
(
504.5,
689,
o
),
(
504.5,
651,
cs
),
(
504.5,
524,
o
),
(
236.5,
475,
o
),
(
236.5,
335,
cs
),
(
236.5,
299,
o
),
(
258.5,
265,
o
),
(
300.5,
234,
c
)
);
},
{
closed = 1;
nodes = (
(
335.5,
-14,
o
),
(
383.5,
28,
o
),
(
383.5,
83,
cs
),
(
383.5,
133,
o
),
(
342.5,
168,
o
),
(
285.5,
168,
cs
),
(
222.5,
168,
o
),
(
175.5,
126,
o
),
(
175.5,
71,
cs
),
(
175.5,
21,
o
),
(
216.5,
-14,
o
),
(
273.5,
-14,
cs
)
);
}
);
width = 700;
},
{
associatedMasterId = "5936EB7C-5C81-433B-ABAB-ADB37EE98828";
background = {
guides = (
{
angle = 74.4;
pos = (
135,
-99
);
},
{
angle = 74.4;
pos = (
-61,
-99
);
},
{
angle = 74.4;
pos = (
269,
-99
);
},
{
angle = 74.4;
pos = (
150,
-99
);
},
{
angle = 74.4;
pos = (
63,
-99
);
}
);
shapes = (
{
closed = 1;
nodes = (
(
447,
188,
o
),
(
510,
238,
o
),
(
510,
310,
cs
),
(
510,
355,
o
),
(
486,
384,
o
),
(
449,
384,
cs
),
(
421,
384,
o
),
(
403,
368,
o
),
(
403,
342,
cs
),
(
403,
319,
o
),
(
417,
299,
o
),
(
417,
282,
cs
),
(
417,
264,
o
),
(
401,
255,
o
),
(
370,
255,
cs
),
(
321,
255,
o
),
(
296,
274,
o
),
(
296,
311,
cs
),
(
296,
348,
o
),
(
324,
384,
o
),
(
378,
417,
cs
),
(
494,
489,
ls
),
(
565,
533,
o
),
(
606,
593,
o
),
(
606,
653,
cs
),
(
606,
729,
o
),
(
542,
782,
o
),
(
450,
782,
cs
),
(
354,
782,
o
),
(
283,
724,
o
),
(
283,
647,
cs
),
(
283,
598,
o
),
(
313,
566,
o
),
(
357,
566,
cs
),
(
389,
566,
o
),
(
410,
582,
o
),
(
410,
607,
cs
),
(
410,
637,
o
),
(
376,
655,
o
),
(
376,
680,
cs
),
(
376,
701,
o
),
(
401,
715,
o
),
(
438,
715,
cs
),
(
490,
715,
o
),
(
525,
688,
o
),
(
525,
647,
cs
),
(
525,
608,
o
),
(
497,
570,
o
),
(
442,
536,
cs
),
(
334,
469,
ls
),
(
254,
419,
o
),
(
214,
364,
o
),
(
214,
304,
cs
),
(
214,
233,
o
),
(
268,
188,
o
),
(
355,
188,
cs
)
);
},
{
closed = 1;
nodes = (
(
339,
-14,
o
),
(
368,
16,
o
),
(
368,
50,
cs
),
(
368,
82,
o
),
(
344,
106,
o
),
(
312,
106,
cs
),
(
278,
106,
o
),
(
248,
77,
o
),
(
248,
42,
cs
),
(
248,
11,
o
),
(
273,
-14,
o
),
(
304,
-14,
cs
)
);
}
);
};
guides = (
{
angle = 74.4;
pos = (
266,
-99
);
},
{
angle = 74.4;
pos = (
70,
-99
);
},
{
angle = 74.4;
pos = (
400,
-99
);
},
{
angle = 74.4;
pos = (
281,
-99
);
},
{
angle = 74.4;
pos = (
194,
-99
);
}
);
layerId = "32CFCCC2-5B17-4FD9-8A12-C3B9B9B3F769";
name = "Double curl";
shapes = (
{
closed = 1;
nodes = (
(
447,
188,
o
),
(
510,
238,
o
),
(
510,
310,
cs
),
(
510,
355,
o
),
(
486,
384,
o
),
(
449,
384,
cs
),
(
421,
384,
o
),
(
403,
368,
o
),
(
403,
342,
cs
),
(
403,
319,
o
),
(
417,
299,
o
),
(
417,
282,
cs
),
(
417,
264,
o
),
(
401,
255,
o
),
(
370,
255,
cs
),
(
321,
255,
o
),
(
296,
274,
o
),
(
296,
311,
cs
),
(
296,
348,
o
),
(
324,
384,
o
),
(
378,
417,
cs
),
(
494,
489,
ls
),
(
565,
533,
o
),
(
606,
593,
o
),
(
606,
653,
cs
),
(
606,
729,
o
),
(
542,
782,
o
),
(
450,
782,
cs
),
(
354,
782,
o
),
(
283,
724,
o
),
(
283,
647,
cs
),
(
283,
598,
o
),
(
313,
566,
o
),
(
357,
566,
cs
),
(
389,
566,
o
),
(
410,
582,
o
),
(
410,
607,
cs
),
(
410,
637,
o
),
(
376,
655,
o
),
(
376,
680,
cs
),
(
376,
701,
o
),
(
401,
715,
o
),
(
438,
715,
cs
),
(
490,
715,
o
),
(
525,
688,
o
),
(
525,
647,
cs
),
(
525,
608,
o
),
(
497,
570,
o
),
(
442,
536,
cs
),
(
334,
469,
ls
),
(
254,
419,
o
),
(
214,
364,
o
),
(
214,
304,
cs
),
(
214,
233,
o
),
(
268,
188,
o
),
(
355,
188,
cs
)
);
},
{
closed = 1;
nodes = (
(
339,
-14,
o
),
(
368,
16,
o
),
(
368,
50,
cs
),
(
368,
82,
o
),
(
344,
106,
o
),
(
312,
106,
cs
),
(
278,
106,
o
),
(
248,
77,
o
),
(
248,
42,
cs
),
(
248,
11,
o
),
(
273,
-14,
o
),
(
304,
-14,
cs
)
);
}
);
width = 700;
},
{
associatedMasterId = "5936EB7C-5C81-433B-ABAB-ADB37EE98828";
background = {
guides = (
{
angle = 74.4;
pos = (
115,
-99
);
},
{
angle = 74.4;
pos = (
-81,
-99
);
},
{
angle = 74.4;
pos = (
249,
-99
);
},
{
angle = 74.4;
pos = (
130,
-99
);
},
{
angle = 74.4;
pos = (
43,
-99
);
},
{
pos = (
0,
208
);
}
);
shapes = (
{
closed = 1;
nodes = (
(
368,
208,
o
),
(
396,
214,
o
),
(
418,
223,
c
),
(
403,
281,
l
),
(
391,
277,
o
),
(
378,
275,
o
),
(
364,
275,
cs
),
(
326,
275,
o
),
(
306,
290,
o
),
(
306,
318,
cs
),
(
306,
422,
o
),
(
586,
469,
o
),
(
586,
643,
cs
),
(
586,
727,
o
),
(
524,
782,
o
),
(
431,
782,
cs
),
(
335,
782,
o
),
(
263,
724,
o
),
(
263,
647,
cs
),
(
263,
598,
o
),
(
293,
566,
o
),
(
337,
566,
cs
),
(
369,
566,
o
),
(
390,
582,
o
),
(
390,
607,
cs
),
(
390,
637,
o
),
(
356,
655,
o
),
(
356,
680,
cs
),
(
356,
701,
o
),
(
381,
715,
o
),
(
418,
715,
cs
),
(
472,
715,
o
),
(
505,
686,
o
),
(
505,
639,
cs
),
(
505,
505,
o
),
(
224,
471,
o
),
(
224,
312,
cs
),
(
224,
248,
o
),
(
269,
208,
o
),
(
341,
208,
cs
)
);
},
{
closed = 1;
nodes = (
(
319,
-14,
o
),
(
348,
16,
o
),
(
348,
50,
cs
),
(
348,
82,
o
),
(
324,
106,
o
),
(
292,
106,
cs
),
(
258,
106,
o
),
(
228,
77,
o
),
(
228,
42,
cs
),
(
228,
11,
o
),
(
253,
-14,
o
),
(
284,
-14,
cs
)
);
}
);
};
guides = (
{
angle = 74.4;
pos = (
246,
-99
);
},
{
angle = 74.4;
pos = (
50,
-99
);
},
{
angle = 74.4;
pos = (
380,
-99
);
},
{
angle = 74.4;
pos = (
261,
-99
);
},
{
angle = 74.4;
pos = (
174,
-99
);
},
{
pos = (
131,
208
);
}
);
layerId = "FD07FE07-85AE-4181-9E8B-3AA3AA67FF0B";
name = hook;
shapes = (
{
closed = 1;
nodes = (
(
368,
208,
o
),
(
396,
214,
o
),
(
418,
223,
c
),
(
403,
281,
l
),
(
391,
277,
o
),
(
378,
275,
o
),
(
364,
275,
cs
),
(
326,
275,
o
),
(
306,
290,
o
),
(
306,
318,
cs
),
(
306,
422,
o
),
(
586,
469,
o
),
(
586,
643,
cs
),
(
586,
727,
o
),
(
524,
782,
o
),
(
431,
782,
cs
),
(
335,
782,
o
),
(
263,
724,
o
),
(
263,
647,
cs
),
(
263,
598,
o
),
(
293,
566,
o
),
(
337,
566,
cs
),
(
369,
566,
o
),
(
390,
582,
o
),
(
390,
607,
cs
),
(
390,
637,
o
),
(
356,
655,
o
),
(
356,
680,
cs
),
(
356,
701,
o
),
(
381,
715,
o
),
(
418,
715,
cs
),
(
472,
715,
o
),
(
505,
686,
o
),
(
505,
639,
cs
),
(
505,
505,
o
),
(
224,
471,
o
),
(
224,
312,
cs
),
(
224,
248,
o
),
(
269,
208,
o
),
(
341,
208,
cs
)
);
},
{
closed = 1;
nodes = (
(
319,
-14,
o
),
(
348,
16,
o
),
(
348,
50,
cs
),
(
348,
82,
o
),
(
324,
106,
o
),
(
292,
106,
cs
),
(
258,
106,
o
),
(
228,
77,
o
),
(
228,
42,
cs
),
(
228,
11,
o
),
(
253,
-14,
o
),
(
284,
-14,
cs
)
);
}
);
width = 700;
}
);
unicode = 63;
userData = {
KernOnSpecialSpacing = {};
};
}
{
color = 4;
glyphname = A;
kernLeft = KO_A;
kernRight = KO_A;
layers = (
{
anchors = (
{
name = bottom;
pos = (
343,
0
);
},
{
name = center;
pos = (
448,
354
);
},
{
name = ogonek;
pos = (
580,
0
);
},
{
name = top;
pos = (
536,
708
);
},
{
name = top_low_1;
pos = (
530.416,
688
);
},
{
name = top_low_2;
pos = (
524.832,
668
);
},
{
name = top_low_3;
pos = (
519.248,
648
);
},
{
name = top_low_4;
pos = (
513.664,
628
);
},
{
name = top_low_5;
pos = (
508.079,
608
);
}
);
background = {
anchors = (
{
name = bottom;
pos = (
259,
0
);
},
{
name = center;
pos = (
364,
354
);
},
{
name = ogonek;
pos = (
496,
0
);
},
{
name = top;
pos = (
452,
708
);
}
);
shapes = (
{
closed = 1;
nodes = (
(
40,
2,
o
),
(
76,
3,
o
),
(
110,
3,
cs
),
(
151,
3,
o
),
(
193,
2,
o
),
(
224,
0,
c
),
(
224,
1,
l
),
(
128,
10,
o
),
(
113,
59,
o
),
(
173,
149,
cs
),
(
486,
624,
l
),
(
471,
602,
l
),
(
524,
85,
ls
),
(
531,
19,
o
),
(
515,
7,
o
),
(
432,
1,
c
),
(
432,
0,
l
),
(
459,
1,
o
),
(
506,
3,
o
),
(
564,
3,
cs
),
(
616,
3,
o
),
(
663,
1,
o
),
(
691,
0,
c
),
(
691,
1,
l
),
(
638,
4,
o
),
(
624,
17,
o
),
(
619,
65,
cs
),
(
551,
723,
l
),
(
550,
723,
l
),
(
155,
124,
ls
),
(
101,
42,
o
),
(
65,
10,
o
),
(
14,
1,
c
),
(
14,
0,
l
)
);
},
{
closed = 1;
nodes = (
(
550,
277,
l
),
(
551,
278,
l
),
(
257,
278,
l
),
(
257,
277,
l
)
);
}
);
};
layerId = "8A8107C8-C076-4746-AE01-7D15750BBEFC";
shapes = (
{
closed = 1;
nodes = (
(
486,
623,
l
),
(
471,
602,
l
),
(
524,
87,
l
),
(
531,
22,
o
),
(
519,
11,
o
),
(
459,
4,
c
),
(
440,
2,
l
),
(
440,
1,
l
),
(
468,
1,
o
),
(
514,
3,
o
),
(
575,
3,
c
),
(
580,
3,
l
),
(
587,
3,
l
),
(
632,
3,
o
),
(
666,
1,
o
),
(
687,
0,
c
),
(
687,
1,
l
),
(
677,
2,
l
),
(
636,
6,
o
),
(
624,
22,
o
),
(
618,
77,
c
),
(
551,
723,
l
),
(
550,
723,
l
),
(
162,
135,
l
),
(
103,
45,
o
),
(
63,
13,
o
),
(
10,
3,
c
),
(
0,
1,
l
),
(
0,
0,
l
),
(
17,
1,
o
),
(
44,
3,
o
),
(
85,
3,
c
),
(
122,
3,
o
),
(
183,
2,
o
),
(
225,
0,
c
),
(
225,
1,
l
),
(
215,
2,
l
),
(
130,
11,
o
),
(
115,
60,
o
),
(
171,
146,
c
)
);
},
{
closed = 1;
nodes = (
(
550,
277,
l
),
(
551,
278,
l
),
(
257,
278,
l
),
(
257,
277,
l
)
);
}
);
width = 700;
},
{
anchors = (
{
name = bottom;
pos = (
366.268,
0
);
},
{
name = center;
pos = (
454.582,
354
);
},
{
name = ogonek;
pos = (
586.587,
0
);
},
{
name = top;
pos = (
539.177,
708
);
},
{
name = top_low_1;
pos = (
533.986,
688
);
},
{
name = top_low_2;
pos = (
528.795,
668
);
},
{
name = top_low_3;
pos = (
523.604,
648
);
},
{
name = top_low_4;
pos = (
518.413,
628
);
},
{
name = top_low_5;
pos = (
513.221,
608
);
}
);
background = {
anchors = (
{
name = bottom;
pos = (
302,
0
);
},
{
name = center;
pos = (
397,
354
);
},
{
name = ogonek;
pos = (
539,
0
);
},
{
name = top;
pos = (
488,
708
);
}
);
shapes = (
{
closed = 1;
nodes = (
(
51.129,
2,
o
),
(
91.102,
3,
o
),
(
133.864,
3,
cs
),
(
183.134,
3,
o
),
(
242.629,
2,
o
),
(
310.491,
0,
c
),
(
329.084,
70,
l
),
(
221.248,
72,
o
),
(
212.882,
98,
o
),
(
282.603,
212,
cs
),
(
526.162,
609,
l
),
(
501.992,
594,
l
),
(
543.825,
154,
ls
),
(
550.332,
86,
o
),
(
528.021,
70,
o
),
(
422.975,
70,
c
),
(
404.382,
0,
l
),
(
435.989,
2,
o
),
(
491.766,
3,
o
),
(
571.713,
3,
cs
),
(
644.223,
3,
o
),
(
696.281,
2,
o
),
(
726.029,
0,
c
),
(
744.621,
70,
l
),
(
665.604,
70,
o
),
(
635.856,
96,
o
),
(
628.42,
170,
cs
),
(
577.291,
708,
l
),
(
515.936,
708,
l
),
(
194.289,
184,
ls
),
(
140.372,
96,
o
),
(
98.539,
70,
o
),
(
26.029,
70,
c
),
(
7.437,
0,
l
)
);
},
{
closed = 1;
nodes = (
(
581.009,
246,
l
),
(
572.643,
316,
l
),
(
323.506,
316,
l
),
(
280.744,
246,
l
)
);
}
);
};
layerId = "4637ED20-F3CC-4D04-82BF-886AF47DA6B7";
shapes = (
{
closed = 1;
nodes = (
(
527.092,
609,
l
),
(
501.992,
594,
l
),
(
543.825,
156,
l
),
(
549.402,
100,
o
),
(
532.669,
80,
o
),
(
466.667,
75,
c
),
(
422.045,
71,
l
),
(
402.523,
1,
l
),
(
443.426,
2,
o
),
(
532.669,
3,
o
),
(
597.742,
3,
c
),
(
602.39,
3,
l
),
(
604.25,
3,
l
),
(
633.068,
3,
o
),
(
676.76,
2,
o
),
(
719.522,
0,
c
),
(
738.114,
70,
l
),
(
688.845,
75,
l
),
(
647.941,
80,
o
),
(
636.786,
95,
o
),
(
630.279,
156,
c
),
(
578.22,
708,
l
),
(
516.866,
708,
l
),
(
204.515,
199,
l
),
(
146.879,
105,
o
),
(
113.413,
80,
o
),
(
37.184,
72,
c
),
(
18.592,
70,
l
),
(
0,
0,
l
),
(
43.692,
2,
o
),
(
94.821,
3,
o
),
(
145.02,
3,
c
),
(
194.289,
3,
o
),
(
250.996,
2,
o
),
(
309.562,
0,
c
),
(
328.154,
70,
l
),
(
303.984,
73,
l
),
(
236.122,
81,
o
),
(
229.615,
123,
o
),
(
281.673,
209,
c
)
);
},
{
closed = 1;
nodes = (
(
581.009,
246,
l
),
(
572.643,
316,
l
),
(
323.506,
316,
l
),
(
280.744,
246,
l
)
);
}
);
width = 700;
},
{
anchors = (
{
name = bottom;
pos = (
368.265,
0
);
},
{
name = center;
pos = (
472.919,
354
);
},
{
name = ogonek;
pos = (
626.939,
0
);
},
{
name = top;
pos = (
560.789,
708
);
},
{
name = top_low_1;
pos = (
555.276,
688
);
},
{
name = top_low_2;
pos = (
549.763,
668
);
},
{
name = top_low_3;
pos = (
544.25,
648
);
},
{
name = top_low_4;
pos = (
538.737,
628
);
},
{
name = top_low_5;
pos = (
533.223,
608
);
}
);
background = {
anchors = (
{
name = bottom;
pos = (
271,
0
);
},
{
name = center;
pos = (
377,
354
);
},
{
name = ogonek;
pos = (
533,
0
);
},
{
name = top;
pos = (
466,
708
);
}
);
shapes = (
{
closed = 1;
nodes = (
(
46.403,
2,
o
),
(
74.047,
3,
o
),
(
107.616,
3,
cs
),
(
144.146,
3,
o
),
(
181.664,
2,
o
),
(
235.966,
0,
c
),
(
235.966,
1,
l
),
(
143.159,
6,
o
),
(
147.108,
108,
o
),
(
244.851,
248,
cs
),
(
433.427,
518,
l
),
(
420.592,
501,
l
),
(
500.564,
85,
ls
),
(
510.437,
32,
o
),
(
482.792,
4,
o
),
(
419.605,
1,
c
),
(
419.605,
0,
l
),
(
454.16,
2,
o
),
(
517.348,
3,
o
),
(
603.244,
3,
cs
),
(
667.418,
3,
o
),
(
719.746,
2,
o
),
(
762.2,
0,
c
),
(
762.2,
1,
l
),
(
727.644,
7,
o
),
(
708.885,
27,
o
),
(
697.038,
89,
cs
),
(
574.612,
723,
l
),
(
573.624,
723,
l
),
(
208.321,
198,
ls
),
(
116.502,
66,
o
),
(
71.086,
20,
o
),
(
10.86,
1,
c
),
(
10.86,
0,
l
)
);
},
{
closed = 1;
nodes = (
(
524.259,
227,
l
),
(
524.259,
228,
l
),
(
230.042,
228,
l
),
(
229.055,
227,
l
)
);
}
);
};
layerId = "19651320-9895-44C9-9F41-285CE0F17596";
shapes = (
{
closed = 1;
nodes = (
(
432.44,
518,
l
),
(
419.605,
501,
l
),
(
499.576,
89,
l
),
(
512.411,
25,
o
),
(
493.653,
8,
o
),
(
445.275,
3,
c
),
(
420.592,
1,
l
),
(
420.592,
0,
l
),
(
456.135,
1,
o
),
(
522.284,
3,
o
),
(
613.117,
3,
c
),
(
615.091,
3,
l
),
(
617.066,
3,
l
),
(
684.203,
3,
o
),
(
734.555,
0,
o
),
(
761.212,
-2,
c
),
(
761.212,
-1,
l
),
(
748.378,
1,
l
),
(
718.758,
8,
o
),
(
709.873,
14,
o
),
(
701.974,
57,
c
),
(
573.624,
723,
l
),
(
572.637,
723,
l
),
(
241.889,
248,
l
),
(
117.489,
69,
o
),
(
74.047,
24,
o
),
(
12.834,
5,
c
),
(
0,
1,
l
),
(
0,
0,
l
),
(
39.492,
2,
o
),
(
62.2,
3,
o
),
(
100.705,
3,
c
),
(
141.184,
3,
o
),
(
166.854,
2,
o
),
(
225.105,
0,
c
),
(
225.105,
1,
l
),
(
218.194,
2,
l
),
(
135.26,
14,
o
),
(
145.134,
106,
o
),
(
243.864,
248,
c
)
);
},
{
closed = 1;
nodes = (
(
524.259,
227,
l
),
(
524.259,
228,
l
),
(
230.042,
228,
l
),
(
229.055,
227,
l
)
);
}
);
width = 700;
},
{
anchors = (
{
name = bottom;
pos = (
334.709,
0
);
},
{
name = center;
pos = (
416.262,
354
);
},
{
name = ogonek;
pos = (
536.044,
0
);
},
{
name = top;
pos = (
492.719,
708
);
},
{
name = top_low_1;
pos = (
487.975,
688
);
},
{
name = top_low_2;
pos = (
483.231,
668
);
},
{
name = top_low_3;
pos = (
478.487,
648
);
},
{
name = top_low_4;
pos = (
473.744,
628
);
},
{
name = top_low_5;
pos = (
468.999,
608
);
}
);
background = {
anchors = (
{
name = bottom;
pos = (
312,
0
);
},
{
name = center;
pos = (
408,
354
);
},
{
name = ogonek;
pos = (
549,
0
);
},
{
name = top;
pos = (
498,
708
);
}
);
shapes = (
{
closed = 1;
nodes = (
(
47.573,
2,
o
),
(
84.102,
3,
o
),
(
123.18,
3,
cs
),
(
168.204,
3,
o
),
(
222.573,
2,
o
),
(
284.587,
0,
c
),
(
301.578,
70,
l
),
(
203.034,
72,
o
),
(
195.388,
98,
o
),
(
259.102,
212,
cs
),
(
481.675,
609,
l
),
(
394.175,
507,
l
),
(
458.738,
154,
ls
),
(
470.631,
89,
o
),
(
443.447,
70,
o
),
(
345.752,
70,
c
),
(
328.762,
0,
l
),
(
370.388,
2,
o
),
(
444.296,
3,
o
),
(
548.786,
3,
cs
),
(
626.942,
3,
o
),
(
683.01,
2,
o
),
(
715.291,
0,
c
),
(
732.282,
70,
l
),
(
660.073,
70,
o
),
(
639.685,
97,
o
),
(
626.092,
170,
cs
),
(
528.398,
708,
l
),
(
472.33,
708,
l
),
(
178.398,
184,
ls
),
(
129.126,
96,
o
),
(
90.898,
70,
o
),
(
24.636,
70,
c
),
(
7.646,
0,
l
)
);
},
{
closed = 1;
nodes = (
(
510.558,
193,
l
),
(
497.816,
263,
l
),
(
261.651,
263,
l
),
(
227.67,
193,
l
)
);
}
);
};
layerId = "5936EB7C-5C81-433B-ABAB-ADB37EE98828";
shapes = (
{
closed = 1;
nodes = (
(
481.675,
609,
l
),
(
394.175,
507,
l
),
(
457.888,
156,
l
),
(
469.782,
92,
o
),
(
456.189,
79,
o
),
(
410.316,
74,
c
),
(
373.786,
70,
l
),
(
356.796,
0,
l
),
(
421.359,
2,
o
),
(
513.956,
3,
o
),
(
567.476,
3,
c
),
(
571.723,
3,
l
),
(
575.121,
3,
l
),
(
608.252,
3,
o
),
(
666.869,
2,
o
),
(
705.097,
0,
c
),
(
721.238,
70,
l
),
(
690.655,
73,
l
),
(
654.126,
77,
o
),
(
641.384,
87,
o
),
(
632.039,
136,
c
),
(
528.398,
708,
l
),
(
472.33,
708,
l
),
(
186.893,
199,
l
),
(
134.223,
105,
o
),
(
103.641,
80,
o
),
(
33.981,
72,
c
),
(
16.99,
70,
l
),
(
0,
0,
l
),
(
39.927,
2,
o
),
(
86.651,
3,
o
),
(
132.524,
3,
c
),
(
177.549,
3,
o
),
(
229.369,
2,
o
),
(
282.888,
0,
c
),
(
299.879,
70,
l
),
(
277.791,
73,
l
),
(
215.777,
81,
o
),
(
209.83,
123,
o
),
(
257.403,
209,
c
)
);
},
{
closed = 1;
nodes = (
(
510.558,
193,
l
),
(
497.816,
263,
l
),
(
261.651,
263,
l
),
(
227.67,
193,
l
)
);
}
);
width = 700;
}
);
metricLeft = "=|V";
metricRight = "=|V";
unicode = 65;
userData = {
KernOnName = A;
};
}
{
color = 4;
glyphname = B;
kernLeft = KO_H;
kernRight = KO_B;
layers = (
{
anchors = (
{
name = bottom;
pos = (
278,
0
);
},
{
name = center;
pos = (
231,
367
);
},
{
name = currency;
pos = (
280,
0
);
},
{
name = top;
pos = (
439,
708
);
},
{
name = top_low_1;
pos = (
433,
688
);
},
{
name = top_low_2;
pos = (
428,
668
);
},
{
name = top_low_3;
pos = (
422,
648
);
},
{
name = top_low_4;
pos = (
417,
628
);
},
{
name = top_low_5;
pos = (
411,
608
);
}
);
background = {
anchors = (
{
name = bottom;
pos = (
256,
0
);
},
{
name = currency;
pos = (
248,
0
);
},
{
name = top;
pos = (
407,
708
);
}
);
guides = (
{
angle = 74.4;
pos = (
74,
87
);
},
{
angle = 74.4;
pos = (
-32,
0
);
}
);
shapes = (
{
closed = 1;
nodes = (
(
42,
1,
o
),
(
88,
2,
o
),
(
132,
2,
cs
),
(
172,
2,
o
),
(
255,
0,
o
),
(
288,
0,
cs
),
(
472,
0,
o
),
(
595,
80,
o
),
(
595,
201,
cs
),
(
595,
303,
o
),
(
508,
363,
o
),
(
353,
367,
c
),
(
353,
368,
l
),
(
531,
378,
o
),
(
642,
455,
o
),
(
642,
569,
cs
),
(
642,
658,
o
),
(
570,
708,
o
),
(
440,
708,
cs
),
(
416,
708,
o
),
(
390,
707,
o
),
(
322,
707,
cs
),
(
283,
707,
o
),
(
239,
707,
o
),
(
198,
708,
c
),
(
198,
707,
l
),
(
268,
700,
o
),
(
274,
689,
o
),
(
255,
621,
cs
),
(
106,
87,
ls
),
(
87,
18,
o
),
(
75,
9,
o
),
(
0,
1,
c
),
(
0,
0,
l
)
);
},
{
closed = 1;
nodes = (
(
191,
2,
o
),
(
180,
17,
o
),
(
199,
87,
cs
),
(
369,
706,
l
),
(
432,
706,
ls
),
(
504,
706,
o
),
(
543,
661,
o
),
(
543,
578,
cs
),
(
543,
453,
o
),
(
456,
368,
o
),
(
326,
368,
cs
),
(
266,
368,
l
),
(
265,
367,
l
),
(
326,
367,
ls
),
(
437,
367,
o
),
(
495,
314,
o
),
(
495,
213,
cs
),
(
495,
83,
o
),
(
405,
2,
o
),
(
261,
2,
cs
)
);
}
);
};
guides = (
{
angle = 74.4;
pos = (
106,
87
);
},
{
angle = 74.4;
pos = (
0,
0
);
}
);
layerId = "8A8107C8-C076-4746-AE01-7D15750BBEFC";
shapes = (
{
closed = 1;
nodes = (
(
132,
3,
l
),
(
172,
3,
o
),
(
255,
0,
o
),
(
288,
0,
cs
),
(
472,
0,
o
),
(
595,
80,
o
),
(
595,
201,
cs
),
(
595,
303,
o
),
(
508,
363,
o
),
(
353,
367,
c
),
(
353,
368,
l
),
(
531,
378,
o
),
(
642,
455,
o
),
(
642,
569,
cs
),
(
642,
658,
o
),
(
570,
708,
o
),
(
440,
708,
cs
),
(
418,
708,
o
),
(
394,
706,
o
),
(
332,
706,
c
),
(
328,
706,
l
),
(
269,
705,
o
),
(
225,
707,
o
),
(
198,
708,
c
),
(
198,
707,
l
),
(
218,
705,
l
),
(
271,
698,
o
),
(
273,
686,
o
),
(
255,
621,
c
),
(
106,
87,
l
),
(
88,
22,
o
),
(
76,
10,
o
),
(
18,
3,
c
),
(
1,
1,
l
),
(
1,
0,
l
),
(
27,
1,
o
),
(
71,
3,
o
),
(
128,
3,
c
)
);
},
{
closed = 1;
nodes = (
(
191,
2,
o
),
(
180,
17,
o
),
(
199,
87,
cs
),
(
371,
705,
l
),
(
432,
705,
ls
),
(
504,
705,
o
),
(
543,
661,
o
),
(
543,
578,
cs
),
(
543,
453,
o
),
(
456,
368,
o
),
(
326,
368,
cs
),
(
266,
368,
l
),
(
265,
367,
l
),
(
326,
367,
ls
),
(
437,
367,
o
),
(
495,
314,
o
),
(
495,
213,
cs
),
(
495,
83,
o
),
(
405,
2,
o
),
(
261,
2,
cs
)
);
}
);
width = 700;
},
{
anchors = (
{
name = bottom;
pos = (
312.756,
0
);
},
{
name = center;
pos = (
291.746,
367
);
},
{
name = currency;
pos = (
311.801,
0
);
},
{
name = top;
pos = (
495.157,
708
);
},
{
name = top_low_1;
pos = (
489.427,
688
);
},
{
name = top_low_2;
pos = (
484.652,
668
);
},
{
name = top_low_3;
pos = (
478.922,
648
);
},
{
name = top_low_4;
pos = (
474.147,
628
);
},
{
name = top_low_5;
pos = (
468.417,
608
);
}
);
background = {
anchors = (
{
name = bottom;
pos = (
353,
0
);
},
{
name = currency;
pos = (
312,
0
);
},
{
name = top;
pos = (
504,
708
);
}
);
guides = (
{
angle = 74.4;
pos = (
279,
156
);
},
{
angle = 74.4;
pos = (
669,
409
);
},
{
angle = 74.4;
pos = (
1,
0
);
},
{
angle = 74.4;
pos = (
723,
409
);
}
);
shapes = (
{
closed = 1;
nodes = (
(
43.452,
2,
o
),
(
103.615,
3,
o
),
(
194.338,
3,
cs
),
(
285.061,
3,
o
),
(
317.531,
0,
o
),
(
350.955,
0,
cs
),
(
528.581,
0,
o
),
(
644.134,
82,
o
),
(
644.134,
208,
cs
),
(
644.134,
293,
o
),
(
589.7,
355,
o
),
(
504.707,
368,
c
),
(
504.707,
370,
l
),
(
620.259,
393,
o
),
(
684.243,
459,
o
),
(
684.243,
553,
cs
),
(
684.243,
651,
o
),
(
616.439,
708,
o
),
(
496.112,
708,
cs
),
(
454.093,
708,
o
),
(
424.488,
705,
o
),
(
372.92,
705,
cs
),
(
284.106,
705,
o
),
(
227.763,
706,
o
),
(
203.888,
708,
c
),
(
184.789,
638,
l
),
(
298.431,
635,
o
),
(
315.621,
623,
o
),
(
296.521,
552,
cs
),
(
191.473,
156,
ls
),
(
172.374,
85,
o
),
(
151.364,
73,
o
),
(
33.902,
70,
c
),
(
14.802,
0,
l
)
);
},
{
closed = 1;
nodes = (
(
273.602,
73,
o
),
(
261.187,
86,
o
),
(
280.286,
156,
cs
),
(
409.209,
638,
l
),
(
477.012,
638,
ls
),
(
547.681,
638,
o
),
(
588.745,
604,
o
),
(
588.745,
544,
cs
),
(
588.745,
463,
o
),
(
511.392,
401,
o
),
(
411.119,
401,
cs
),
(
336.63,
401,
l
),
(
319.441,
334,
l
),
(
380.559,
334,
ls
),
(
490.382,
334,
o
),
(
548.636,
293,
o
),
(
548.636,
216,
cs
),
(
548.636,
128,
o
),
(
470.327,
73,
o
),
(
345.225,
73,
cs
)
);
}
);
};
guides = (
{
angle = 74.4;
pos = (
280.286,
156
);
},
{
angle = 74.4;
pos = (
652.729,
409
);
},
{
angle = 74.4;
pos = (
14.802,
0
);
},
{
angle = 74.4;
pos = (
704.297,
409
);
}
);
layerId = "4637ED20-F3CC-4D04-82BF-886AF47DA6B7";
shapes = (
{
closed = 1;
nodes = (
(
194.338,
3,
l
),
(
285.061,
3,
o
),
(
317.531,
0,
o
),
(
350.955,
0,
cs
),
(
528.581,
0,
o
),
(
644.134,
82,
o
),
(
644.134,
208,
cs
),
(
644.134,
293,
o
),
(
589.7,
355,
o
),
(
504.707,
368,
c
),
(
504.707,
370,
l
),
(
620.259,
393,
o
),
(
684.243,
459,
o
),
(
684.243,
553,
cs
),
(
684.243,
651,
o
),
(
616.439,
708,
o
),
(
496.112,
708,
cs
),
(
466.508,
708,
o
),
(
411.119,
705,
o
),
(
382.469,
705,
c
),
(
376.739,
705,
l
),
(
316.576,
705,
o
),
(
238.267,
707,
o
),
(
201.978,
708,
c
),
(
182.879,
638,
l
),
(
233.492,
633,
l
),
(
303.206,
626,
o
),
(
312.756,
608,
o
),
(
296.521,
552,
c
),
(
191.473,
156,
l
),
(
177.149,
100,
o
),
(
158.049,
81,
o
),
(
88.336,
75,
c
),
(
34.857,
70,
l
),
(
15.757,
-1,
l
),
(
53.001,
1,
o
),
(
137.04,
3,
o
),
(
197.203,
3,
c
)
);
},
{
closed = 1;
nodes = (
(
273.602,
73,
o
),
(
262.142,
86,
o
),
(
280.286,
156,
cs
),
(
408.254,
638,
l
),
(
477.012,
638,
ls
),
(
547.681,
638,
o
),
(
588.745,
604,
o
),
(
588.745,
544,
cs
),
(
588.745,
463,
o
),
(
511.392,
401,
o
),
(
411.119,
401,
cs
),
(
336.63,
401,
l
),
(
319.441,
334,
l
),
(
380.559,
334,
ls
),
(
490.382,
334,
o
),
(
548.636,
293,
o
),
(
548.636,
216,
cs
),
(
548.636,
128,
o
),
(
470.327,
73,
o
),
(
345.225,
73,
cs
)
);
}
);
width = 700;
},
{
anchors = (
{
name = bottom;
pos = (
319.161,
0
);
},
{
name = center;
pos = (
275.105,
367
);
},
{
name = currency;
pos = (
337.762,
0
);
},
{
name = top;
pos = (
493.427,
708
);
},
{
name = top_low_1;
pos = (
487.553,
688
);
},
{
name = top_low_2;
pos = (
482.657,
668
);
},
{
name = top_low_3;
pos = (
476.783,
648
);
},
{
name = top_low_4;
pos = (
471.888,
628
);
},
{
name = top_low_5;
pos = (
466.014,
608
);
}
);
background = {
anchors = (
{
name = bottom;
pos = (
295,
0
);
},
{
name = currency;
pos = (
304,
0
);
},
{
name = top;
pos = (
463,
708
);
}
);
guides = (
{
angle = 74.4;
pos = (
60,
87
);
},
{
angle = 74.4;
pos = (
-41,
0
);
}
);
shapes = (
{
closed = 1;
nodes = (
(
32.308,
1,
o
),
(
90.07,
3,
o
),
(
173.287,
3,
cs
),
(
231.049,
3,
o
),
(
267.273,
0,
o
),
(
346.574,
0,
cs
),
(
568.811,
0,
o
),
(
687.273,
71,
o
),
(
687.273,
204,
cs
),
(
687.273,
309,
o
),
(
595.245,
366,
o
),
(
424.895,
366,
c
),
(
424.895,
367,
l
),
(
622.657,
373,
o
),
(
738.182,
444,
o
),
(
738.182,
561,
cs
),
(
738.182,
658,
o
),
(
655.944,
708,
o
),
(
492.448,
708,
cs
),
(
465.035,
708,
o
),
(
411.189,
707,
o
),
(
360.28,
707,
cs
),
(
280,
707,
o
),
(
224.196,
707,
o
),
(
193.846,
708,
c
),
(
193.846,
707,
l
),
(
257.483,
700,
o
),
(
263.357,
689,
o
),
(
244.755,
621,
cs
),
(
98.881,
87,
ls
),
(
82.238,
27,
o
),
(
80.28,
10,
o
),
(
0,
1,
c
),
(
0,
0,
l
)
);
},
{
closed = 1;
nodes = (
(
292.727,
1,
o
),
(
281.958,
28,
o
),
(
297.622,
87,
cs
),
(
466.993,
707,
l
),
(
472.867,
707,
ls
),
(
533.567,
707,
o
),
(
556.084,
663,
o
),
(
556.084,
583,
cs
),
(
556.084,
465,
o
),
(
492.448,
368,
o
),
(
415.105,
368,
cs
),
(
339.72,
368,
l
),
(
339.72,
367,
l
),
(
407.273,
367,
ls
),
(
459.161,
367,
o
),
(
488.532,
313,
o
),
(
488.532,
219,
cs
),
(
488.532,
103,
o
),
(
417.063,
1,
o
),
(
335.804,
1,
cs
)
);
}
);
};
guides = (
{
angle = 74.4;
pos = (
98.881,
87
);
},
{
angle = 74.4;
pos = (
0,
0
);
}
);
layerId = "19651320-9895-44C9-9F41-285CE0F17596";
shapes = (
{
closed = 1;
nodes = (
(
183.077,
3,
l
),
(
237.902,
3,
o
),
(
272.168,
0,
o
),
(
346.574,
0,
cs
),
(
568.811,
0,
o
),
(
687.273,
71,
o
),
(
687.273,
204,
cs
),
(
687.273,
309,
o
),
(
595.245,
366,
o
),
(
424.895,
366,
c
),
(
424.895,
367,
l
),
(
622.657,
373,
o
),
(
738.182,
444,
o
),
(
738.182,
561,
cs
),
(
738.182,
658,
o
),
(
655.944,
708,
o
),
(
492.448,
708,
cs
),
(
466.993,
708,
o
),
(
417.063,
706,
o
),
(
370.07,
706,
c
),
(
366.154,
706,
l
),
(
284.895,
705,
o
),
(
224.196,
707,
o
),
(
191.888,
708,
c
),
(
191.888,
707,
l
),
(
214.406,
705,
l
),
(
259.441,
700,
o
),
(
262.378,
684,
o
),
(
244.755,
621,
c
),
(
98.881,
87,
l
),
(
82.238,
24,
o
),
(
66.574,
8,
o
),
(
20.56,
3,
c
),
(
0,
1,
l
),
(
0,
0,
l
),
(
31.329,
1,
o
),
(
91.049,
3,
o
),
(
170.35,
3,
c
)
);
},
{
closed = 1;
nodes = (
(
292.727,
1,
o
),
(
281.958,
28,
o
),
(
297.622,
87,
cs
),
(
466.993,
707,
l
),
(
472.867,
707,
ls
),
(
533.567,
707,
o
),
(
556.084,
663,
o
),
(
556.084,
583,
cs
),
(
556.084,
465,
o
),
(
492.448,
368,
o
),
(
415.105,
368,
cs
),
(
339.72,
368,
l
),
(
339.72,
367,
l
),
(
407.273,
367,
ls
),
(
459.161,
367,
o
),
(
488.532,
313,
o
),
(
488.532,
219,
cs
),
(
488.532,
103,
o
),
(
417.063,
1,
o
),
(
335.804,
1,
cs
)
);
}
);
width = 700;
},
{
anchors = (
{
name = bottom;
pos = (
305.79,
0
);
},
{
name = center;
pos = (
283.685,
367
);
},
{
name = currency;
pos = (
346.316,
0
);
},
{
name = top;
pos = (
528.685,
708
);
},
{
name = top_low_1;
pos = (
523.158,
688
);
},
{
name = top_low_2;
pos = (
518.553,
668
);
},
{
name = top_low_3;
pos = (
513.027,
648
);
},
{
name = top_low_4;
pos = (
508.421,
628
);
},
{
name = top_low_5;
pos = (
502.895,
608
);
}
);
background = {
anchors = (
{
name = bottom;
pos = (
380,
0
);
},
{
name = currency;
pos = (
333,
0
);
},
{
name = top;
pos = (
531,
708
);
}
);
guides = (
{
angle = 74.4;
pos = (
306,
156
);
},
{
angle = 74.4;
pos = (
696,
409
);
},
{
angle = 74.4;
pos = (
103,
156
);
},
{
angle = 74.4;
pos = (
750,
409
);
},
{
angle = 74.4;
pos = (
-42,
0
);
}
);
shapes = (
{
closed = 1;
nodes = (
(
23.948,
2,
o
),
(
81.974,
3,
o
),
(
164.869,
3,
cs
),
(
325.132,
3,
o
),
(
346.316,
0,
o
),
(
381.316,
0,
cs
),
(
560,
0,
o
),
(
672.369,
80,
o
),
(
672.369,
206,
cs
),
(
672.369,
287,
o
),
(
625.395,
343,
o
),
(
537.895,
368,
c
),
(
537.895,
370,
l
),
(
658.553,
407,
o
),
(
720.264,
471,
o
),
(
720.264,
557,
cs
),
(
720.264,
656,
o
),
(
640.132,
708,
o
),
(
486.316,
708,
cs
),
(
450.395,
708,
o
),
(
436.579,
705,
o
),
(
309.474,
705,
cs
),
(
241.316,
705,
o
),
(
195.264,
706,
o
),
(
183.29,
708,
c
),
(
164.869,
638,
l
),
(
244.079,
635,
o
),
(
254.211,
623,
o
),
(
235.79,
552,
cs
),
(
134.474,
156,
ls
),
(
118.816,
95,
o
),
(
113.29,
73,
o
),
(
19.343,
70,
c
),
(
0.921,
0,
l
)
);
},
{
closed = 1;
nodes = (
(
311.316,
73,
o
),
(
303.948,
89,
o
),
(
321.448,
156,
cs
),
(
445.79,
638,
l
),
(
455.921,
638,
ls
),
(
512.106,
638,
o
),
(
545.264,
604,
o
),
(
545.264,
544,
cs
),
(
545.264,
463,
o
),
(
486.316,
401,
o
),
(
410.79,
401,
cs
),
(
375.79,
401,
l
),
(
359.211,
334,
l
),
(
372.106,
334,
ls
),
(
447.632,
334,
o
),
(
488.158,
296,
o
),
(
488.158,
226,
cs
),
(
488.158,
138,
o
),
(
429.211,
73,
o
),
(
350.921,
73,
cs
)
);
}
);
};
guides = (
{
angle = 74.4;
pos = (
321.448,
156
);
},
{
angle = 74.4;
pos = (
680.658,
409
);
},
{
angle = 74.4;
pos = (
134.474,
156
);
},
{
angle = 74.4;
pos = (
730.395,
409
);
},
{
angle = 74.4;
pos = (
0.921,
0
);
}
);
layerId = "5936EB7C-5C81-433B-ABAB-ADB37EE98828";
shapes = (
{
closed = 1;
nodes = (
(
191.579,
3,
l
),
(
332.5,
3,
o
),
(
350.921,
0,
o
),
(
381.316,
0,
cs
),
(
560,
0,
o
),
(
672.369,
80,
o
),
(
672.369,
206,
cs
),
(
672.369,
287,
o
),
(
625.395,
343,
o
),
(
537.895,
368,
c
),
(
537.895,
370,
l
),
(
658.553,
407,
o
),
(
720.264,
471,
o
),
(
720.264,
557,
cs
),
(
720.264,
656,
o
),
(
640.132,
708,
o
),
(
486.316,
708,
cs
),
(
454.079,
708,
o
),
(
408.948,
705,
o
),
(
373.948,
705,
c
),
(
370.264,
705,
l
),
(
322.369,
705,
o
),
(
237.632,
706,
o
),
(
183.29,
708,
c
),
(
165.79,
638,
l
),
(
198.948,
635,
l
),
(
248.685,
630,
o
),
(
252.369,
616,
o
),
(
235.79,
552,
c
),
(
133.553,
156,
l
),
(
117.895,
92,
o
),
(
102.237,
78,
o
),
(
49.737,
73,
c
),
(
18.421,
70,
l
),
(
0,
0,
l
),
(
53.421,
2,
o
),
(
136.316,
3,
o
),
(
182.369,
3,
c
)
);
},
{
closed = 1;
nodes = (
(
311.316,
73,
o
),
(
303.948,
89,
o
),
(
321.448,
156,
cs
),
(
444.869,
638,
l
),
(
455.921,
638,
ls
),
(
512.106,
638,
o
),
(
545.264,
604,
o
),
(
545.264,
544,
cs
),
(
545.264,
463,
o
),
(
486.316,
401,
o
),
(
410.79,
401,
cs
),
(
375.79,
401,
l
),
(
359.211,
334,
l
),
(
372.106,
334,
ls
),
(
447.632,
334,
o
),
(
488.158,
296,
o
),
(
488.158,
226,
cs
),
(
488.158,
138,
o
),
(
429.211,
73,
o
),
(
350.921,
73,
cs
)
);
}
);
width = 700;
}
);
metricLeft = I;
unicode = 66;
}
{
glyphname = C;
kernLeft = KO_O;
kernRight = KO_C;
layers = (
{
anchors = (
{
name = bottom;
pos = (
357,
0
);
},
{
name = center;
pos = (
398,
354
);
},
{
name = currency;
pos = (
304,
0
);
},
{
name = middlestroke;
pos = (
186,
354
);
},
{
name = stem;
pos = (
657,
478
);
},
{
name = top;
pos = (
460,
708
);
},
{
name = top_low_1;
pos = (
454.416,
688
);
},
{
name = top_low_2;
pos = (
448.832,
668
);
},
{
name = top_low_3;
pos = (
443.248,
648
);
},
{
name = top_low_4;
pos = (
437.664,
628
);
},
{
name = top_low_5;
pos = (
432.079,
608
);
}
);
background = {
anchors = (
{
name = bottom;
pos = (
356,
0
);
},
{
name = top;
pos = (
459,
708
);
}
);
shapes = (
{
closed = 1;
nodes = (
(
445,
-14,
o
),
(
492,
50,
o
),
(
520,
50,
cs
),
(
535,
50,
o
),
(
540,
32,
o
),
(
534,
0,
c
),
(
557,
0,
l
),
(
566,
49,
o
),
(
582,
114,
o
),
(
616,
240,
c
),
(
593,
240,
l
),
(
530,
79,
o
),
(
460,
11,
o
),
(
357,
11,
cs
),
(
241,
11,
o
),
(
179,
97,
o
),
(
179,
258,
cs
),
(
179,
501,
o
),
(
319,
704,
o
),
(
487,
704,
cs
),
(
597,
704,
o
),
(
652,
619,
o
),
(
634,
478,
c
),
(
657,
478,
l
),
(
678,
565,
o
),
(
699,
641,
o
),
(
721,
708,
c
),
(
698,
708,
l
),
(
683,
667,
o
),
(
669,
648,
o
),
(
654,
648,
cs
),
(
625,
648,
o
),
(
597,
722,
o
),
(
469,
722,
cs
),
(
257,
722,
o
),
(
79,
517,
o
),
(
79,
271,
cs
),
(
79,
93,
o
),
(
173,
-14,
o
),
(
331,
-14,
cs
)
);
},
{
closed = 1;
nodes = (
(
423,
-14,
o
),
(
465,
39,
o
),
(
523,
39,
cs
),
(
547,
39,
o
),
(
558,
25,
o
),
(
563,
-14,
c
),
(
564,
-14,
l
),
(
561,
34,
o
),
(
560,
100,
o
),
(
560,
240,
c
),
(
559,
240,
l
),
(
545,
92,
o
),
(
448,
-11,
o
),
(
324,
-11,
cs
),
(
178,
-11,
o
),
(
94,
124,
o
),
(
94,
356,
cs
),
(
94,
586,
o
),
(
177,
719,
o
),
(
322,
719,
cs
),
(
441,
719,
o
),
(
538,
620,
o
),
(
559,
468,
c
),
(
560,
468,
l
),
(
560,
612,
o
),
(
561,
673,
o
),
(
564,
722,
c
),
(
563,
722,
l
),
(
558,
683,
o
),
(
546,
668,
o
),
(
521,
668,
cs
),
(
462,
668,
o
),
(
417,
722,
o
),
(
307,
722,
cs
),
(
123,
722,
o
),
(
-6,
567,
o
),
(
-6,
345,
cs
),
(
-6,
128,
o
),
(
117,
-14,
o
),
(
305,
-14,
cs
)
);
}
);
};
layerId = "8A8107C8-C076-4746-AE01-7D15750BBEFC";
shapes = (
{
closed = 1;
nodes = (
(
445,
-14,
o
),
(
493,
40,
o
),
(
527,
40,
cs
),
(
549,
40,
o
),
(
555,
26,
o
),
(
556,
0,
c
),
(
557,
0,
l
),
(
566,
49,
o
),
(
582,
114,
o
),
(
616,
240,
c
),
(
615,
240,
l
),
(
552,
64,
o
),
(
460,
-10,
o
),
(
357,
-10,
cs
),
(
241,
-10,
o
),
(
179,
83,
o
),
(
179,
258,
cs
),
(
179,
511,
o
),
(
320,
719,
o
),
(
492,
719,
cs
),
(
598,
719,
o
),
(
674,
630,
o
),
(
656,
478,
c
),
(
657,
478,
l
),
(
678,
565,
o
),
(
699,
641,
o
),
(
721,
708,
c
),
(
720,
708,
l
),
(
699,
681,
o
),
(
688,
668,
o
),
(
664,
668,
cs
),
(
634,
668,
o
),
(
587,
722,
o
),
(
469,
722,
cs
),
(
257,
722,
o
),
(
79,
517,
o
),
(
79,
271,
cs
),
(
79,
93,
o
),
(
173,
-14,
o
),
(
331,
-14,
cs
)
);
}
);
width = 700;
},
{
anchors = (
{
name = bottom;
pos = (
291.2,
0
);
},
{
name = center;
pos = (
336.933,
354
);
},
{
name = currency;
pos = (
238,
0
);
},
{
name = middlestroke;
pos = (
150.267,
354
);
},
{
name = stem;
pos = (
582.4,
448
);
},
{
name = top;
pos = (
406,
708
);
},
{
name = top_low_1;
pos = (
400.788,
688
);
},
{
name = top_low_2;
pos = (
395.577,
668
);
},
{
name = top_low_3;
pos = (
390.365,
648
);
},
{
name = top_low_4;
pos = (
385.153,
628
);
},
{
name = top_low_5;
pos = (
379.94,
608
);
}
);
background = {
anchors = (
{
name = bottom;
pos = (
378,
0
);
},
{
name = top;
pos = (
481,
708
);
}
);
shapes = (
{
closed = 1;
nodes = (
(
406.933,
-14,
o
),
(
442.4,
60,
o
),
(
466.667,
60,
cs
),
(
478.8,
60,
o
),
(
480.667,
43,
o
),
(
475.067,
0,
c
),
(
496.533,
0,
l
),
(
504.933,
49,
o
),
(
519.867,
114,
o
),
(
551.6,
240,
c
),
(
530.133,
240,
l
),
(
481.6,
85,
o
),
(
404.133,
4,
o
),
(
303.333,
4,
cs
),
(
199.733,
4,
o
),
(
143.733,
92,
o
),
(
143.733,
254,
cs
),
(
143.733,
501,
o
),
(
273.467,
704,
o
),
(
431.2,
704,
cs
),
(
539.467,
704,
o
),
(
594.533,
612,
o
),
(
568.4,
478,
c
),
(
589.867,
478,
l
),
(
609.467,
565,
o
),
(
629.067,
641,
o
),
(
649.6,
708,
c
),
(
628.133,
708,
l
),
(
608.533,
655,
o
),
(
604.8,
649,
o
),
(
594.533,
649,
cs
),
(
566.533,
649,
o
),
(
535.733,
722,
o
),
(
415.333,
722,
cs
),
(
216.533,
722,
o
),
(
50.4,
517,
o
),
(
50.4,
270,
cs
),
(
50.4,
93,
o
),
(
139.067,
-14,
o
),
(
285.6,
-14,
cs
)
);
}
);
};
guides = (
{
angle = 74.4;
pos = (
551.6,
240
);
},
{
angle = 74.4;
pos = (
589.867,
478
);
},
{
angle = 74.4;
pos = (
345.333,
375
);
},
{
angle = 74.4;
pos = (
481.6,
394
);
},
{
angle = 74.4;
pos = (
504.933,
375
);
}
);
layerId = "4637ED20-F3CC-4D04-82BF-886AF47DA6B7";
shapes = (
{
closed = 1;
nodes = (
(
351.867,
-14,
o
),
(
399.467,
40,
o
),
(
421.867,
40,
cs
),
(
431.2,
40,
o
),
(
433.067,
30,
o
),
(
428.4,
0,
c
),
(
496.533,
0,
l
),
(
504.933,
51,
o
),
(
519.867,
116,
o
),
(
559.067,
270,
c
),
(
490.933,
270,
l
),
(
448,
135,
o
),
(
376.133,
61,
o
),
(
289.333,
61,
cs
),
(
197.867,
61,
o
),
(
143.733,
142,
o
),
(
143.733,
279,
cs
),
(
143.733,
483,
o
),
(
257.6,
654,
o
),
(
392.933,
654,
cs
),
(
490,
654,
o
),
(
535.733,
577,
o
),
(
514.267,
448,
c
),
(
582.4,
448,
l
),
(
605.733,
551,
o
),
(
627.2,
634,
o
),
(
649.6,
708,
c
),
(
581.467,
708,
l
),
(
567.467,
671,
o
),
(
559.067,
658,
o
),
(
548.8,
658,
cs
),
(
525.467,
658,
o
),
(
502.133,
722,
o
),
(
391.067,
722,
cs
),
(
205.333,
722,
o
),
(
50.4,
517,
o
),
(
50.4,
271,
cs
),
(
50.4,
94,
o
),
(
129.733,
-14,
o
),
(
260.4,
-14,
cs
)
);
}
);
width = 700;
},
{
anchors = (
{
name = bottom;
pos = (
310.227,
0
);
},
{
name = center;
pos = (
383.807,
354
);
},
{
name = currency;
pos = (
280.398,
0
);
},
{
name = middlestroke;
pos = (
225.71,
354
);
},
{
name = stem;
pos = (
626.42,
478
);
},
{
name = top;
pos = (
420.597,
708
);
},
{
name = top_low_1;
pos = (
415.044,
688
);
},
{
name = top_low_2;
pos = (
409.492,
668
);
},
{
name = top_low_3;
pos = (
403.94,
648
);
},
{
name = top_low_4;
pos = (
398.387,
628
);
},
{
name = top_low_5;
pos = (
392.834,
608
);
}
);
background = {
anchors = (
{
name = bottom;
pos = (
372,
0
);
},
{
name = middlestroke;
pos = (
271,
332
);
},
{
name = top;
pos = (
483,
708
);
}
);
shapes = (
{
closed = 1;
nodes = (
(
407.67,
-14,
o
),
(
458.381,
40,
o
),
(
495.17,
40,
cs
),
(
511.08,
40,
o
),
(
518.04,
30,
o
),
(
523.011,
0,
c
),
(
524.006,
0,
l
),
(
532.955,
49,
o
),
(
548.864,
114,
o
),
(
582.67,
240,
c
),
(
581.676,
240,
l
),
(
517.045,
70,
o
),
(
464.347,
9,
o
),
(
383.807,
9,
cs
),
(
282.386,
9,
o
),
(
222.727,
104,
o
),
(
222.727,
264,
cs
),
(
222.727,
503,
o
),
(
351.989,
714,
o
),
(
497.159,
714,
cs
),
(
595.597,
714,
o
),
(
646.307,
620,
o
),
(
625.426,
478,
c
),
(
626.42,
478,
l
),
(
647.301,
565,
o
),
(
668.182,
641,
o
),
(
690.057,
708,
c
),
(
689.062,
708,
l
),
(
675.142,
681,
o
),
(
661.222,
668,
o
),
(
646.307,
668,
cs
),
(
616.477,
668,
o
),
(
563.778,
722,
o
),
(
438.494,
722,
cs
),
(
200.852,
722,
o
),
(
9.943,
528,
o
),
(
9.943,
285,
cs
),
(
9.943,
102,
o
),
(
119.318,
-14,
o
),
(
290.341,
-14,
cs
)
);
}
);
};
guides = (
{
angle = 74.4;
pos = (
345.028,
255
);
}
);
layerId = "19651320-9895-44C9-9F41-285CE0F17596";
shapes = (
{
closed = 1;
nodes = (
(
407.67,
-14,
o
),
(
458.381,
40,
o
),
(
495.17,
40,
cs
),
(
511.08,
40,
o
),
(
518.04,
30,
o
),
(
523.011,
0,
c
),
(
524.006,
0,
l
),
(
532.955,
49,
o
),
(
548.864,
114,
o
),
(
582.67,
240,
c
),
(
581.676,
240,
l
),
(
517.045,
70,
o
),
(
464.347,
9,
o
),
(
383.807,
9,
cs
),
(
279.403,
9,
o
),
(
218.75,
104,
o
),
(
218.75,
264,
cs
),
(
218.75,
503,
o
),
(
350,
714,
o
),
(
497.159,
714,
cs
),
(
595.597,
714,
o
),
(
646.307,
620,
o
),
(
625.426,
478,
c
),
(
626.42,
478,
l
),
(
647.301,
565,
o
),
(
668.182,
641,
o
),
(
690.057,
708,
c
),
(
689.062,
708,
l
),
(
675.142,
681,
o
),
(
661.222,
668,
o
),
(
646.307,
668,
cs
),
(
616.477,
668,
o
),
(
563.778,
722,
o
),
(
438.494,
722,
cs
),
(
200.852,
722,
o
),
(
9.943,
528,
o
),
(
9.943,
285,
cs
),
(
9.943,
102,
o
),
(
119.318,
-14,
o
),
(
290.341,
-14,
cs
)
);
}
);
width = 700;
},
{
anchors = (
{
name = bottom;
pos = (
318.356,
0
);
},
{
name = center;
pos = (
350.959,
354
);
},
{
name = currency;
pos = (
276.164,
0
);
},
{
name = middlestroke;
pos = (
216.712,
354
);
},
{
name = stem;
pos = (
617.534,
448
);
},
{
name = top;
pos = (
436.301,
708
);
},
{
name = top_low_1;
pos = (
430.947,
688
);
},
{
name = top_low_2;
pos = (
425.592,
668
);
},
{
name = top_low_3;
pos = (
420.238,
648
);
},
{
name = top_low_4;
pos = (
414.883,
628
);
},
{
name = top_low_5;
pos = (
409.528,
608
);
}
);
background = {
anchors = (
{
name = bottom;
pos = (
388,
0
);
},
{
name = top;
pos = (
511,
708
);
}
);
shapes = (
{
closed = 1;
nodes = (
(
368.219,
-14,
o
),
(
430.548,
40,
o
),
(
452.603,
40,
cs
),
(
462.192,
40,
o
),
(
464.11,
30,
o
),
(
459.315,
0,
c
),
(
529.315,
0,
l
),
(
537.945,
48,
o
),
(
551.37,
106,
o
),
(
593.562,
270,
c
),
(
523.562,
270,
l
),
(
476.575,
140,
o
),
(
415.205,
76,
o
),
(
337.534,
76,
cs
),
(
256.027,
76,
o
),
(
213.836,
147,
o
),
(
213.836,
283,
cs
),
(
213.836,
490,
o
),
(
310.685,
654,
o
),
(
433.425,
654,
cs
),
(
521.644,
654,
o
),
(
568.63,
570,
o
),
(
547.534,
448,
c
),
(
617.534,
448,
l
),
(
641.507,
551,
o
),
(
663.562,
634,
o
),
(
686.575,
708,
c
),
(
616.575,
708,
l
),
(
602.192,
671,
o
),
(
593.562,
658,
o
),
(
583.014,
658,
cs
),
(
559.041,
658,
o
),
(
514.932,
722,
o
),
(
393.151,
722,
cs
),
(
181.233,
722,
o
),
(
14.384,
529,
o
),
(
14.384,
284,
cs
),
(
14.384,
100,
o
),
(
109.315,
-14,
o
),
(
262.74,
-14,
cs
)
);
}
);
};
guides = (
{
angle = 74.4;
pos = (
585.89,
240
);
},
{
angle = 74.4;
pos = (
625.205,
478
);
},
{
angle = 74.4;
pos = (
373.973,
375
);
},
{
angle = 74.4;
pos = (
513.973,
394
);
},
{
angle = 74.4;
pos = (
537.945,
375
);
}
);
layerId = "5936EB7C-5C81-433B-ABAB-ADB37EE98828";
shapes = (
{
closed = 1;
nodes = (
(
384.521,
-14,
o
),
(
431.507,
40,
o
),
(
452.603,
40,
cs
),
(
462.192,
40,
o
),
(
464.11,
30,
o
),
(
459.315,
0,
c
),
(
529.315,
0,
l
),
(
539.863,
55,
o
),
(
557.123,
127,
o
),
(
593.562,
270,
c
),
(
523.562,
270,
l
),
(
475.616,
134,
o
),
(
414.247,
66,
o
),
(
339.452,
66,
cs
),
(
257.945,
66,
o
),
(
211.918,
144,
o
),
(
211.918,
279,
cs
),
(
211.918,
484,
o
),
(
318.356,
654,
o
),
(
447.808,
654,
cs
),
(
532.192,
654,
o
),
(
568.63,
578,
o
),
(
547.534,
448,
c
),
(
617.534,
448,
l
),
(
641.507,
551,
o
),
(
663.562,
634,
o
),
(
686.575,
708,
c
),
(
616.575,
708,
l
),
(
602.192,
671,
o
),
(
593.562,
658,
o
),
(
583.014,
658,
cs
),
(
560,
658,
o
),
(
514.932,
722,
o
),
(
395.068,
722,
cs
),
(
185.068,
722,
o
),
(
13.425,
523,
o
),
(
13.425,
280,
cs
),
(
13.425,
97,
o
),
(
111.233,
-14,
o
),
(
272.329,
-14,
cs
)
);
}
);
width = 700;
}
);
metricLeft = O;
unicode = 67;
}
{
color = 4;
glyphname = E;
kernLeft = KO_H;
kernRight = KO_E;
layers = (
{
anchors = (
{
name = bottom;
pos = (
313.5,
0
);
},
{
name = center;
pos = (
381.5,
354
);
},
{
name = ogonek;
pos = (
517.5,
0
);
},
{
name = top;
pos = (
458.5,
708
);
},
{
name = top_low_1;
pos = (
452.5,
688
);
},
{
name = top_low_2;
pos = (
447.5,
668
);
},
{
name = top_low_3;
pos = (
441.5,
648
);
},
{
name = top_low_4;
pos = (
436.5,
628
);
},
{
name = top_low_5;
pos = (
430.5,
608
);
}
);
background = {
anchors = (
{
name = bottom;
pos = (
272,
0
);
},
{
name = ogonek;
pos = (
476,
0
);
},
{
name = top;
pos = (
417,
708
);
}
);
guides = (
{
angle = 74.4;
pos = (
74,
87
);
},
{
angle = 74.4;
pos = (
-7,
87
);
},
{
angle = 74.4;
pos = (
533,
508
);
}
);
hints = (
{
name = "_corner.UC-right-serif";
options = 1;
origin = (
0,
15
);
type = Corner;
},
{
name = "_corner.UC-left-serif";
origin = (
0,
16
);
type = Corner;
},
{
name = "_cap.UC-vertical-capheight";
options = 2;
origin = (
0,
10
);
type = Cap;
},
{
name = "_cap.UC-vertical-baseline";
options = 1;
origin = (
0,
3
);
scale = (
1,
2
);
type = Cap;
}
);
shapes = (
{
closed = 1;
nodes = (
(
144.5,
3,
l
),
(
310.5,
3,
o
),
(
452.5,
2,
o
),
(
532.5,
0,
c
),
(
532.5,
4,
l
),
(
266.5,
4,
ls
),
(
200.5,
4,
o
),
(
188.5,
17,
o
),
(
208.5,
87,
cs
),
(
381.5,
704,
l
),
(
660.5,
705,
l
),
(
660.5,
708,
l
),
(
586.5,
708,
o
),
(
507.5,
705,
o
),
(
333.5,
705,
c
),
(
289.5,
708,
l
),
(
91.5,
0,
l
)
);
},
{
closed = 1;
nodes = (
(
464.5,
356,
l
),
(
464.5,
357,
l
),
(
251.5,
357,
l
),
(
251.5,
356,
l
)
);
},
{
closed = 1;
nodes = (
(
491.5,
204,
l
),
(
506.5,
269,
o
),
(
515.5,
305,
o
),
(
529.5,
356,
cs
),
(
539.5,
391,
o
),
(
547.5,
427,
o
),
(
574.5,
508,
c
),
(
573.5,
508,
l
),
(
528.5,
394,
o
),
(
484.5,
357,
o
),
(
396.5,
357,
c
),
(
379.5,
356,
l
),
(
468.5,
356,
o
),
(
506.5,
304,
o
),
(
490.5,
204,
c
)
);
}
);
};
guides = (
{
angle = 74.4;
pos = (
115.5,
87
);
},
{
angle = 74.4;
pos = (
34.5,
87
);
},
{
angle = 74.4;
pos = (
574.5,
508
);
}
);
layerId = "8A8107C8-C076-4746-AE01-7D15750BBEFC";
shapes = (
{
closed = 1;
nodes = (
(
144.5,
3,
l
),
(
272.5,
3,
l
),
(
380.5,
3,
o
),
(
427.5,
2,
o
),
(
532.5,
0,
c
),
(
551.5,
73,
o
),
(
579.5,
148,
o
),
(
619.5,
230,
c
),
(
618.5,
230,
l
),
(
516.5,
45,
o
),
(
433.5,
4,
o
),
(
277.5,
4,
c
),
(
256.5,
4,
l
),
(
196.5,
4,
o
),
(
188.5,
15,
o
),
(
206.5,
80,
c
),
(
381.5,
704,
l
),
(
452.5,
704,
l
),
(
599.5,
704,
o
),
(
634.5,
658,
o
),
(
643.5,
508,
c
),
(
644.5,
508,
l
),
(
647.5,
588,
o
),
(
652.5,
654,
o
),
(
660.5,
708,
c
),
(
596.5,
706,
o
),
(
498.5,
705,
o
),
(
458.5,
705,
c
),
(
333.5,
705,
l
),
(
338.5,
705,
l
),
(
279.5,
705,
o
),
(
235.5,
707,
o
),
(
208.5,
708,
c
),
(
208.5,
707,
l
),
(
228.5,
705,
l
),
(
281.5,
698,
o
),
(
283.5,
686,
o
),
(
265.5,
621,
c
),
(
115.5,
87,
l
),
(
97.5,
22,
o
),
(
85.5,
10,
o
),
(
27.5,
4,
c
),
(
10.5,
2,
l
),
(
10.5,
1,
l
),
(
36.5,
1,
o
),
(
80.5,
3,
o
),
(
137.5,
3,
c
)
);
},
{
closed = 1;
nodes = (
(
464.5,
356,
l
),
(
464.5,
357,
l
),
(
251.5,
357,
l
),
(
251.5,
356,
l
)
);
},
{
closed = 1;
nodes = (
(
491.5,
204,
l
),
(
506.5,
269,
o
),
(
515.5,
305,
o
),
(
529.5,
356,
cs
),
(
539.5,
391,
o
),
(
547.5,
427,
o
),
(
574.5,
508,
c
),
(
573.5,
508,
l
),
(
528.5,
394,
o
),
(
484.5,
357,
o
),
(
396.5,
357,
c
),
(
379.5,
356,
l
),
(
468.5,
356,
o
),
(
506.5,
304,
o
),
(
490.5,
204,
c
)
);
}
);
width = 700;
},
{
anchors = (
{
name = bottom;
pos = (
348.123,
0
);
},
{
name = center;
pos = (
400.67,
354
);
},
{
name = ogonek;
pos = (
539.544,
0
);
},
{
name = top;
pos = (
456.032,
708
);
},
{
name = top_low_1;
pos = (
450.402,
688
);
},
{
name = top_low_2;
pos = (
445.71,
668
);
},
{
name = top_low_3;
pos = (
440.08,
648
);
},
{
name = top_low_4;
pos = (
435.389,
628
);
},
{
name = top_low_5;
pos = (
429.759,
608
);
}
);
background = {
anchors = (
{
name = bottom;
pos = (
361,
0
);
},
{
name = ogonek;
pos = (
565,
0
);
},
{
name = top;
pos = (
476,
708
);
}
);
guides = (
{
angle = 74.4;
pos = (
183,
156
);
},
{
angle = 74.4;
pos = (
276,
156
);
},
{
angle = 74.4;
pos = (
299,
346
);
},
{
angle = 74.4;
pos = (
613,
214
);
},
{
angle = 74.4;
pos = (
653,
214
);
},
{
angle = 74.4;
pos = (
509,
214
);
},
{
angle = 74.4;
pos = (
42,
156
);
}
);
hints = (
{
name = "_corner.UC-right-serif";
options = 1;
origin = (
0,
15
);
type = Corner;
},
{
name = "_corner.UC-left-serif";
origin = (
0,
16
);
type = Corner;
},
{
name = "_cap.UC-vertical-capheight";
options = 2;
origin = (
0,
10
);
type = Cap;
},
{
name = "_cap.UC-vertical-baseline";
options = 1;
origin = (
0,
3
);
scale = (
1,
2
);
type = Cap;
}
);
shapes = (
{
closed = 1;
nodes = (
(
182.976,
3,
l
),
(
440.08,
2,
o
),
(
305.898,
3,
o
),
(
553.619,
0,
c
),
(
553.619,
73,
l
),
(
322.788,
73,
ls
),
(
257.105,
73,
o
),
(
249.598,
85,
o
),
(
268.365,
156,
cs
),
(
395.04,
635,
l
),
(
692.493,
635,
l
),
(
692.493,
708,
l
),
(
608.981,
706,
o
),
(
504.826,
705,
o
),
(
370.643,
705,
c
),
(
326.542,
708,
l
),
(
139.812,
0,
l
)
);
},
{
closed = 1;
nodes = (
(
464.477,
321,
l
),
(
483.244,
391,
l
),
(
302.145,
391,
l
),
(
283.378,
321,
l
)
);
},
{
closed = 1;
nodes = (
(
480.429,
214,
l
),
(
496.381,
290,
o
),
(
504.826,
323,
o
),
(
513.271,
356,
cs
),
(
521.716,
389,
o
),
(
530.161,
422,
o
),
(
555.496,
498,
c
),
(
489.812,
498,
l
),
(
466.354,
433,
o
),
(
440.08,
391,
o
),
(
376.273,
391,
c
),
(
329.357,
321,
l
),
(
417.56,
321,
o
),
(
426.944,
279,
o
),
(
414.745,
214,
c
)
);
}
);
};
guides = (
{
angle = 74.4;
pos = (
181.099,
156
);
},
{
angle = 74.4;
pos = (
268.365,
156
);
},
{
angle = 74.4;
pos = (
289.946,
346
);
},
{
angle = 74.4;
pos = (
584.584,
214
);
},
{
angle = 74.4;
pos = (
622.118,
214
);
},
{
angle = 74.4;
pos = (
486.997,
214
);
},
{
angle = 74.4;
pos = (
48.794,
156
);
}
);
layerId = "4637ED20-F3CC-4D04-82BF-886AF47DA6B7";
shapes = (
{
closed = 1;
nodes = (
(
182.976,
3,
l
),
(
329.357,
3,
l
),
(
417.56,
3,
o
),
(
482.306,
2,
o
),
(
553.619,
0,
c
),
(
572.386,
81,
o
),
(
597.721,
151,
o
),
(
640.885,
250,
c
),
(
572.386,
250,
l
),
(
498.257,
112,
o
),
(
449.464,
73,
o
),
(
336.863,
73,
c
),
(
322.788,
73,
l
),
(
260.858,
73,
o
),
(
250.536,
88,
o
),
(
268.365,
155,
c
),
(
394.102,
635,
l
),
(
432.574,
635,
l
),
(
549.866,
635,
o
),
(
578.016,
607,
o
),
(
600.536,
508,
c
),
(
669.035,
508,
l
),
(
670.912,
588,
o
),
(
677.48,
638,
o
),
(
692.493,
708,
c
),
(
622.118,
706,
o
),
(
559.249,
705,
o
),
(
466.354,
705,
c
),
(
370.643,
705,
l
),
(
365.013,
705,
l
),
(
305.898,
705,
o
),
(
228.954,
706,
o
),
(
193.298,
707,
c
),
(
175.469,
636,
l
),
(
225.201,
632,
l
),
(
293.7,
626,
o
),
(
302.145,
608,
o
),
(
285.255,
552,
c
),
(
181.099,
156,
l
),
(
166.086,
100,
o
),
(
147.319,
81,
o
),
(
78.82,
75,
c
),
(
26.273,
70,
l
),
(
7.507,
-1,
l
),
(
44.102,
1,
o
),
(
126.676,
3,
o
),
(
185.791,
3,
c
)
);
},
{
closed = 1;
nodes = (
(
464.477,
321,
l
),
(
483.244,
391,
l
),
(
302.145,
391,
l
),
(
283.378,
321,
l
)
);
},
{
closed = 1;
nodes = (
(
480.429,
214,
l
),
(
496.381,
290,
o
),
(
504.826,
323,
o
),
(
513.271,
356,
cs
),
(
521.716,
389,
o
),
(
530.161,
422,
o
),
(
555.496,
498,
c
),
(
489.812,
498,
l
),
(
466.354,
433,
o
),
(
440.08,
391,
o
),
(
376.273,
391,
c
),
(
329.357,
321,
l
),
(
417.56,
321,
o
),
(
426.944,
279,
o
),
(
414.745,
214,
c
)
);
}
);
width = 700;
},
{
anchors = (
{
name = bottom;
pos = (
327,
0
);
},
{
name = center;
pos = (
430,
354
);
},
{
name = ogonek;
pos = (
565,
0
);
},
{
name = top;
pos = (
496,
708
);
},
{
name = top_low_1;
pos = (
490,
688
);
},
{
name = top_low_2;
pos = (
485,
668
);
},
{
name = top_low_3;
pos = (
479,
648
);
},
{
name = top_low_4;
pos = (
474,
628
);
},
{
name = top_low_5;
pos = (
468,
608
);
}
);
background = {
anchors = (
{
name = bottom;
pos = (
285,
0
);
},
{
name = ogonek;
pos = (
523,
0
);
},
{
name = top;
pos = (
454,
708
);
}
);
guides = (
{
angle = 74.4;
pos = (
59,
87
);
},
{
angle = 74.4;
pos = (
1,
156
);
}
);
hints = (
{
name = "_corner.UC-right-serif";
options = 1;
origin = (
0,
15
);
type = Corner;
},
{
name = "_corner.UC-left-serif";
origin = (
0,
16
);
type = Corner;
},
{
name = "_cap.UC-vertical-capheight";
options = 2;
origin = (
0,
10
);
type = Cap;
},
{
name = "_cap.UC-vertical-baseline";
options = 1;
origin = (
0,
3
);
scale = (
1,
2
);
type = Cap;
}
);
shapes = (
{
closed = 1;
nodes = (
(
183,
3,
l
),
(
347,
3,
o
),
(
491,
2,
o
),
(
590,
0,
c
),
(
590,
3,
l
),
(
332,
4,
ls
),
(
289,
4,
o
),
(
283,
12,
o
),
(
298,
66,
cs
),
(
477,
705,
l
),
(
713,
705,
l
),
(
713,
708,
l
),
(
484,
708,
o
),
(
435,
705,
o
),
(
373,
705,
c
),
(
275,
708,
l
),
(
77,
0,
l
)
);
},
{
closed = 1;
nodes = (
(
517,
355,
l
),
(
517,
356,
l
),
(
347,
356,
l
),
(
347,
355,
l
)
);
},
{
closed = 1;
nodes = (
(
532,
214,
l
),
(
548,
286,
o
),
(
556,
319,
o
),
(
566,
356,
cs
),
(
576,
389,
o
),
(
582,
422,
o
),
(
608,
498,
c
),
(
607,
498,
l
),
(
566,
414,
o
),
(
497,
356,
o
),
(
398,
356,
c
),
(
392,
355,
l
),
(
498,
355,
o
),
(
531,
295,
o
),
(
531,
214,
c
)
);
}
);
};
guides = (
{
angle = 74.4;
pos = (
101,
87
);
},
{
angle = 74.4;
pos = (
43,
156
);
}
);
layerId = "19651320-9895-44C9-9F41-285CE0F17596";
shapes = (
{
closed = 1;
nodes = (
(
183,
3,
l
),
(
340,
3,
l
),
(
455,
3,
o
),
(
520,
2,
o
),
(
590,
0,
c
),
(
610,
77,
o
),
(
641,
165,
o
),
(
689,
280,
c
),
(
688,
280,
l
),
(
586,
89,
o
),
(
474,
4,
o
),
(
345,
4,
c
),
(
338,
4,
l
),
(
294,
4,
o
),
(
286,
21,
o
),
(
302,
79,
c
),
(
477,
704,
l
),
(
466,
704,
l
),
(
604,
704,
o
),
(
673,
643,
o
),
(
685,
508,
c
),
(
686,
508,
l
),
(
689,
586,
o
),
(
697,
648,
o
),
(
713,
708,
c
),
(
654,
706,
o
),
(
567,
705,
o
),
(
471,
705,
c
),
(
373,
705,
l
),
(
375,
705,
l
),
(
292,
705,
o
),
(
230,
707,
o
),
(
197,
708,
c
),
(
197,
707,
l
),
(
220,
705,
l
),
(
266,
700,
o
),
(
269,
684,
o
),
(
251,
621,
c
),
(
101,
87,
l
),
(
84,
24,
o
),
(
68,
8,
o
),
(
21,
3,
c
),
(
0,
1,
l
),
(
0,
0,
l
),
(
32,
1,
o
),
(
93,
3,
o
),
(
174,
3,
c
)
);
},
{
closed = 1;
nodes = (
(
517,
355,
l
),
(
517,
356,
l
),
(
347,
356,
l
),
(
347,
355,
l
)
);
},
{
closed = 1;
nodes = (
(
532,
214,
l
),
(
548,
286,
o
),
(
556,
319,
o
),
(
566,
356,
cs
),
(
576,
389,
o
),
(
582,
422,
o
),
(
608,
498,
c
),
(
607,
498,
l
),
(
566,
414,
o
),
(
497,
356,
o
),
(
398,
356,
c
),
(
392,
355,
l
),
(
498,
355,
o
),
(
531,
295,
o
),
(
531,
214,
c
)
);
}
);
width = 700;
},
{
anchors = (
{
name = bottom;
pos = (
321.596,
0
);
},
{
name = center;
pos = (
451.582,
354
);
},
{
name = ogonek;
pos = (
518.02,
0
);
},
{
name = top;
pos = (
480.468,
708
);
},
{
name = top_low_1;
pos = (
474.691,
688
);
},
{
name = top_low_2;
pos = (
469.877,
668
);
},
{
name = top_low_3;
pos = (
464.099,
648
);
},
{
name = top_low_4;
pos = (
459.285,
628
);
},
{
name = top_low_5;
pos = (
453.508,
608
);
}
);
background = {
anchors = (
{
name = bottom;
pos = (
291,
0
);
},
{
name = ogonek;
pos = (
495,
0
);
},
{
name = top;
pos = (
456,
708
);
}
);
guides = (
{
angle = 74.4;
pos = (
103,
156
);
},
{
angle = 74.4;
pos = (
196,
156
);
},
{
angle = 74.4;
pos = (
219,
346
);
},
{
angle = 74.4;
pos = (
533,
214
);
},
{
angle = 74.4;
pos = (
768,
708
);
},
{
angle = 74.4;
pos = (
429,
214
);
},
{
angle = 74.4;
pos = (
2,
156
);
}
);
hints = (
{
name = "_corner.UC-right-serif";
options = 1;
origin = (
0,
15
);
type = Corner;
},
{
name = "_corner.UC-left-serif";
origin = (
0,
16
);
type = Corner;
},
{
name = "_cap.UC-vertical-capheight";
options = 2;
origin = (
0,
10
);
type = Cap;
},
{
name = "_cap.UC-vertical-baseline";
options = 1;
origin = (
0,
3
);
scale = (
1,
2
);
type = Cap;
}
);
shapes = (
{
closed = 1;
nodes = (
(
205.09,
3,
l
),
(
348.556,
3,
o
),
(
487.208,
2,
o
),
(
628.749,
0,
c
),
(
628.749,
73,
l
),
(
382.256,
73,
ls
),
(
324.485,
73,
o
),
(
316.782,
85,
o
),
(
336.039,
156,
cs
),
(
465.062,
635,
l
),
(
761.624,
635,
l
),
(
761.624,
708,
l
),
(
662.449,
706,
o
),
(
541.128,
705,
o
),
(
383.219,
705,
c
),
(
288.859,
708,
l
),
(
98.212,
0,
l
)
);
},
{
closed = 1;
nodes = (
(
537.277,
321,
l
),
(
556.534,
391,
l
),
(
370.702,
391,
l
),
(
351.445,
321,
l
)
);
},
{
closed = 1;
nodes = (
(
554.608,
214,
l
),
(
565.2,
266,
o
),
(
573.866,
303,
o
),
(
588.309,
356,
cs
),
(
602.751,
409,
o
),
(
613.343,
446,
o
),
(
631.637,
498,
c
),
(
561.348,
498,
l
),
(
533.425,
426,
o
),
(
498.762,
391,
o
),
(
435.214,
391,
c
),
(
396.699,
321,
l
),
(
469.877,
321,
o
),
(
494.911,
286,
o
),
(
484.32,
214,
c
)
);
}
);
};
guides = (
{
angle = 74.4;
pos = (
140.578,
156
);
},
{
angle = 74.4;
pos = (
230.124,
156
);
},
{
angle = 74.4;
pos = (
252.27,
346
);
},
{
angle = 74.4;
pos = (
780.881,
708
);
},
{
angle = 74.4;
pos = (
454.471,
214
);
},
{
angle = 74.4;
pos = (
43.329,
156
);
}
);
layerId = "5936EB7C-5C81-433B-ABAB-ADB37EE98828";
shapes = (
{
closed = 1;
nodes = (
(
205.09,
3,
l
),
(
398.625,
3,
l
),
(
489.134,
3,
o
),
(
555.571,
2,
o
),
(
628.749,
0,
c
),
(
646.08,
85,
o
),
(
674.003,
165,
o
),
(
728.886,
280,
c
),
(
658.597,
280,
l
),
(
569.051,
119,
o
),
(
506.465,
73,
o
),
(
406.328,
73,
c
),
(
382.256,
73,
l
),
(
330.262,
73,
o
),
(
317.745,
89,
o
),
(
331.225,
139,
c
),
(
465.062,
635,
l
),
(
494.911,
635,
l
),
(
615.269,
635,
o
),
(
644.155,
607,
o
),
(
667.263,
508,
c
),
(
737.552,
508,
l
),
(
740.441,
586,
o
),
(
747.181,
636,
o
),
(
761.624,
708,
c
),
(
689.409,
706,
o
),
(
624.897,
705,
o
),
(
529.574,
705,
c
),
(
383.219,
705,
l
),
(
387.071,
705,
l
),
(
337.002,
705,
o
),
(
248.419,
706,
o
),
(
191.61,
708,
c
),
(
173.315,
638,
l
),
(
207.978,
635,
l
),
(
259.973,
630,
o
),
(
263.824,
616,
o
),
(
246.493,
552,
c
),
(
139.615,
156,
l
),
(
123.247,
92,
o
),
(
106.878,
78,
o
),
(
51.995,
73,
c
),
(
19.258,
70,
l
),
(
0,
0,
l
),
(
55.846,
2,
o
),
(
142.504,
3,
o
),
(
190.647,
3,
c
)
);
},
{
closed = 1;
nodes = (
(
537.277,
321,
l
),
(
556.534,
391,
l
),
(
370.702,
391,
l
),
(
351.445,
321,
l
)
);
},
{
closed = 1;
nodes = (
(
554.608,
214,
l
),
(
563.274,
262,
o
),
(
571.94,
296,
o
),
(
588.309,
356,
cs
),
(
602.751,
411,
o
),
(
614.306,
447,
o
),
(
631.637,
498,
c
),
(
561.348,
498,
l
),
(
517.057,
411,
o
),
(
496.837,
391,
o
),
(
414.031,
391,
c
),
(
390.922,
321,
l
),
(
470.84,
321,
o
),
(
492.985,
295,
o
),
(
484.32,
214,
c
)
);
}
);
width = 700;
}
);
unicode = 69;
userData = {
KernOnName = E;
};
}
